<svg width="32" height="32" viewBox="0 0 32 32" fill="none" xmlns="http://www.w3.org/2000/svg">
<path d="M6.92773 5.98584L10.4132 14.4564C10.4615 14.5735 10.4696 14.7032 10.436 14.8253C10.4025 14.9474 10.3294 15.0549 10.2281 15.1309L8.58734 16.3482L15.0281 24.5835L10.636 4.89722L6.92773 5.98584Z" fill="#F5EFCC"/>
<path d="M20.9916 7.72075C20.9882 7.7866 20.9733 7.85136 20.9477 7.91212L17.2363 24.5835L23.6803 16.3545L22.0395 15.1372C21.9372 15.062 21.8631 14.9547 21.829 14.8324C21.7949 14.7102 21.8027 14.58 21.8512 14.4627L25.3367 5.99212L21.6191 4.89722L20.9916 7.72075Z" fill="#F5EFCC"/>
<path d="M14.2035 5.12639C14.2018 4.79752 14.2839 4.47364 14.4419 4.18522L12.4121 3.38208V6.83306L14.4325 6.05816C14.2797 5.77152 14.201 5.45122 14.2035 5.12639Z" fill="#F5EFCC"/>
<path d="M19.854 6.85796V3.40698L17.8242 4.21012C17.9807 4.49574 18.0628 4.81619 18.0628 5.14188C18.0628 5.46758 17.9807 5.78803 17.8242 6.07365L19.854 6.85796Z" fill="#F5EFCC"/>
<path d="M16.1335 8.85963C15.9823 8.86045 15.8375 8.92087 15.7306 9.02777C15.6237 9.13468 15.5633 9.27943 15.5625 9.43061C15.5641 9.58124 15.6249 9.72519 15.7317 9.83142C15.8386 9.93765 15.9828 9.99764 16.1335 9.99845C16.285 9.99862 16.4305 9.93885 16.5382 9.83218C16.6435 9.72491 16.7031 9.58095 16.7045 9.43061C16.7049 9.35551 16.6904 9.28107 16.6618 9.21161C16.6333 9.14215 16.5913 9.07904 16.5382 9.02594C16.485 8.97283 16.4219 8.93079 16.3525 8.90224C16.283 8.8737 16.2086 8.85921 16.1335 8.85963Z" fill="url(#paint0_linear_92_125)"/>
<path d="M16.1335 12.9914C15.9828 12.9922 15.8386 13.0522 15.7317 13.1584C15.6249 13.2646 15.5641 13.4086 15.5625 13.5592C15.5666 13.7082 15.6284 13.8498 15.735 13.954C15.8415 14.0582 15.9844 14.1169 16.1335 14.1176C16.2086 14.1181 16.283 14.1036 16.3525 14.075C16.4219 14.0465 16.485 14.0044 16.5382 13.9513C16.5913 13.8982 16.6333 13.8351 16.6618 13.7657C16.6904 13.6962 16.7049 13.6218 16.7045 13.5467C16.7031 13.3963 16.6435 13.2524 16.5382 13.1451C16.4285 13.043 16.2833 12.9878 16.1335 12.9914Z" fill="url(#paint1_linear_92_125)"/>
<path d="M16.1335 17.1201C16.0589 17.1201 15.9851 17.1348 15.9162 17.1633C15.8473 17.1918 15.7846 17.2337 15.7319 17.2864C15.6244 17.3937 15.5635 17.5392 15.5625 17.6911C15.5637 17.8421 15.6246 17.9865 15.7319 18.0927C15.7844 18.1457 15.847 18.1877 15.916 18.2162C15.9849 18.2448 16.0589 18.2593 16.1335 18.2589C16.285 18.2591 16.4305 18.1993 16.5382 18.0927C16.6435 17.9854 16.7031 17.8414 16.7045 17.6911C16.703 17.5399 16.6434 17.395 16.5382 17.2864C16.4305 17.1797 16.285 17.12 16.1335 17.1201Z" fill="url(#paint2_linear_92_125)"/>
<path d="M29.419 5.99216L20.9923 3.50745V2.56628C20.9928 2.47331 20.9704 2.38167 20.9271 2.29938C20.8839 2.21709 20.8211 2.14669 20.7443 2.09434C20.6674 2.04199 20.5789 2.0093 20.4865 1.99914C20.3941 1.98898 20.3007 2.00167 20.2143 2.03608C20.2143 2.03608 16.9045 3.34118 16.8825 3.35686C16.6456 3.25537 16.3905 3.20304 16.1327 3.20304C15.875 3.20304 15.6199 3.25537 15.3829 3.35686C15.3735 3.33177 12.0512 2.02667 12.0512 2.02667C11.9648 1.99225 11.8713 1.97957 11.7789 1.98973C11.6865 1.99989 11.598 2.03257 11.5212 2.08492C11.4444 2.13727 11.3816 2.20768 11.3383 2.28997C11.2951 2.37226 11.2727 2.4639 11.2731 2.55686V3.52627L2.84645 5.99216C2.76965 6.00825 2.69699 6.04 2.63301 6.08543C2.56903 6.13085 2.5151 6.18898 2.47458 6.25617C2.43407 6.32337 2.40784 6.39819 2.39753 6.47598C2.38722 6.55377 2.39305 6.63284 2.41467 6.70827C2.43628 6.78371 2.47321 6.85387 2.52315 6.9144C2.57309 6.97492 2.63497 7.0245 2.70492 7.06004C2.77487 7.09558 2.8514 7.11633 2.92973 7.12098C3.00806 7.12563 3.08651 7.11408 3.16017 7.08706L5.82057 6.30588L9.19312 14.4847L7.43939 15.7867C7.3783 15.832 7.3269 15.8892 7.28821 15.9547C7.24952 16.0202 7.22432 16.0928 7.21409 16.1683C7.20386 16.2437 7.20881 16.3204 7.22864 16.3938C7.24848 16.4673 7.2828 16.5361 7.32959 16.5961L15.5649 27.1153V29.418C15.5756 29.5618 15.6402 29.6961 15.7458 29.7942C15.8514 29.8922 15.9902 29.9467 16.1343 29.9467C16.2784 29.9467 16.4172 29.8922 16.5228 29.7942C16.6284 29.6961 16.693 29.5618 16.7037 29.418V27.1153L24.9359 16.5961C24.9824 16.5361 25.0166 16.4675 25.0364 16.3942C25.0563 16.3209 25.0614 16.2444 25.0515 16.1691C25.0416 16.0938 25.0168 16.0213 24.9786 15.9556C24.9405 15.89 24.8897 15.8325 24.8292 15.7867L23.0723 14.4847L26.4386 6.30588L29.099 7.08706C29.1727 7.11408 29.2511 7.12563 29.3294 7.12098C29.4078 7.11633 29.4843 7.09558 29.5543 7.06004C29.6242 7.0245 29.6861 6.97492 29.736 6.9144C29.786 6.85387 29.8229 6.78371 29.8445 6.70827C29.8661 6.63284 29.872 6.55377 29.8616 6.47598C29.8513 6.39819 29.8251 6.32337 29.7846 6.25617C29.7441 6.18898 29.6901 6.13085 29.6262 6.08543C29.5622 6.04 29.4895 6.00825 29.4127 5.99216H29.419ZM17.8112 4.19451L19.841 3.39137V6.84235L17.8112 6.04235C17.9677 5.75673 18.0497 5.43629 18.0497 5.11059C18.0497 4.78489 17.9677 4.46444 17.8112 4.17882V4.19451ZM16.1202 4.33255C16.2773 4.33193 16.4311 4.37795 16.562 4.46479C16.6929 4.55163 16.7952 4.67537 16.8557 4.82035C16.9163 4.96533 16.9324 5.12502 16.9022 5.27919C16.8719 5.43336 16.7966 5.57509 16.6857 5.6864C16.5748 5.79772 16.4334 5.87363 16.2793 5.90451C16.1253 5.93539 15.9655 5.91986 15.8203 5.85988C15.6751 5.79989 15.5509 5.69816 15.4636 5.56757C15.3762 5.43697 15.3296 5.28339 15.3296 5.12628C15.3296 5.02124 15.3504 4.91726 15.3909 4.82034C15.4314 4.72342 15.4907 4.6355 15.5654 4.56167C15.6401 4.48784 15.7287 4.42958 15.8261 4.39024C15.9235 4.35091 16.0277 4.3313 16.1327 4.33255H16.1202ZM12.3994 3.39137L14.4323 4.19451C14.2758 4.48013 14.1938 4.80058 14.1938 5.12628C14.1938 5.45197 14.2758 5.77242 14.4323 6.05804L12.4025 6.85804L12.3994 3.39137ZM8.58763 16.3545L10.2284 15.1373C10.3297 15.0613 10.4028 14.9538 10.4363 14.8317C10.4698 14.7096 10.4618 14.5798 10.4135 14.4627L6.92802 5.99216L10.6457 4.90353L15.0378 24.5898L8.58763 16.3545ZM16.1327 24.298L12.5123 8.04078L15.3108 6.93961L15.3735 6.90196C15.611 7.00136 15.8659 7.05255 16.1233 7.05255C16.3808 7.05255 16.6356 7.00136 16.8731 6.90196L16.9453 6.93647L19.7657 8.04392L16.1327 24.298ZM21.8519 14.4627C21.8034 14.58 21.7956 14.7102 21.8297 14.8325C21.8638 14.9547 21.9379 15.062 22.0402 15.1373L23.681 16.3545L17.237 24.5835L20.9484 7.91216L20.9923 7.72078L21.6198 4.89726L25.3374 5.98588L21.8519 14.4627Z" fill="url(#paint3_linear_92_125)"/>
<defs>
<linearGradient id="paint0_linear_92_125" x1="16.1335" y1="8.85962" x2="16.1335" y2="9.99845" gradientUnits="userSpaceOnUse">
<stop stop-color="#EFCE83"/>
<stop offset="0.421875" stop-color="#B48811" stop-opacity="0.6375"/>
<stop offset="0.794792" stop-color="#A2790D" stop-opacity="0.57"/>
<stop offset="1" stop-color="#BB9B49" stop-opacity="0.26"/>
</linearGradient>
<linearGradient id="paint1_linear_92_125" x1="16.1335" y1="12.9912" x2="16.1335" y2="14.1177" gradientUnits="userSpaceOnUse">
<stop stop-color="#EFCE83"/>
<stop offset="0.421875" stop-color="#B48811" stop-opacity="0.6375"/>
<stop offset="0.794792" stop-color="#A2790D" stop-opacity="0.57"/>
<stop offset="1" stop-color="#BB9B49" stop-opacity="0.26"/>
</linearGradient>
<linearGradient id="paint2_linear_92_125" x1="16.1335" y1="17.1201" x2="16.1335" y2="18.2589" gradientUnits="userSpaceOnUse">
<stop stop-color="#EFCE83"/>
<stop offset="0.421875" stop-color="#B48811" stop-opacity="0.6375"/>
<stop offset="0.794792" stop-color="#A2790D" stop-opacity="0.57"/>
<stop offset="1" stop-color="#BB9B49" stop-opacity="0.26"/>
</linearGradient>
<linearGradient id="paint3_linear_92_125" x1="16.1296" y1="1.98633" x2="16.1296" y2="29.9467" gradientUnits="userSpaceOnUse">
<stop stop-color="#EFCE83"/>
<stop offset="0.421875" stop-color="#B48811" stop-opacity="0.6375"/>
<stop offset="0.794792" stop-color="#A2790D" stop-opacity="0.57"/>
<stop offset="1" stop-color="#BB9B49" stop-opacity="0.26"/>
</linearGradient>
</defs>
</svg>
