<svg width="32" height="32" viewBox="0 0 32 32" fill="none" xmlns="http://www.w3.org/2000/svg">
<path d="M16.0008 4.44531C13.7204 4.44697 11.5338 5.35339 9.92095 6.96561C8.30815 8.57782 7.40093 10.7641 7.39844 13.0445C7.39844 14.9928 8.9451 18.1394 11.869 22.1426C13.5443 24.4328 15.2353 26.403 16.0008 27.272C16.7663 26.403 18.4573 24.4328 20.1326 22.1394C23.0565 18.1394 24.6031 14.9928 24.6031 13.0414C24.5998 10.7615 23.6922 8.57604 22.0795 6.9645C20.4668 5.35296 18.2807 4.44697 16.0008 4.44531ZM20.7914 15.8492C19.8973 17.1983 18.3726 18.4343 16.2612 19.5198C16.1812 19.5629 16.0917 19.5855 16.0008 19.5855C15.9099 19.5855 15.8204 19.5629 15.7404 19.5198C13.629 18.4343 12.1043 17.1983 11.2102 15.8492C10.2157 14.3528 10.2377 13.0853 10.4322 12.2884C10.6026 11.5507 11.0128 10.8903 11.5987 10.4106C12.1845 9.93088 12.9129 9.65899 13.6698 9.63747C14.1111 9.64035 14.5468 9.73628 14.9484 9.919C15.3501 10.1017 15.7087 10.3671 16.0008 10.6979C16.2929 10.3671 16.6515 10.1017 17.0532 9.919C17.4548 9.73628 17.8905 9.64035 18.3318 9.63747C19.0887 9.65899 19.817 9.93088 20.4029 10.4106C20.9887 10.8903 21.399 11.5507 21.5694 12.2884C21.7639 13.0853 21.7859 14.3528 20.7914 15.8492Z" fill="#F5EFCC"/>
<path d="M18.3319 9.6377C17.8906 9.64057 17.4549 9.73651 17.0532 9.91923C16.6516 10.1019 16.293 10.3673 16.0009 10.6981C15.7088 10.3673 15.3502 10.1019 14.9485 9.91923C14.5468 9.73651 14.1112 9.64057 13.6699 9.6377C12.913 9.65921 12.1846 9.9311 11.5988 10.4108C11.0129 10.8905 10.6027 11.5509 10.4322 12.2887C10.2377 13.0855 10.2158 14.353 11.2103 15.8495C12.1044 17.1985 13.6291 18.4346 15.7405 19.52C15.8205 19.5632 15.91 19.5857 16.0009 19.5857C16.0918 19.5857 16.1812 19.5632 16.2613 19.52C18.3726 18.4346 19.8973 17.1985 20.7915 15.8495C21.786 14.353 21.764 13.0855 21.5695 12.2887C21.3991 11.5509 20.9888 10.8905 20.403 10.4108C19.8171 9.9311 19.0887 9.65921 18.3319 9.6377ZM11.5397 12.5491C11.6476 12.0582 11.9153 11.617 12.3007 11.2946C12.6862 10.9721 13.1677 10.7866 13.6699 10.7671C14.3883 10.7671 15.044 11.1781 15.5209 11.9248C15.5721 12.0058 15.6429 12.0725 15.7269 12.1187C15.8108 12.165 15.9051 12.1892 16.0009 12.1892C16.0967 12.1892 16.191 12.165 16.2749 12.1187C16.3588 12.0725 16.4297 12.0058 16.4809 11.9248C16.9577 11.1781 17.6134 10.7671 18.3319 10.7671C18.834 10.7866 19.3156 10.9721 19.701 11.2946C20.0865 11.617 20.3541 12.0582 20.4621 12.5491C20.9264 14.4659 19.2605 16.6275 16.0009 18.3718C12.7413 16.6275 11.0754 14.4659 11.5397 12.5491Z" fill="url(#paint0_linear_85_20)"/>
<path d="M16.0009 3.30347C13.4211 3.31093 10.9493 4.34013 9.12663 6.16579C7.30391 7.99144 6.2787 10.4649 6.27539 13.0446C6.27539 18.2713 15.2166 28.1035 15.5962 28.5113C15.6497 28.5695 15.7146 28.616 15.787 28.6477C15.8594 28.6795 15.9375 28.6959 16.0166 28.6959C16.0956 28.6959 16.1738 28.6795 16.2461 28.6477C16.3185 28.616 16.3835 28.5695 16.437 28.5113C16.8166 28.0941 25.7577 18.2713 25.7577 13.0446C25.7544 10.4594 24.7249 7.98128 22.8954 6.15472C21.0659 4.32817 18.5861 3.30263 16.0009 3.30347ZM24.6032 13.0446C24.6032 14.9929 23.0566 18.1395 20.1326 22.1427C18.4573 24.4329 16.7664 26.4031 16.0009 27.2721C15.2354 26.4031 13.5444 24.4329 11.8691 22.1395C8.94519 18.1395 7.39853 14.9929 7.39853 13.0415C7.39853 10.76 8.30484 8.57198 9.9181 6.95872C11.5314 5.34547 13.7194 4.43915 16.0009 4.43915C18.2824 4.43915 20.4704 5.34547 22.0837 6.95872C23.6969 8.57198 24.6032 10.76 24.6032 13.0415V13.0446Z" fill="url(#paint1_linear_85_20)"/>
<defs>
<linearGradient id="paint0_linear_85_20" x1="16.0009" y1="9.6377" x2="16.0009" y2="19.5857" gradientUnits="userSpaceOnUse">
<stop stop-color="#EFCE83"/>
<stop offset="0.421875" stop-color="#B48811" stop-opacity="0.6375"/>
<stop offset="0.794792" stop-color="#A2790D" stop-opacity="0.57"/>
<stop offset="1" stop-color="#BB9B49" stop-opacity="0.26"/>
</linearGradient>
<linearGradient id="paint1_linear_85_20" x1="16.0166" y1="3.30347" x2="16.0166" y2="28.6959" gradientUnits="userSpaceOnUse">
<stop stop-color="#EFCE83"/>
<stop offset="0.421875" stop-color="#B48811" stop-opacity="0.6375"/>
<stop offset="0.794792" stop-color="#A2790D" stop-opacity="0.57"/>
<stop offset="1" stop-color="#BB9B49" stop-opacity="0.26"/>
</linearGradient>
</defs>
</svg>
