<svg width="32" height="32" viewBox="0 0 32 32" fill="none" xmlns="http://www.w3.org/2000/svg">
<path d="M22.9372 5.97663C22.5106 4.29193 21.0549 3.07153 19.4862 3.07153C18.2815 3.07153 17.1866 3.77742 16.4086 5.06369C16.3578 5.14734 16.2864 5.21661 16.2013 5.26493C16.1162 5.31325 16.0202 5.33901 15.9223 5.33977C15.8243 5.33962 15.728 5.31411 15.6428 5.26573C15.5576 5.21736 15.4864 5.14775 15.436 5.06369C14.658 3.77742 13.5537 3.07153 12.3584 3.07153C10.7898 3.07153 9.33722 4.29193 8.90741 5.97663C8.59369 7.17193 8.22349 11.3727 15.9223 15.6739C23.6243 11.3696 23.2447 7.17193 22.9372 5.97663ZM12.5655 5.05742C12.2696 5.11759 11.9906 5.24172 11.7478 5.4211C11.505 5.60047 11.3044 5.83077 11.16 6.09585C10.9681 6.4658 10.862 6.8742 10.8495 7.29076C10.837 7.70731 10.9185 8.12133 11.0878 8.50212C11.1151 8.63404 11.0949 8.77136 11.0307 8.88981C10.9666 9.00826 10.8626 9.10021 10.7372 9.1494C10.6117 9.19859 10.473 9.20185 10.3454 9.15861C10.2178 9.11536 10.1096 9.0284 10.04 8.9131C9.80841 8.37596 9.70085 7.79356 9.72529 7.20915C9.74974 6.62474 9.90554 6.05334 10.1811 5.53742C10.4058 5.1247 10.7194 4.76706 11.0992 4.49035C11.479 4.21364 11.9155 4.02478 12.3772 3.93742C12.4508 3.92464 12.5261 3.92648 12.5989 3.94283C12.6718 3.95917 12.7406 3.9897 12.8017 4.03267C12.8627 4.07564 12.9147 4.13021 12.9546 4.19326C12.9946 4.25632 13.0217 4.32662 13.0345 4.40016C13.0472 4.4737 13.0454 4.54904 13.0291 4.62187C13.0127 4.6947 12.9822 4.76359 12.9392 4.82463C12.8963 4.88566 12.8417 4.93763 12.7786 4.97757C12.7156 5.01751 12.6453 5.04464 12.5717 5.05742H12.5655Z" fill="#F5EFCC"/>
<path d="M12.3706 3.93734C11.9089 4.0247 11.4724 4.21356 11.0926 4.49027C10.7128 4.76698 10.3992 5.12462 10.1745 5.53734C9.89993 6.05374 9.74521 6.62538 9.72186 7.20979C9.6985 7.79419 9.80711 8.37635 10.0396 8.91302C10.0997 9.04597 10.2085 9.15086 10.3435 9.20615C10.4785 9.26145 10.6296 9.26295 10.7657 9.21036C10.9018 9.15777 11.0126 9.05507 11.0754 8.92334C11.1381 8.79162 11.1481 8.64087 11.1032 8.50204C10.9338 8.12125 10.8524 7.70723 10.8649 7.29068C10.8774 6.87413 10.9835 6.46573 11.1753 6.09577C11.3197 5.83069 11.5204 5.6004 11.7631 5.42102C12.0059 5.24164 12.285 5.11751 12.5808 5.05734C12.6543 5.04457 12.7246 5.01743 12.7877 4.97749C12.8508 4.93755 12.9053 4.88558 12.9483 4.82455C12.9913 4.76352 13.0218 4.69462 13.0381 4.62179C13.0545 4.54896 13.0563 4.47362 13.0435 4.40008C13.0308 4.32654 13.0036 4.25624 12.9637 4.19318C12.9238 4.13013 12.8718 4.07556 12.8108 4.03259C12.7497 3.98962 12.6808 3.95909 12.608 3.94275C12.5352 3.9264 12.4598 3.92457 12.3863 3.93734H12.3706Z" fill="url(#paint0_linear_85_25)"/>
<path d="M4.43023 10.2839C4.11853 10.3419 3.82366 10.4686 3.567 10.6547C3.31033 10.8408 3.09831 11.0817 2.9463 11.36C2.76294 11.6991 2.65866 12.0754 2.64127 12.4606C2.62389 12.8458 2.69385 13.2299 2.84591 13.5843C2.88751 13.6912 2.96033 13.7831 3.0549 13.848C3.14948 13.9129 3.2614 13.9478 3.37611 13.9482C3.44683 13.9482 3.51696 13.9354 3.58317 13.9105C3.72231 13.8541 3.83344 13.7449 3.89223 13.6067C3.95103 13.4685 3.9527 13.3127 3.89689 13.1733C3.80882 12.9749 3.76595 12.7593 3.77137 12.5423C3.7768 12.3253 3.83039 12.1122 3.92827 11.9184C3.99868 11.7883 4.09664 11.6751 4.21531 11.5868C4.33397 11.4985 4.47049 11.4371 4.61532 11.407C4.69275 11.3984 4.76759 11.374 4.83525 11.3354C4.9029 11.2968 4.96194 11.2448 5.00873 11.1825C5.05552 11.1202 5.08907 11.049 5.10731 10.9733C5.12556 10.8975 5.12811 10.8189 5.11482 10.7421C5.10153 10.6653 5.07267 10.5921 5.03002 10.5269C4.98737 10.4617 4.93183 10.406 4.86682 10.363C4.80181 10.3201 4.7287 10.291 4.652 10.2773C4.5753 10.2637 4.49662 10.266 4.42081 10.2839H4.43023Z" fill="url(#paint1_linear_85_25)"/>
<path d="M29.0535 11.36C28.9015 11.0817 28.6895 10.8408 28.4328 10.6547C28.1761 10.4686 27.8813 10.3419 27.5696 10.2839C27.4938 10.266 27.4151 10.2637 27.3384 10.2773C27.2617 10.291 27.1886 10.3201 27.1236 10.363C27.0586 10.406 27.003 10.4617 26.9604 10.5269C26.9177 10.5921 26.8889 10.6653 26.8756 10.7421C26.8623 10.8189 26.8648 10.8975 26.8831 10.9733C26.9013 11.049 26.9349 11.1202 26.9816 11.1825C27.0284 11.2448 27.0875 11.2968 27.1551 11.3354C27.2228 11.374 27.2976 11.3984 27.3751 11.407C27.5202 11.4375 27.6569 11.4993 27.7756 11.5882C27.8942 11.6771 27.9921 11.7908 28.0621 11.9215C28.1604 12.1153 28.2139 12.3286 28.2188 12.5458C28.2237 12.7629 28.1798 12.9785 28.0904 13.1764C28.0354 13.3159 28.0375 13.4714 28.0962 13.6093C28.1549 13.7473 28.2655 13.8566 28.4041 13.9137C28.4703 13.9385 28.5404 13.9513 28.6111 13.9513C28.7258 13.9509 28.8378 13.916 28.9323 13.8511C29.0269 13.7862 29.0997 13.6943 29.1413 13.5874C29.2958 13.2336 29.3681 12.8494 29.3529 12.4636C29.3377 12.0778 29.2353 11.7005 29.0535 11.36Z" fill="url(#paint2_linear_85_25)"/>
<path d="M31.3727 11.6675C31.2642 10.844 30.9049 10.0738 30.3437 9.46151C29.7824 8.84919 29.0464 8.42439 28.2354 8.24477C27.5885 8.12273 26.9205 8.18112 26.3046 8.41354C25.6887 8.64596 25.1486 9.04344 24.7436 9.56242C24.5169 9.29103 24.2565 9.04961 23.9687 8.84399C24.2693 7.82294 24.2942 6.74053 24.0409 5.70674C23.4762 3.49183 21.6033 1.94203 19.4856 1.94203C18.7914 1.95112 18.1086 2.12032 17.4904 2.43647C16.8723 2.75263 16.3354 3.20719 15.9217 3.76477C15.5089 3.20546 14.9725 2.74908 14.3543 2.43127C13.7361 2.11346 13.0528 1.9428 12.3578 1.93262C10.2401 1.93262 8.36717 3.47928 7.80247 5.69732C7.54107 6.76772 7.57577 7.88906 7.90286 8.94125C7.66542 9.12646 7.44874 9.33684 7.25658 9.5687C6.85232 9.04858 6.3126 8.64988 5.69664 8.41633C5.08068 8.18279 4.4123 8.12343 3.76482 8.24477C2.95674 8.42722 2.22412 8.85326 1.66588 9.46535C1.10765 10.0774 0.750707 10.8461 0.643252 11.6675C0.439331 13.0134 0.608743 16.4299 6.32482 19.7836L5.36168 20.7467C5.25497 20.8538 5.19505 20.9987 5.19505 21.1499C5.19505 21.301 5.25497 21.446 5.36168 21.553C5.46871 21.6597 5.61368 21.7196 5.76482 21.7196C5.91596 21.7196 6.06093 21.6597 6.16796 21.553L6.66678 21.051C6.69502 23.2785 7.03698 27.7961 9.28011 29.9138C9.38995 30.0174 9.53643 30.0731 9.68734 30.0687C9.83825 30.0643 9.98123 30.0001 10.0848 29.8903C10.1884 29.7804 10.2441 29.634 10.2397 29.483C10.2353 29.3321 10.1711 29.1891 10.0613 29.0856C8.13502 27.266 7.84325 23.0746 7.80874 21.0197L8.34521 21.553C8.45397 21.6504 8.59591 21.7025 8.74187 21.6985C8.88784 21.6945 9.02672 21.6347 9.12997 21.5315C9.23321 21.4282 9.29298 21.2894 9.29699 21.1434C9.30099 20.9974 9.24892 20.8555 9.15149 20.7467L8.18835 19.7836C10.5005 18.422 12.1789 16.8754 13.1013 15.2534C13.6848 15.6717 14.3123 16.0701 14.9836 16.4487L14.0425 17.3899C13.9355 17.498 13.876 17.6442 13.8769 17.7963C13.8777 17.9484 13.939 18.0939 14.0472 18.2009C14.1553 18.3078 14.3015 18.3673 14.4536 18.3665C14.6057 18.3656 14.7512 18.3043 14.8582 18.1961L15.3727 17.666V29.4903C15.3833 29.634 15.448 29.7683 15.5536 29.8664C15.6592 29.9645 15.798 30.019 15.9421 30.019C16.0862 30.019 16.225 29.9645 16.3306 29.8664C16.4362 29.7683 16.5008 29.634 16.5115 29.4903V17.666L17.0354 18.1961C17.1433 18.3025 17.2886 18.3622 17.4401 18.3624C17.5524 18.3616 17.662 18.3276 17.7551 18.2648C17.8482 18.202 17.9207 18.1132 17.9636 18.0094C18.0064 17.9056 18.0177 17.7914 17.996 17.6812C17.9744 17.5711 17.9207 17.4697 17.8417 17.3899L16.9005 16.4487C17.6033 16.0409 18.2579 15.6226 18.8644 15.1938C19.7648 16.8252 21.4621 18.4001 23.8119 19.7836L22.8487 20.7467C22.7513 20.8555 22.6992 20.9974 22.7032 21.1434C22.7072 21.2894 22.767 21.4282 22.8703 21.5315C22.9735 21.6347 23.1124 21.6945 23.2584 21.6985C23.4043 21.7025 23.5463 21.6504 23.655 21.553L24.1915 21.0197C24.1633 23.0777 23.8778 27.2691 21.9389 29.0887C21.8291 29.1923 21.7649 29.3353 21.7605 29.4862C21.7561 29.6371 21.8118 29.7836 21.9154 29.8934C22.019 30.0032 22.162 30.0674 22.3129 30.0718C22.4638 30.0762 22.6103 30.0205 22.7201 29.9169C24.9632 27.7993 25.3052 23.2816 25.3334 21.0542L25.8323 21.5561C25.9393 21.6629 26.0843 21.7228 26.2354 21.7228C26.3865 21.7228 26.5315 21.6629 26.6385 21.5561C26.7453 21.4491 26.8052 21.3041 26.8052 21.153C26.8052 21.0019 26.7453 20.8569 26.6385 20.7499L25.6754 19.7867C31.3915 16.4299 31.5609 13.0134 31.3727 11.6675ZM8.90678 5.97654C9.33659 4.29183 10.7891 3.07144 12.3578 3.07144C13.5625 3.07144 14.6574 3.77732 15.4354 5.0636C15.4858 5.14766 15.557 5.21726 15.6422 5.26564C15.7274 5.31402 15.8237 5.33952 15.9217 5.33968C16.0195 5.33892 16.1156 5.31316 16.2007 5.26484C16.2858 5.21652 16.3572 5.14725 16.408 5.0636C17.186 3.77732 18.2903 3.07144 19.4856 3.07144C21.0542 3.07144 22.5099 4.29183 22.9366 5.97654C23.2503 7.17183 23.6236 11.3695 15.9217 15.6738C8.22286 11.3726 8.60247 7.17183 8.90678 5.97654ZM7.25658 19.0056C5.16404 17.8291 3.63306 16.5397 2.70129 15.1718C1.93266 14.0424 1.60953 12.8879 1.76011 11.8369C1.83267 11.2472 2.08414 10.6938 2.48069 10.2512C2.87724 9.80867 3.39984 9.49821 3.97815 9.36164C5.0511 9.1483 6.06443 9.67536 6.7609 10.8299C6.81053 10.9146 6.88162 10.9847 6.96699 11.0332C7.05236 11.0816 7.149 11.1067 7.24717 11.106C7.34516 11.1058 7.44144 11.0803 7.52665 11.0319C7.61186 10.9835 7.6831 10.9139 7.73345 10.8299C7.89988 10.5531 8.10011 10.298 8.32953 10.0707C8.48815 10.406 8.66623 10.7318 8.86286 11.0463C9.75533 12.4042 10.8762 13.5973 12.1758 14.5726C11.3319 16.1381 9.64717 17.6597 7.25658 19.0056ZM24.7436 19.0056C22.3091 17.6346 20.6056 16.0816 19.7648 14.4848C21.0174 13.5239 22.0974 12.3569 22.9585 11.0338C23.1762 10.6871 23.3711 10.3266 23.5421 9.95458C23.8171 10.2064 24.0538 10.497 24.2448 10.8173C24.2952 10.9014 24.3664 10.971 24.4516 11.0194C24.5368 11.0677 24.6331 11.0933 24.7311 11.0934C24.8293 11.0942 24.9259 11.0691 25.0113 11.0206C25.0966 10.9721 25.1677 10.902 25.2174 10.8173C25.9138 9.66909 26.9272 9.13575 28.0001 9.34909C28.5784 9.48567 29.101 9.79612 29.4976 10.2387C29.8941 10.6812 30.1456 11.2346 30.2182 11.8244C30.3782 12.8754 30.055 14.0205 29.277 15.1593C28.3672 16.5397 26.8362 17.8291 24.7436 19.0056Z" fill="url(#paint3_linear_85_25)"/>
<defs>
<linearGradient id="paint0_linear_85_25" x1="11.3853" y1="3.92896" x2="11.3853" y2="9.24874" gradientUnits="userSpaceOnUse">
<stop stop-color="#EFCE83"/>
<stop offset="0.421875" stop-color="#B48811" stop-opacity="0.6375"/>
<stop offset="0.794792" stop-color="#A2790D" stop-opacity="0.57"/>
<stop offset="1" stop-color="#BB9B49" stop-opacity="0.26"/>
</linearGradient>
<linearGradient id="paint1_linear_85_25" x1="3.88093" y1="10.2686" x2="3.88093" y2="13.9482" gradientUnits="userSpaceOnUse">
<stop stop-color="#EFCE83"/>
<stop offset="0.421875" stop-color="#B48811" stop-opacity="0.6375"/>
<stop offset="0.794792" stop-color="#A2790D" stop-opacity="0.57"/>
<stop offset="1" stop-color="#BB9B49" stop-opacity="0.26"/>
</linearGradient>
<linearGradient id="paint2_linear_85_25" x1="28.1111" y1="10.2686" x2="28.1111" y2="13.9513" gradientUnits="userSpaceOnUse">
<stop stop-color="#EFCE83"/>
<stop offset="0.421875" stop-color="#B48811" stop-opacity="0.6375"/>
<stop offset="0.794792" stop-color="#A2790D" stop-opacity="0.57"/>
<stop offset="1" stop-color="#BB9B49" stop-opacity="0.26"/>
</linearGradient>
<linearGradient id="paint3_linear_85_25" x1="16.0052" y1="1.93262" x2="16.0052" y2="30.0721" gradientUnits="userSpaceOnUse">
<stop stop-color="#EFCE83"/>
<stop offset="0.421875" stop-color="#B48811" stop-opacity="0.6375"/>
<stop offset="0.794792" stop-color="#A2790D" stop-opacity="0.57"/>
<stop offset="1" stop-color="#BB9B49" stop-opacity="0.26"/>
</linearGradient>
</defs>
</svg>
