<svg width="32" height="32" viewBox="0 0 32 32" fill="none" xmlns="http://www.w3.org/2000/svg">
<path d="M16.9055 22.294L17.7799 28.0393H18.824L20.4554 19.4932C20.2955 19.4808 20.1363 19.469 19.9738 19.469H19.4517C18.3897 20.0097 17.2151 20.2916 16.0236 20.2916C14.8321 20.2916 13.6575 20.0097 12.5954 19.469H12.0734C11.9096 19.469 11.751 19.4808 11.5918 19.4932L13.2121 28.0393H14.2562L15.1299 22.2933H15.1606L14.3031 20.7155H17.7329L16.8748 22.2933L16.9055 22.294Z" fill="white"/>
<path d="M20.4554 19.4932L18.8241 28.0393H13.2121L11.5847 19.4932C9.97069 19.6135 8.46178 20.3402 7.3605 21.5276C6.25921 22.715 5.64695 24.2754 5.64648 25.8958V29.0147H26.3897V25.8958C26.3893 24.276 25.7776 22.7162 24.6771 21.5289C23.5767 20.3416 22.0687 19.6144 20.4554 19.4932Z" fill="url(#paint0_linear_85_32)"/>
<path d="M14.2559 28.0398H17.7796L16.9052 22.2938H16.8745L17.7326 20.7161H14.3028L15.1603 22.2938H15.1296L14.2559 28.0398Z" fill="#F5EFCC"/>
<path d="M7.01953 12.7789V13.3394C7.01953 14.2972 7.82804 15.0753 8.82187 15.0753H8.92824C9.46985 16.9784 10.8161 18.5627 12.591 19.4696C13.653 20.0103 14.8277 20.2921 16.0192 20.2921C17.2106 20.2921 18.3853 20.0103 19.4473 19.4696C21.2216 18.5627 22.5672 16.9784 23.1094 15.0753H23.2151C24.209 15.0753 25.0181 14.2972 25.0181 13.3394V12.7795C25.0181 11.9504 24.4093 11.2586 23.6001 11.0874C23.6303 10.8354 23.6462 10.582 23.6478 10.3282L23.6445 10.2557C23.6472 10.0626 23.6374 9.86941 23.6152 9.67752C23.4544 8.01083 22.6898 6.46072 21.4657 5.3197C20.2417 4.17869 18.6428 3.52571 16.9709 3.484L16.8874 3.41867C16.8623 3.38956 16.8313 3.36625 16.7963 3.35034C16.7614 3.33444 16.7235 3.32632 16.6851 3.32655C16.5605 3.32655 16.4737 3.40887 16.4025 3.47681H16.3797C15.9797 3.07502 15.6782 2.82349 15.4204 2.82349C15.1738 2.84243 14.0194 3.25272 13.6514 3.52973C13.5692 3.5918 13.4778 3.6702 13.3806 3.75774C11.9646 4.17656 10.722 5.04267 9.83814 6.22676C8.95431 7.41084 8.47672 8.84938 8.47667 10.3276C8.47667 10.3753 8.47994 10.4217 8.48059 10.4687C8.47668 10.675 8.48431 10.8813 8.50343 11.0867C7.66621 11.2331 7.01953 11.9282 7.01953 12.7789ZM23.409 12.0981C23.5629 12.1343 23.7004 12.2209 23.7997 12.344C23.8991 12.4672 23.9547 12.6199 23.9577 12.7782V13.3394C23.9543 13.514 23.8879 13.6815 23.7709 13.8111C23.6539 13.9406 23.4941 14.0234 23.3209 14.0443C23.3567 13.7668 23.3754 13.4873 23.377 13.2074C23.3746 12.9369 23.355 12.6667 23.3182 12.3986C23.3496 12.2993 23.3815 12.2 23.409 12.0981ZM9.79809 12.3013C9.81962 12.1634 9.84964 12.0295 9.88161 11.8949C10.7449 11.2808 11.851 10.3237 12.2745 9.57038C12.2745 9.57038 19.2666 11.2109 21.8135 11.3997C21.8866 11.4056 21.9557 11.4082 22.0223 11.4088C22.1177 11.7007 22.1904 11.9995 22.2396 12.3026C22.3274 12.8163 22.3408 13.34 22.2794 13.8575C22.2391 14.2188 22.1644 14.5754 22.0562 14.9224C21.2856 17.4325 18.8731 19.2716 16.0188 19.2716C13.1646 19.2716 10.7515 17.4331 9.98145 14.9231C9.87306 14.5761 9.79832 14.2195 9.75828 13.8582C9.69594 13.3404 9.70935 12.8164 9.79809 12.3026V12.3013ZM8.07927 12.7782C8.08285 12.607 8.14741 12.4426 8.26131 12.3148C8.37521 12.187 8.53096 12.1041 8.7005 12.0811C8.7005 12.2177 8.70768 12.3516 8.71029 12.4875C8.67867 12.7258 8.66189 12.9658 8.66004 13.2061C8.66125 13.486 8.67999 13.7655 8.71616 14.043C8.54318 14.0222 8.38353 13.9395 8.26654 13.8102C8.14954 13.681 8.08305 13.5138 8.07927 13.3394V12.7782Z" fill="url(#paint1_linear_85_32)"/>
<defs>
<linearGradient id="paint0_linear_85_32" x1="16.0181" y1="19.4932" x2="16.0181" y2="29.0147" gradientUnits="userSpaceOnUse">
<stop stop-color="#EFCE83"/>
<stop offset="0.421875" stop-color="#B48811" stop-opacity="0.6375"/>
<stop offset="0.794792" stop-color="#A2790D" stop-opacity="0.57"/>
<stop offset="1" stop-color="#BB9B49" stop-opacity="0.26"/>
</linearGradient>
<linearGradient id="paint1_linear_85_32" x1="16.0188" y1="2.82349" x2="16.0188" y2="20.2921" gradientUnits="userSpaceOnUse">
<stop stop-color="#EFCE83"/>
<stop offset="0.421875" stop-color="#B48811" stop-opacity="0.6375"/>
<stop offset="0.794792" stop-color="#A2790D" stop-opacity="0.57"/>
<stop offset="1" stop-color="#BB9B49" stop-opacity="0.26"/>
</linearGradient>
</defs>
</svg>
