<svg width="140" height="61" viewBox="0 0 140 61" fill="none" xmlns="http://www.w3.org/2000/svg">
<g clip-path="url(#clip0_93_976)">
<path opacity="0.9" fill-rule="evenodd" clip-rule="evenodd" d="M23.5036 5.30973C24.9385 5.12557 26.2506 5.37254 27.4399 6.05062C27.7238 5.4688 28.0517 5.42763 28.424 5.92714C27.9912 6.17608 27.7041 6.54653 27.5629 7.03848C27.5745 9.26071 27.5745 11.4834 27.5629 13.7065C27.0091 14.1701 26.3941 14.5406 25.7178 14.8178C25.9234 15.1249 25.8415 15.413 25.4717 15.6822C25.2956 15.4819 25.0905 15.3173 24.8567 15.1883C24.5709 15.3579 24.2839 15.399 23.9956 15.3118C23.082 14.7277 22.5899 13.9045 22.5195 12.8421C22.5805 10.7367 22.6215 8.5552 22.6425 6.29759C23.0428 6.04265 23.3298 5.71337 23.5036 5.30973Z" fill="#6C5E57"/>
<path opacity="0.314" fill-rule="evenodd" clip-rule="evenodd" d="M28.1777 7.03857C28.5057 7.20322 28.5057 7.20322 28.1777 7.03857Z" fill="#6C5E57"/>
<path opacity="0.883" fill-rule="evenodd" clip-rule="evenodd" d="M13.6615 9.26123C13.7338 9.69971 13.7748 10.1936 13.7845 10.743C14.6795 11.5399 15.5405 12.3631 16.3677 13.2126C16.1999 13.9203 15.8718 14.5377 15.3836 15.0649C15.4962 15.1671 15.5782 15.2906 15.6297 15.4353C15.0794 15.5914 14.6693 15.9207 14.3996 16.4232C13.7592 16.6854 13.1032 16.7265 12.4314 16.5467C11.7787 15.6938 11.0406 14.9117 10.2173 14.2005C9.77378 13.7795 9.60976 13.3267 9.72524 12.8422C10.8552 11.2452 12.1673 10.0515 13.6615 9.26123Z" fill="#6C5E57"/>
<path opacity="0.157" fill-rule="evenodd" clip-rule="evenodd" d="M14.1532 9.75513C14.4054 9.85307 14.4464 10.0177 14.2762 10.2491C14.162 10.1023 14.121 9.93761 14.1532 9.75513Z" fill="#6C5E57"/>
<path opacity="0.888" fill-rule="evenodd" clip-rule="evenodd" d="M39.247 10.002C39.8269 9.9617 40.4009 10.0029 40.9692 10.1255C41.7072 10.8664 42.4453 11.6073 43.1833 12.3482C42.9774 12.5979 42.8955 12.886 42.9373 13.2126C43.3317 13.1661 43.6599 13.2896 43.9214 13.583C43.4293 13.6653 42.9373 13.7477 42.4453 13.83C41.5431 14.9001 40.6412 15.9703 39.7391 17.0405C39.0512 17.0166 38.3951 16.8108 37.7709 16.4231C37.4669 16.6073 37.1387 16.6896 36.7869 16.67C36.7608 16.0258 36.4739 15.5319 35.9258 15.1883C35.7617 14.612 35.7617 14.0358 35.9258 13.4595C37.059 12.3625 38.166 11.21 39.247 10.002Z" fill="#6C5E57"/>
<path opacity="0.188" fill-rule="evenodd" clip-rule="evenodd" d="M42.9384 14.2004C43.1905 14.2984 43.2316 14.463 43.0614 14.6944C42.9472 14.5476 42.9061 14.3829 42.9384 14.2004Z" fill="#6C5E57"/>
<path opacity="0.919" fill-rule="evenodd" clip-rule="evenodd" d="M23.7485 18.6457C27.6056 18.3872 31.2959 19.0458 34.8193 20.6214C36.167 21.8569 37.0692 23.3798 37.5255 25.1902C37.1816 25.5975 37.2638 25.9267 37.7715 26.1781C34.7453 26.0667 31.9572 25.3258 29.4069 23.9554C26.8415 23.3814 24.2992 23.4637 21.7804 24.2024C19.5956 25.3103 17.3814 26.0924 15.1379 26.5485C14.7034 26.4026 14.2934 26.1969 13.9078 25.9311C13.6063 25.3071 13.1963 24.7719 12.6777 24.3259C13.3031 23.6563 13.9592 23.0389 14.6459 22.4736C14.0247 22.2524 13.4916 22.3759 13.0468 22.8441C12.928 22.61 12.887 22.363 12.9238 22.1032C14.9962 21.7584 16.9643 21.0586 18.8282 20.004C20.4785 19.4671 22.1186 19.0143 23.7485 18.6457ZM36.2954 25.3137C36.0502 25.6133 35.8041 25.572 35.5574 25.1902C35.8223 25.0742 36.0684 25.1154 36.2954 25.3137Z" fill="#6C5E57"/>
<path opacity="0.293" fill-rule="evenodd" clip-rule="evenodd" d="M16.3691 19.8806C16.6823 20.0231 16.6823 20.1877 16.3691 20.3745C16.1322 20.2585 16.1322 20.0939 16.3691 19.8806Z" fill="#6C5E57"/>
<path opacity="0.87" fill-rule="evenodd" clip-rule="evenodd" d="M131.012 24.079C131.781 23.8371 132.601 23.7548 133.472 23.832C133.384 24.9401 133.835 25.3518 134.825 25.0668C135.073 24.6902 135.196 24.2786 135.194 23.832C135.932 23.832 136.67 23.832 137.408 23.832C137.44 25.8996 136.415 26.9699 134.333 27.0425C132.399 26.9519 131.292 25.964 131.012 24.079Z" fill="#6C5E57"/>
<path opacity="0.313" fill-rule="evenodd" clip-rule="evenodd" d="M38.0176 24.5728C38.3172 24.8768 38.6452 25.165 39.0016 25.4371C38.3527 25.5628 38.0245 25.2746 38.0176 24.5728Z" fill="#6C5E57"/>
<path opacity="0.922" fill-rule="evenodd" clip-rule="evenodd" d="M18.5827 27.2894C25.6555 26.9101 32.544 27.8567 39.2482 30.1295C41.0478 30.9506 42.688 32.0207 44.1686 33.34C44.494 33.9977 45.068 34.5738 45.8907 35.0688C45.7266 35.151 45.5627 35.2335 45.3987 35.3157C45.7266 35.4804 46.0548 35.6449 46.3827 35.8096C46.5013 36.0586 46.5421 36.3468 46.5057 36.674C46.8145 36.8496 47.1013 37.0553 47.3668 37.2914C45.1214 37.1373 42.9072 36.7256 40.7243 36.0566C33.0011 32.8439 24.9644 31.6913 16.6146 32.5991C15.1385 32.9283 13.6624 33.2578 12.1863 33.587C9.50489 34.5279 6.9217 35.4745 4.4367 36.4271C3.85413 36.1265 3.23909 35.9205 2.59157 35.8096C2.53466 35.0102 2.28864 34.3928 1.85352 33.9574C3.00483 33.3432 4.0709 32.5611 5.05175 31.6113C4.47474 31.5693 3.90068 31.6515 3.32962 31.8582C3.17566 32.0434 3.05266 32.2494 2.9606 32.4756C2.76806 31.9983 2.89107 31.6278 3.32962 31.3643C6.11066 30.2903 8.89885 29.3846 11.6942 28.6477C13.9893 28.0041 16.2855 27.5512 18.5827 27.2894ZM43.6765 35.4392C43.8652 35.6052 44.0293 35.8109 44.1686 36.0566C43.6057 36.0435 43.0317 35.9613 42.4464 35.8096C42.9094 35.7607 43.3193 35.6373 43.6765 35.4392Z" fill="#6C5E57"/>
<path opacity="0.916" fill-rule="evenodd" clip-rule="evenodd" d="M59.4205 27.7833C60.3424 27.7567 61.2445 27.8801 62.1267 28.1538C62.7418 28.442 63.1927 28.8947 63.4798 29.5121C63.8307 32.0444 63.9537 34.5966 63.8489 37.168C63.0289 37.168 62.2087 37.168 61.3887 37.168C61.4426 36.8778 61.3606 36.6308 61.1427 36.4271C60.1013 37.1339 58.9531 37.3396 57.6984 37.0445C57.0834 36.7563 56.6324 36.3036 56.3453 35.6862C55.7797 33.8991 56.3128 32.6231 57.9444 31.8582C58.93 31.5698 59.9141 31.2816 60.8967 30.9939C60.6723 30.4399 60.2624 30.193 59.6666 30.253C58.9352 30.3932 58.2379 30.6402 57.5754 30.9939C57.0866 30.5088 56.7175 29.9327 56.4683 29.2651C56.5857 29.0236 56.7495 28.8179 56.9604 28.6477C57.7845 28.2807 58.6048 27.9925 59.4205 27.7833ZM59.9126 33.2165C60.2405 33.2165 60.5687 33.2165 60.8967 33.2165C61.1235 34.1943 60.7545 34.7704 59.7896 34.9453C59.3905 34.8332 59.1037 34.5862 58.9285 34.2044C59.1866 33.7806 59.5145 33.4514 59.9126 33.2165Z" fill="#6C5E57"/>
<path opacity="0.915" fill-rule="evenodd" clip-rule="evenodd" d="M85.4987 27.7833C86.4205 27.7567 87.3226 27.8801 88.2049 28.1538C88.8199 28.442 89.2709 28.8947 89.558 29.5121C89.9088 32.0444 90.0318 34.5966 89.927 37.168C89.107 37.168 88.2868 37.168 87.4668 37.168C87.5207 36.8778 87.4388 36.6308 87.2208 36.4271C86.1794 37.1339 85.0312 37.3396 83.7765 37.0445C83.1615 36.7563 82.7106 36.3036 82.4234 35.6862C81.8579 33.8991 82.391 32.6231 84.0226 31.8582C85.0081 31.5698 85.9922 31.2816 86.9748 30.9939C86.7504 30.4399 86.3405 30.193 85.7447 30.253C85.0133 30.3932 84.3161 30.6402 83.6535 30.9939C83.1647 30.5088 82.7957 29.9327 82.5465 29.2651C82.6638 29.0236 82.8277 28.8179 83.0385 28.6477C83.8627 28.2807 84.6829 27.9925 85.4987 27.7833ZM85.9907 33.2165C86.3186 33.2165 86.6468 33.2165 86.9748 33.2165C87.2016 34.1943 86.8326 34.7704 85.8677 34.9453C85.4687 34.8332 85.1818 34.5862 85.0066 34.2044C85.2647 33.7806 85.5926 33.4514 85.9907 33.2165Z" fill="#6C5E57"/>
<path opacity="0.926" fill-rule="evenodd" clip-rule="evenodd" d="M96.3248 27.7834C99.0977 27.9756 100.492 29.4986 100.507 32.3523C100.506 34.0057 99.9317 35.4052 98.785 36.5507C97.5264 37.3046 96.2552 37.3459 94.9717 36.6741C94.8489 37.8238 94.8079 38.9761 94.8487 40.1316C93.8646 40.1316 92.8806 40.1316 91.8965 40.1316C91.8965 36.098 91.8965 32.0641 91.8965 28.0304C92.7165 28.0304 93.5367 28.0304 94.3567 28.0304C94.32 28.2902 94.3608 28.5372 94.4797 28.7713C95.0344 28.2776 95.6495 27.9484 96.3248 27.7834ZM95.8328 30.2531C97.0269 30.4265 97.519 31.1261 97.3089 32.3523C97.5148 34.1645 96.7767 34.8644 95.0947 34.4515C94.8088 33.3078 94.768 32.1552 94.9717 30.994C95.2534 30.7134 95.5405 30.4665 95.8328 30.2531Z" fill="#6C5E57"/>
<path opacity="0.905" fill-rule="evenodd" clip-rule="evenodd" d="M105.181 27.7834C106.576 27.6592 107.806 28.0296 108.872 28.8947C108.462 29.4709 108.052 30.0473 107.642 30.6235C105.314 29.828 104.289 30.6924 104.566 33.2166C105.219 34.8762 106.244 35.2056 107.642 34.2045C108.192 34.7179 108.602 35.3353 108.872 36.0567C108.513 36.5805 108.021 36.9097 107.396 37.0445C103.021 37.5928 101.094 35.6581 101.614 31.2409C102.137 29.3576 103.326 28.205 105.181 27.7834Z" fill="#6C5E57"/>
<path opacity="0.897" fill-rule="evenodd" clip-rule="evenodd" d="M116.498 27.7833C116.997 27.7433 117.489 27.7846 117.974 27.9068C118.103 28.0454 118.184 28.2101 118.22 28.4007C118.069 29.1056 117.905 29.8052 117.728 30.4999C116.775 30.6763 116.201 31.2527 116.006 32.2287C116.929 33.8344 117.913 35.3985 118.958 36.921C117.902 37.2077 116.835 37.249 115.76 37.0445C115.114 36.0359 114.499 35.007 113.915 33.9574C113.666 33.7507 113.379 33.6685 113.054 33.7105C113.054 34.863 113.054 36.0154 113.054 37.1679C112.07 37.1679 111.086 37.1679 110.102 37.1679C110.102 34.1221 110.102 31.0761 110.102 28.0303C111.086 28.0303 112.07 28.0303 113.054 28.0303C113.054 29.1004 113.054 30.1707 113.054 31.2408C113.343 31.2949 113.589 31.2127 113.792 30.9939C114.161 30.253 114.53 29.5121 114.899 28.7712C115.394 28.3395 115.927 28.01 116.498 27.7833Z" fill="#6C5E57"/>
<path opacity="0.921" fill-rule="evenodd" clip-rule="evenodd" d="M65.3262 28.0303C66.3102 28.0303 67.2943 28.0303 68.2784 28.0303C68.2784 29.1004 68.2784 30.1707 68.2784 31.2408C69.0984 31.2408 69.9186 31.2408 70.7386 31.2408C70.7386 30.1707 70.7386 29.1004 70.7386 28.0303C71.7226 28.0303 72.7067 28.0303 73.6908 28.0303C73.6908 31.0761 73.6908 34.1221 73.6908 37.1679C72.7067 37.1679 71.7226 37.1679 70.7386 37.1679C70.7386 36.0153 70.7386 34.863 70.7386 33.7104C69.9186 33.7104 69.0984 33.7104 68.2784 33.7104C68.2784 34.863 68.2784 36.0153 68.2784 37.1679C67.2943 37.1679 66.3102 37.1679 65.3262 37.1679C65.3262 34.1221 65.3262 31.0761 65.3262 28.0303Z" fill="#6C5E57"/>
<path opacity="0.907" fill-rule="evenodd" clip-rule="evenodd" d="M75.4121 28.0303C77.4622 28.0303 79.5125 28.0303 81.5626 28.0303C81.5626 28.8534 81.5626 29.6768 81.5626 30.4999C80.4966 30.4999 79.4303 30.4999 78.3643 30.4999C78.3643 32.7226 78.3643 34.9453 78.3643 37.1679C77.3803 37.1679 76.3962 37.1679 75.4121 37.1679C75.4121 34.1221 75.4121 31.0761 75.4121 28.0303Z" fill="#6C5E57"/>
<path opacity="0.904" fill-rule="evenodd" clip-rule="evenodd" d="M119.695 28.0304C120.679 28.0304 121.663 28.0304 122.648 28.0304C122.607 29.5144 122.648 30.9961 122.771 32.4757C123.539 30.9737 124.4 29.5331 125.354 28.1538C126.252 28.0306 127.154 27.9896 128.06 28.0304C128.06 31.0762 128.06 34.1222 128.06 37.168C127.158 37.168 126.256 37.168 125.354 37.168C125.395 35.6018 125.354 34.0378 125.231 32.4757C124.385 34.0642 123.442 35.5872 122.402 37.0445C121.503 37.1678 120.601 37.2088 119.695 37.168C119.695 34.1222 119.695 31.0762 119.695 28.0304Z" fill="#6C5E57"/>
<path opacity="0.894" fill-rule="evenodd" clip-rule="evenodd" d="M130.027 28.0304C131.011 28.0304 131.995 28.0304 132.98 28.0304C132.976 29.6057 132.935 31.1698 132.857 32.7227C133.769 31.1789 134.712 29.6561 135.686 28.1538C136.584 28.0306 137.486 27.9896 138.392 28.0304C138.392 31.0762 138.392 34.1222 138.392 37.168C137.408 37.168 136.424 37.168 135.44 37.168C135.441 35.5104 135.482 33.8639 135.563 32.2287C134.713 33.895 133.77 35.5003 132.734 37.0445C131.835 37.1678 130.933 37.2088 130.027 37.168C130.027 34.1222 130.027 31.0762 130.027 28.0304Z" fill="#6C5E57"/>
<path opacity="0.313" fill-rule="evenodd" clip-rule="evenodd" d="M8.98728 28.2773C9.43921 28.3117 9.52124 28.4764 9.2333 28.7713C9.0371 28.6584 8.95507 28.4937 8.98728 28.2773Z" fill="#6C5E57"/>
<path opacity="0.268" fill-rule="evenodd" clip-rule="evenodd" d="M46.875 35.6862C46.9727 35.4331 47.1365 35.3918 47.367 35.5627C47.8591 35.9744 48.3511 36.3859 48.8431 36.7976C48.4967 36.8754 48.1688 36.7931 47.8591 36.5506C47.5626 36.2108 47.2347 35.9228 46.875 35.6862Z" fill="#6C5E57"/>
<path opacity="0.923" fill-rule="evenodd" clip-rule="evenodd" d="M12.924 35.9333C15.0718 35.9177 16.5069 36.9056 17.2294 38.8968C17.4346 39.6795 17.6396 40.4616 17.8444 41.243C17.2487 43.2656 16.7157 45.2826 16.2453 47.2936C18.2604 45.024 20.3516 42.8426 22.5187 40.7491C24.6624 39.084 27.0405 38.5901 29.6532 39.2673C31.0733 39.7874 32.0982 40.734 32.7285 42.1074C33.0719 43.441 33.4409 44.758 33.8355 46.0588C36.9182 44.3283 40.1575 43.011 43.5532 42.1074C43.6487 42.3366 43.8128 42.5013 44.0453 42.6013C44.6643 42.2869 45.2793 42.2869 45.8904 42.6013C46.1593 42.0407 46.5283 41.9585 46.9975 42.3543C47.736 42.7003 48.2692 43.2355 48.5966 43.9596C48.3491 44.29 48.1031 44.6192 47.8586 44.9475C48.1351 45.0089 48.3811 45.1324 48.5966 45.3179C46.6063 45.5602 44.6382 46.0953 42.6922 46.9232C43.7747 47.1647 44.7998 47.0412 45.7674 46.5527C45.9315 46.7174 45.9315 46.8819 45.7674 47.0466C45.4395 47.2114 45.1113 47.3758 44.7833 47.5406C44.2756 47.2711 43.7424 47.2299 43.1842 47.4171C41.052 48.3227 38.92 49.2281 36.7878 50.1337C34.8698 51.0121 32.9017 51.1769 30.8833 50.6276C30.3608 50.3505 29.9098 49.9801 29.5302 49.5163C28.8815 47.7493 28.3895 45.938 28.0541 44.0831C27.6295 43.8174 27.1786 43.7761 26.701 43.9596C26.1271 44.3713 25.5529 44.7827 24.9789 45.1944C22.5946 47.8347 20.1345 50.3866 17.5984 52.8503C16.0579 53.9969 14.3358 54.4909 12.432 54.3321C10.6376 53.7811 9.81753 52.5463 9.97183 50.6276C10.5898 47.6132 11.4099 44.6496 12.432 41.7369C12.2903 41.3136 12.0032 41.0254 11.5709 40.8726C10.7144 41.1045 9.89439 41.4337 9.11077 41.8604C9.02877 41.7782 8.94675 41.6957 8.86475 41.6134C8.27087 42.0558 7.65582 42.4672 7.01962 42.8483C6.87545 42.7967 6.75245 42.7142 6.65059 42.6013C5.94789 43.4612 5.12784 43.9552 4.19042 44.0831C3.78038 44.4948 3.37037 44.9062 2.96033 45.3179C2.71431 45.2357 2.46829 45.1532 2.22228 45.0709C1.81225 45.6471 1.40222 46.2235 0.992188 46.7997C2.35322 42.3813 5.10041 39.0472 9.23378 36.7977C10.475 36.4087 11.7051 36.1207 12.924 35.9333ZM5.2975 40.8726C5.33622 41.5749 5.00818 41.9866 4.31343 42.1074C4.45607 41.552 4.78408 41.1405 5.2975 40.8726ZM3.82139 42.6013C4.13465 42.7438 4.13465 42.9083 3.82139 43.0952C3.58448 42.9792 3.58448 42.8144 3.82139 42.6013Z" fill="#6C5E57"/>
<path opacity="0.788" fill-rule="evenodd" clip-rule="evenodd" d="M92.3871 42.8482C95.4658 42.5928 96.5729 43.9923 95.7084 47.0465C94.7241 48.4594 93.4529 48.7886 91.8951 48.0344C91.5923 47.7501 91.5923 47.4622 91.8951 47.17C92.6233 47.249 93.3614 47.249 94.1093 47.17C94.4874 46.8959 94.6512 46.5254 94.6013 46.0587C93.9452 46.0587 93.2893 46.0587 92.6332 46.0587C92.6332 45.7295 92.6332 45.4 92.6332 45.0708C93.309 45.1481 93.9651 45.0659 94.6013 44.8239C94.0054 43.7575 93.2263 43.593 92.2641 44.3299C91.4476 43.7508 91.4887 43.2569 92.3871 42.8482Z" fill="#6C5E57"/>
<path opacity="0.817" fill-rule="evenodd" clip-rule="evenodd" d="M97.0625 42.8482C97.4726 42.8482 97.8825 42.8482 98.2926 42.8482C98.2926 43.5891 98.2926 44.33 98.2926 45.0709C98.5386 45.0709 98.7846 45.0709 99.0306 45.0709C99.0685 43.5793 99.8066 42.8384 101.245 42.8482C101.245 43.2599 101.245 43.6714 101.245 44.0831C100.44 44.1273 100.03 44.58 100.015 45.4414C100.585 46.3443 101.159 47.2499 101.737 48.158C101.245 48.3227 100.753 48.3227 100.261 48.158C99.799 47.602 99.4299 46.9846 99.1537 46.3057C98.9049 46.099 98.6178 46.0168 98.2926 46.0588C98.2926 46.7997 98.2926 47.5405 98.2926 48.2814C97.8825 48.2814 97.4726 48.2814 97.0625 48.2814C97.0625 46.4705 97.0625 44.6592 97.0625 42.8482Z" fill="#6C5E57"/>
<path opacity="0.811" fill-rule="evenodd" clip-rule="evenodd" d="M103.212 42.8481C105.898 42.4582 107.087 43.6105 106.779 46.3056C106.133 48.1966 104.862 48.814 102.966 48.1578C101.295 46.2836 101.377 44.5136 103.212 42.8481ZM103.95 43.836C105.002 43.9039 105.576 44.4801 105.672 45.5647C105.621 46.8951 104.965 47.4303 103.704 47.17C102.682 45.9695 102.763 44.8582 103.95 43.836Z" fill="#6C5E57"/>
<path opacity="0.839" fill-rule="evenodd" clip-rule="evenodd" d="M107.887 42.8481C109.363 42.8481 110.839 42.8481 112.315 42.8481C112.315 44.6591 112.315 46.4704 112.315 48.2813C111.905 48.2813 111.495 48.2813 111.085 48.2813C111.085 46.7996 111.085 45.3178 111.085 43.836C110.429 43.836 109.773 43.836 109.117 43.836C109.117 45.3178 109.117 46.7996 109.117 48.2813C108.707 48.2813 108.297 48.2813 107.887 48.2813C107.887 46.4704 107.887 44.6591 107.887 42.8481Z" fill="#6C5E57"/>
<path opacity="0.821" fill-rule="evenodd" clip-rule="evenodd" d="M114.529 42.8482C115.353 42.8075 116.173 42.8487 116.989 42.9717C117.112 43.0952 117.235 43.2186 117.358 43.3421C117.708 44.9597 117.831 46.606 117.727 48.2814C117.294 48.3167 116.884 48.2342 116.497 48.0344C114.23 48.9657 113.287 48.2248 113.668 45.8118C114.49 45.162 115.433 44.8328 116.497 44.8239C116.539 44.4974 116.457 44.2092 116.251 43.9595C115.471 43.8546 114.733 43.9371 114.037 44.2065C113.688 43.5708 113.852 43.1181 114.529 42.8482ZM115.513 45.8118C115.841 45.8118 116.169 45.8118 116.497 45.8118C116.589 47.0453 116.016 47.5393 114.775 47.2935C114.659 46.5877 114.905 46.0938 115.513 45.8118Z" fill="#6C5E57"/>
<path opacity="0.833" fill-rule="evenodd" clip-rule="evenodd" d="M119.203 42.8482C119.683 42.7808 120.052 42.9453 120.31 43.3421C121.111 42.8657 121.972 42.7422 122.893 42.9717C123.274 43.2715 123.561 43.6419 123.754 44.083C124.017 45.384 123.853 46.6188 123.262 47.7875C122.412 48.5259 121.469 48.6906 120.433 48.2814C120.433 49.0223 120.433 49.7632 120.433 50.5041C120.023 50.5041 119.613 50.5041 119.203 50.5041C119.203 47.9522 119.203 45.4001 119.203 42.8482ZM121.171 43.8361C122.212 43.8519 122.704 44.3868 122.647 45.4413C122.651 46.8833 121.995 47.4185 120.679 47.0466C120.394 46.1521 120.353 45.2465 120.556 44.33C120.801 44.1902 121.006 44.0255 121.171 43.8361Z" fill="#6C5E57"/>
<path opacity="0.818" fill-rule="evenodd" clip-rule="evenodd" d="M125.107 42.8483C125.518 42.8483 125.927 42.8483 126.338 42.8483C126.26 43.607 126.341 44.3478 126.584 45.071C127.103 44.4022 127.595 43.7025 128.06 42.9718C128.462 42.8498 128.872 42.8088 129.29 42.8483C129.29 43.26 129.29 43.6714 129.29 44.0831C128.485 44.1273 128.075 44.58 128.06 45.4414C128.63 46.3443 129.204 47.2499 129.782 48.158C129.29 48.3227 128.798 48.3227 128.306 48.158C127.844 47.6021 127.475 46.9847 127.199 46.3058C126.95 46.0991 126.663 46.0168 126.338 46.0588C126.338 46.7997 126.338 47.5406 126.338 48.2815C125.927 48.2815 125.518 48.2815 125.107 48.2815C125.107 46.4705 125.107 44.6593 125.107 42.8483Z" fill="#6C5E57"/>
<path opacity="0.388" fill-rule="evenodd" clip-rule="evenodd" d="M1.85352 47.5404C2.06837 46.9511 2.43739 46.4572 2.9606 46.0586C2.85566 46.7059 2.48664 47.1998 1.85352 47.5404Z" fill="#6C5E57"/>
<path opacity="0.313" fill-rule="evenodd" clip-rule="evenodd" d="M1.85321 47.5405C1.64449 48.0362 1.31647 48.3244 0.869141 48.4049C1.01746 47.8934 1.34548 47.6052 1.85321 47.5405Z" fill="#6C5E57"/>
<path opacity="0.344" fill-rule="evenodd" clip-rule="evenodd" d="M36.7876 50.7509C36.9694 50.7186 37.1335 50.7598 37.2796 50.8744C37.0142 51.1105 36.7273 51.3162 36.4186 51.4918C36.3598 51.1737 36.4828 50.9267 36.7876 50.7509Z" fill="#6C5E57"/>
</g>
<defs>
<clipPath id="clip0_93_976">
<rect width="139" height="61" fill="white" transform="translate(0.5)"/>
</clipPath>
</defs>
</svg>
