<svg width="110" height="110" viewBox="0 0 110 110" fill="none" xmlns="http://www.w3.org/2000/svg">
<g clip-path="url(#clip0_92_310)">
<path d="M60.9132 26.3945C58.6832 26.9445 56.7032 30.6945 55.2332 32.3945C54.3213 29.9507 52.7624 27.8007 50.7232 26.1745C50.6334 26.0892 50.5256 26.0252 50.4079 25.987C50.2901 25.9488 50.1653 25.9375 50.0426 25.9538C49.9199 25.9701 49.8023 26.0136 49.6986 26.0812C49.5949 26.1488 49.5076 26.2388 49.4432 26.3445C48.2432 28.1845 49.2232 30.3445 49.9832 32.2045C50.9946 34.5964 52.3415 36.8322 53.9832 38.8445C54.0917 38.9515 54.2264 39.0281 54.3738 39.0668C54.5212 39.1054 54.6762 39.1046 54.8232 39.0645C58.6832 38.3845 62.8832 33.3945 63.0532 29.4945C63.1232 28.0245 62.6032 25.9445 60.9132 26.3945Z" fill="white"/>
<path d="M40.003 19.2544C40.003 19.1244 40.003 18.9944 40.003 18.8644C40.003 18.2644 39.133 17.7644 38.693 18.3244C38.1076 18.9728 37.6569 19.731 37.3668 20.555C37.0767 21.3789 36.953 22.2523 37.003 23.1244C36.2663 22.664 35.5674 22.1457 34.913 21.5744C34.343 21.0744 33.323 21.5744 33.473 22.2744C32.703 21.9544 32.003 23.1744 32.643 23.6944C33.8812 24.8368 35.3769 25.6636 37.003 26.1044C37.393 26.3844 37.783 26.6744 38.153 26.9844L38.273 27.0644C38.353 27.9344 39.663 28.2544 39.873 27.2844C40.353 24.8686 40.5577 22.4062 40.483 19.9444C40.4784 19.7952 40.4306 19.6506 40.3454 19.5281C40.2602 19.4056 40.1412 19.3105 40.003 19.2544Z" fill="white"/>
<path d="M77.4727 22.3146C77.4425 22.1998 77.3988 22.0891 77.3427 21.9846C77.2282 21.7942 77.0438 21.6562 76.8288 21.6002C76.6139 21.5441 76.3856 21.5744 76.1927 21.6846C75.1927 22.2946 74.1927 22.9446 73.1927 23.6146C73.4627 21.7546 73.7527 18.5546 71.7027 18.3846C71.3489 18.3451 70.9939 18.4469 70.7149 18.6679C70.4358 18.8889 70.2553 19.2112 70.2127 19.5646C70.0775 21.0582 70.0775 22.5609 70.2127 24.0546C70.2127 24.9846 69.9227 26.3746 70.7927 27.0546C71.6627 27.7346 72.4827 27.0546 73.2127 26.6146C74.2127 26.0346 76.8327 24.7946 77.4127 23.3246C77.543 23.1918 77.6208 23.0164 77.6319 22.8308C77.6429 22.6451 77.5864 22.4618 77.4727 22.3146Z" fill="white"/>
<path d="M55.2422 32.1244C54.6392 29.8731 53.3149 27.8814 51.4722 26.4544C51.1264 26.159 50.687 25.996 50.2322 25.9944C49.8644 26.0562 49.5309 26.2478 49.2922 26.5344C48.9294 26.9667 48.6698 27.4758 48.5329 28.0233C48.3961 28.5708 48.3856 29.1422 48.5022 29.6944C48.7348 30.7959 49.1651 31.8462 49.7722 32.7944C51.2147 35.3488 52.8884 37.7656 54.7722 40.0144C58.4522 37.6244 62.2022 34.6044 63.1922 30.3244C63.4399 29.4546 63.4155 28.5299 63.1222 27.6744C62.9681 27.2515 62.6858 26.8874 62.3146 26.6328C61.9435 26.3782 61.5022 26.2459 61.0522 26.2544C60.5423 26.3411 60.0635 26.5581 59.6622 26.8844C57.7214 28.1993 56.2199 30.0666 55.3522 32.2444" stroke="#664427" stroke-width="1.1" stroke-linecap="round" stroke-linejoin="round"/>
<path d="M37.3233 23.5944C36.6616 22.8522 35.8767 22.2297 35.0033 21.7544C34.6489 21.582 34.2497 21.524 33.8609 21.5885C33.4721 21.653 33.113 21.8368 32.8333 22.1144C32.5898 22.4706 32.474 22.8987 32.5049 23.3291C32.5358 23.7594 32.7114 24.1667 33.0033 24.4844C33.605 25.1076 34.345 25.5803 35.1633 25.8644L39.6733 27.8644C40.6307 25.5686 40.9752 23.0635 40.6733 20.5944C40.6317 19.9775 40.432 19.3817 40.0933 18.8644C39.9167 18.6101 39.6623 18.4199 39.3684 18.3226C39.0744 18.2252 38.7568 18.2258 38.4633 18.3244C38.221 18.469 38.0132 18.6647 37.8543 18.8979C37.6954 19.131 37.5892 19.3961 37.5433 19.6744C37.1694 20.9909 37.0875 22.3731 37.3033 23.7244" stroke="#664427" stroke-width="1.1" stroke-linecap="round" stroke-linejoin="round"/>
<path d="M73.4734 23.2844C74.0937 22.5648 74.8348 21.9591 75.6634 21.4944C76.0175 21.3205 76.4171 21.2617 76.8062 21.3262C77.1953 21.3908 77.5545 21.5755 77.8334 21.8544C78.0739 22.2123 78.1869 22.6407 78.1542 23.0706C78.1216 23.5006 77.9452 23.907 77.6534 24.2244C77.0451 24.8443 76.3028 25.3164 75.4834 25.6044L70.9834 27.6044C70.0256 25.3123 69.6809 22.8102 69.9834 20.3444C70.025 19.7275 70.2247 19.1317 70.5634 18.6144C70.74 18.3601 70.9944 18.1699 71.2884 18.0726C71.5823 17.9752 71.8999 17.9758 72.1934 18.0744C72.4366 18.218 72.6452 18.4134 72.8042 18.6467C72.9632 18.8801 73.0688 19.1456 73.1134 19.4244C73.4876 20.7408 73.5695 22.1231 73.3534 23.4744" stroke="#664427" stroke-width="1.1" stroke-linecap="round" stroke-linejoin="round"/>
<path d="M56.2326 56.4144C60.0381 59.9811 62.3272 64.874 62.6266 70.081C62.9259 75.2881 61.2125 80.411 57.8408 84.3903C54.4691 88.3695 49.697 90.9008 44.5115 91.4604C39.326 92.0201 34.1237 90.5653 29.9806 87.3971C25.8375 84.2288 23.0706 79.5894 22.252 74.4384C21.4334 69.2874 22.6259 64.0188 25.5828 59.7223C28.5396 55.4258 33.0346 52.4301 38.1382 51.3546C43.2418 50.2792 48.5635 51.2064 53.0026 53.9444" stroke="#664427" stroke-width="1.1" stroke-linecap="round" stroke-linejoin="round"/>
<path d="M53.883 83.8744C50.1241 80.5017 47.7491 75.8551 47.2171 70.8329C46.6852 65.8108 48.034 60.7698 51.003 56.6844C56.003 49.4944 62.003 48.2544 67.503 48.2544C70.6606 48.2529 73.7756 48.9837 76.6031 50.3894C79.4306 51.7951 81.8936 53.8374 83.7985 56.3557C85.7034 58.8741 86.9983 61.7999 87.5814 64.9032C88.1646 68.0066 88.0201 71.2029 87.1593 74.2409C86.2985 77.279 84.7449 80.076 82.6206 82.4122C80.4962 84.7485 77.859 86.5602 74.9162 87.705C71.9734 88.8499 68.8052 89.2966 65.6605 89.0102C62.5159 88.7238 59.4805 87.712 56.793 86.0544" stroke="#664427" stroke-width="1.1" stroke-linecap="round" stroke-linejoin="round"/>
<path d="M54.3034 59.0543L54.1234 58.9443C51.7214 62.2507 50.6311 66.3304 51.0633 70.3943C51.4956 74.4581 53.4197 78.2172 56.4634 80.9443" stroke="#664427" stroke-width="1.1" stroke-linecap="round" stroke-linejoin="round"/>
<path d="M54.1521 59.0344C57.0603 61.7471 58.9308 65.3897 59.4409 69.3339C59.9509 73.2782 59.0686 77.2767 56.946 80.64C54.8235 84.0033 51.5938 86.5205 47.814 87.7574C44.0341 88.9943 39.9412 88.8734 36.241 87.4155C32.5407 85.9577 29.4652 83.2543 27.5449 79.7715C25.6246 76.2888 24.9798 72.2452 25.7218 68.3379C26.4638 64.4307 28.546 60.9049 31.6093 58.3685C34.6726 55.8322 38.525 54.4444 42.5021 54.4444C45.4286 54.4041 48.3122 55.15 50.8521 56.6044" stroke="#664427" stroke-width="1.1" stroke-linecap="round" stroke-linejoin="round"/>
<path d="M54.123 58.9443C54.6885 58.0213 55.4013 57.1971 56.233 56.5043C57.7284 55.0656 59.4947 53.9383 61.4294 53.1881C63.3641 52.4379 65.4287 52.0797 67.503 52.1343C71.8897 52.1343 76.0967 53.8769 79.1986 56.9788C82.3004 60.0806 84.043 64.2877 84.043 68.6743C84.043 73.061 82.3004 77.268 79.1986 80.3699C76.0967 83.4717 71.8897 85.2143 67.503 85.2143C64.63 85.3145 61.7924 84.5555 59.353 83.0343" stroke="#664427" stroke-width="1.1" stroke-linecap="round" stroke-linejoin="round"/>
<path d="M34.2933 52.5445C32.1033 51.1645 30.2233 49.8845 28.1133 48.3645C28.9075 45.4756 29.5385 42.5443 30.0033 39.5845C32.0033 38.9245 33.7833 38.3645 35.8033 37.8245C37.6933 39.3845 39.8033 40.6245 41.6533 42.1845C41.9033 42.3945 41.6533 42.6845 41.6533 43.0045C41.3399 45.6711 40.9699 48.3145 40.5433 50.9345" stroke="#664427" stroke-width="1.1" stroke-linecap="round" stroke-linejoin="round"/>
<path d="M28.0918 48.0245C32.4553 46.1473 36.9187 44.5115 41.4618 43.1245" stroke="#664427" stroke-width="1.1" stroke-linecap="round" stroke-linejoin="round"/>
<path d="M35.702 38.0444C35.842 40.2244 35.702 42.1244 35.882 44.2944L30.252 39.6044" stroke="#664427" stroke-width="1.1" stroke-linecap="round" stroke-linejoin="round"/>
<path d="M34.2324 52.2943L35.9124 44.9443C37.2924 47.0043 38.6324 48.9443 40.1924 50.9443" stroke="#664427" stroke-width="1.1" stroke-linecap="round" stroke-linejoin="round"/>
</g>
<defs>
<clipPath id="clip0_92_310">
<rect width="110" height="110" fill="white"/>
</clipPath>
</defs>
</svg>
