<svg width="111" height="110" viewBox="0 0 111 110" fill="none" xmlns="http://www.w3.org/2000/svg">
<g clip-path="url(#clip0_92_341)">
<path d="M53.6491 46.4899C53.1691 45.9699 48.2391 46.3999 46.7091 46.9499C44.7444 47.7569 42.6842 48.3081 40.5791 48.5899C38.8978 48.7085 37.2269 48.9458 35.5791 49.2999C34.8548 49.3305 34.1534 49.5617 33.553 49.9679C32.9526 50.374 32.4769 50.9391 32.1791 51.5999C32.146 51.6882 32.146 51.7854 32.1791 51.8737C32.2122 51.9619 32.2761 52.0352 32.3591 52.0799C29.5891 57.0399 29.7591 63.9699 34.3891 67.6799C35.5568 68.5864 36.8987 69.2425 38.3311 69.6073C39.7636 69.9722 41.2559 70.0379 42.7149 69.8006C44.1739 69.5632 45.5684 69.0277 46.8113 68.2276C48.0542 67.4274 49.1189 66.3798 49.9391 65.1499C51.5214 62.5643 52.5435 59.6754 52.9391 56.6699C53.2791 54.2099 52.9991 51.7599 53.4891 49.2999C53.6891 48.5799 54.1191 46.9699 53.6491 46.4899Z" fill="white"/>
<path d="M79.3204 53.6101C78.9504 52.2901 78.5604 48.2001 76.9104 47.7701C76.1804 47.5801 74.4804 48.1701 73.6804 48.2501C72.4104 48.3701 71.1304 48.4501 69.8604 48.4501C68.3064 48.4355 66.7767 48.0625 65.3904 47.3601C64.8002 47.0928 64.1834 46.8883 63.5504 46.7501C62.6204 46.5801 58.6504 45.7501 57.4804 46.6801C57.4156 46.6038 57.3268 46.5519 57.2286 46.5329C57.1304 46.514 57.0287 46.529 56.9401 46.5756C56.8516 46.6222 56.7816 46.6975 56.7417 46.7892C56.7017 46.8809 56.6942 46.9835 56.7204 47.0801C56.9904 48.4501 57.2704 49.8201 57.5204 51.1801C57.4248 51.2176 57.345 51.2866 57.294 51.3757C57.2431 51.4648 57.2242 51.5687 57.2404 51.6701C58.0604 58.2101 58.6804 66.2701 65.6904 69.1201C70.6904 71.1801 78.4104 69.0201 80.0404 63.2801C80.8504 60.2701 80.1504 56.5401 79.3204 53.6101Z" fill="white"/>
<path d="M53.0009 19.7301L53.8409 21.7301C53.9751 22.0079 54.0468 22.3117 54.0509 22.6201L51.6909 20.9101C51.6719 20.8889 51.6488 20.8717 51.623 20.8597C51.5973 20.8477 51.5693 20.841 51.5409 20.8401C51.4609 20.8401 51.4109 20.9201 51.3609 20.9901C50.8566 21.7646 50.2698 22.4821 49.6109 23.1301V20.1801C48.6935 20.1371 47.7808 20.0234 46.8809 19.8401C47.8109 19.3201 48.7709 18.8401 49.7309 18.3701C49.7309 17.3701 49.6309 16.1801 49.6109 15.1201L51.2309 17.6001C52.4664 17.5236 53.6957 17.3666 54.9109 17.1301C54.1006 17.8548 53.4501 18.7403 53.0009 19.7301Z" stroke="#664427" stroke-width="1.1" stroke-linecap="round" stroke-linejoin="round"/>
<path d="M62.1404 15.28C62.2604 16 62.3704 16.71 62.4904 17.43C62.5619 17.7325 62.5619 18.0475 62.4904 18.35C61.8504 17.61 61.2204 16.87 60.5904 16.12C60.5548 16.0755 60.5057 16.0438 60.4504 16.03C60.411 16.0261 60.3714 16.0335 60.336 16.0512C60.3006 16.0689 60.2709 16.0962 60.2504 16.13C59.5801 16.771 58.8425 17.3376 58.0504 17.82L58.7304 14.97C57.8452 14.7058 56.9824 14.3714 56.1504 13.97C57.1504 13.68 58.2204 13.42 59.2604 13.19C59.4804 12.19 59.6604 11.03 59.8804 10L60.8804 12.78C62.1003 12.9888 63.3333 13.1125 64.5704 13.15C63.622 13.6845 62.7946 14.4098 62.1404 15.28Z" stroke="#664427" stroke-width="1.1" stroke-linecap="round" stroke-linejoin="round"/>
<path d="M60.1708 26.71C60.0408 27.57 59.9208 28.43 59.7908 29.29C59.3908 28.58 58.9408 27.75 58.5608 27.03L56.2708 28.41C56.4908 27.64 56.7208 26.71 56.9308 25.93C56.3008 25.43 55.6708 24.93 55.0508 24.38L57.6308 24.3C58.2808 23.47 58.8308 22.5 59.5308 21.71C59.7985 22.6131 59.9432 23.5482 59.9608 24.49C60.8808 24.67 61.7808 24.98 62.7008 25.16C62.7008 25.16 62.8008 25.16 62.7908 25.24C62.7969 25.2561 62.7969 25.2739 62.7908 25.29C61.9798 25.8703 61.0997 26.3473 60.1708 26.71Z" stroke="#664427" stroke-width="1.1" stroke-linecap="round" stroke-linejoin="round"/>
<path d="M54.3898 32.9L39.9198 30.53C36.7785 37.5681 34.0799 44.7955 31.8398 52.17C30.6798 56 29.6398 60.17 31.1698 63.9C32.0555 65.8204 33.5124 67.4206 35.3416 68.482C37.1708 69.5433 39.2831 70.0141 41.3898 69.83C43.4929 69.5762 45.4976 68.7949 47.2179 67.5589C48.9382 66.3229 50.3182 64.6721 51.2298 62.76C52.2499 60.4219 52.8977 57.9385 53.1498 55.4C54.0182 47.932 54.4323 40.4182 54.3898 32.9Z" stroke="#664427" stroke-width="1.1" stroke-linecap="round" stroke-linejoin="round"/>
<path d="M39.9706 70.1999C38.1006 79.9899 36.6606 89.0999 34.7806 98.0499C34.0185 97.7603 33.2049 97.6309 32.3906 97.6699C34.0106 88.4999 35.9006 79.2899 37.4706 69.9099C38.2856 70.127 39.1277 70.2246 39.9706 70.1999Z" stroke="#664427" stroke-width="1.1" stroke-linecap="round" stroke-linejoin="round"/>
<path d="M21.5 96.6001C29.7 97.5134 37.8833 98.6368 46.05 99.9701" stroke="#664427" stroke-width="1.1" stroke-linecap="round" stroke-linejoin="round"/>
<path d="M32.1992 50.7999C34.1874 49.4879 36.4903 48.7318 38.8692 48.6099C40.3176 48.6694 41.7683 48.5823 43.1992 48.3499C44.3458 47.975 45.4624 47.5136 46.5392 46.9699C48.8666 46.0031 51.4423 45.8069 53.8892 46.4099" stroke="#664427" stroke-width="0.76" stroke-miterlimit="10"/>
<path d="M50.5801 50.3101H50.6601" stroke="#664427" stroke-width="0.76" stroke-linecap="round" stroke-linejoin="round"/>
<path d="M36.7109 62.5H36.8009" stroke="#664427" stroke-width="0.76" stroke-linecap="round" stroke-linejoin="round"/>
<path d="M44.0195 54.26H44.1095" stroke="#664427" stroke-width="0.76" stroke-linecap="round" stroke-linejoin="round"/>
<path d="M34.6094 58.1299H34.6894" stroke="#664427" stroke-width="0.76" stroke-linecap="round" stroke-linejoin="round"/>
<path d="M47.8105 61.3999H47.8905" stroke="#664427" stroke-width="0.76" stroke-linecap="round" stroke-linejoin="round"/>
<path d="M37.7207 52.5801H37.8007" stroke="#664427" stroke-width="0.76" stroke-linecap="round" stroke-linejoin="round"/>
<path d="M47.6406 56.78H47.7206" stroke="#664427" stroke-width="0.76" stroke-linecap="round" stroke-linejoin="round"/>
<path d="M43.0996 59.6399H43.1796" stroke="#664427" stroke-width="0.76" stroke-linecap="round" stroke-linejoin="round"/>
<path d="M56.3897 32.9L70.8397 30.53C73.9878 37.5676 76.6931 44.795 78.9397 52.17C80.0997 56 81.1397 60.17 79.6097 63.9C78.724 65.8204 77.2671 67.4206 75.4379 68.482C73.6087 69.5433 71.4965 70.0141 69.3897 69.83C67.2866 69.5762 65.2819 68.7949 63.5616 67.5589C61.8413 66.3229 60.4613 64.6721 59.5497 62.76C58.5296 60.4219 57.8818 57.9385 57.6297 55.4C56.7614 47.932 56.3473 40.4182 56.3897 32.9Z" stroke="#664427" stroke-width="1.1" stroke-linecap="round" stroke-linejoin="round"/>
<path d="M70.8105 70.1999C72.6805 79.9899 74.1205 89.0999 76.0005 98.0499C76.7626 97.7603 77.5762 97.6309 78.3905 97.6699C76.7705 88.4999 74.8805 79.2899 73.3105 69.9099C72.4956 70.127 71.6535 70.2246 70.8105 70.1999Z" stroke="#664427" stroke-width="1.1" stroke-linecap="round" stroke-linejoin="round"/>
<path d="M89.2805 96.6001C81.0805 97.5134 72.8971 98.6368 64.7305 99.9701" stroke="#664427" stroke-width="1.1" stroke-linecap="round" stroke-linejoin="round"/>
<path d="M56.9707 46.6699C60.0453 46.1518 63.2016 46.4413 66.1307 47.5099C67.2885 48.0485 68.5234 48.4028 69.7907 48.5599C70.745 48.5276 71.6919 48.3798 72.6107 48.1199C74.1806 47.7854 75.788 47.661 77.3907 47.7499" stroke="#664427" stroke-width="0.76" stroke-miterlimit="10"/>
<path d="M63.8594 52.1599H63.9394" stroke="#664427" stroke-width="0.76" stroke-linecap="round" stroke-linejoin="round"/>
<path d="M72.0996 52.97H72.1796" stroke="#664427" stroke-width="0.76" stroke-linecap="round" stroke-linejoin="round"/>
<path d="M62.5996 56.78H62.6796" stroke="#664427" stroke-width="0.76" stroke-linecap="round" stroke-linejoin="round"/>
<path d="M67.9805 60.23H68.1505" stroke="#664427" stroke-width="0.76" stroke-linecap="round" stroke-linejoin="round"/>
<path d="M65.5391 64.8501H65.7091" stroke="#664427" stroke-width="0.76" stroke-linecap="round" stroke-linejoin="round"/>
</g>
<defs>
<clipPath id="clip0_92_341">
<rect width="110" height="110" fill="white" transform="translate(0.5)"/>
</clipPath>
</defs>
</svg>
