<svg width="111" height="110" viewBox="0 0 111 110" fill="none" xmlns="http://www.w3.org/2000/svg">
<g clip-path="url(#clip0_92_378)">
<path d="M48.5378 45.8713C40.1378 45.1713 41.3278 33.5713 41.0078 20.2213C42.7278 20.1513 43.8478 20.2213 44.3378 20.2213C44.6178 24.6413 45.1078 33.9913 45.6378 35.5713C46.1678 37.1513 48.0478 36.2013 47.9478 34.5713C47.8478 32.9413 47.5578 19.9613 47.5578 19.9613H49.9278C49.9278 19.9613 51.0778 33.6213 51.1878 34.2613C51.2878 35.7313 53.5278 36.3613 53.4278 34.2613C53.3278 32.1613 53.4278 19.8213 53.4278 19.8213L56.6478 19.8913C59.4378 45.1313 55.8778 45.0513 52.3778 45.5413C52.3778 49.3913 55.0378 80.7113 55.5978 89.8213C55.8078 93.2513 51.3978 93.7413 50.9078 89.8913C50.7178 88.3413 48.5378 45.8713 48.5378 45.8713Z" stroke="#664427" stroke-miterlimit="10"/>
<path d="M57.8574 90.5412C59.5943 90.8971 61.3646 91.0648 63.1374 91.0412C64.1374 79.5512 64.3774 68.8412 64.7974 57.3112L64.9274 55.3712C67.2483 49.8608 68.6665 44.0126 69.1274 38.0512C69.5619 32.0193 68.5112 25.9729 66.0674 20.4412C65.2874 18.6712 64.0674 16.6512 61.7174 17.0512C60.8674 18.8512 61.8874 41.9312 60.8674 54.3212C60.8674 54.3212 58.8174 78.5312 57.8574 90.5412Z" stroke="#664427" stroke-miterlimit="10"/>
<path d="M48.3672 61.0112L65.3972 61.8012L65.0072 78.1412L49.4472 78.3312L48.3672 61.0112Z" fill="white" stroke="#664427" stroke-miterlimit="10"/>
<path d="M65.7468 59.1511C66.5454 58.812 67.4042 58.6372 68.2718 58.6372C69.1395 58.6372 69.9982 58.812 70.7968 59.1511C71.6997 59.6669 72.4236 60.4459 72.8721 61.3839C73.3206 62.322 73.4723 63.3746 73.3068 64.4011C73.1123 65.4223 72.6998 66.3896 72.0976 67.2369C71.4953 68.0842 70.7174 68.7917 69.8168 69.3111C68.0145 70.3183 65.9912 70.8645 63.9268 70.9011C61.5598 71.0234 59.1899 70.7255 56.9268 70.0211C60.3568 69.5911 64.0368 69.0211 66.5368 66.6711C67.194 66.1302 67.6168 65.3564 67.7168 64.5111C67.6904 63.9339 67.4695 63.3826 67.0901 62.9469C66.7106 62.5112 66.1949 62.2166 65.6268 62.1111C65.0571 62.028 64.4766 62.0586 63.9188 62.2011C63.361 62.3435 62.8369 62.595 62.3768 62.9411C61.4606 63.6388 60.6224 64.4334 59.8768 65.3111C59.3668 65.8511 56.7868 68.9511 56.0668 68.5811C55.3468 68.2111 57.7168 65.5811 58.1468 65.0311C60.1146 62.4325 62.7374 60.4033 65.7468 59.1511Z" fill="white" stroke="#664427" stroke-linecap="round" stroke-linejoin="round"/>
<path d="M45.927 59.2712C45.126 58.9615 44.2714 58.8144 43.4129 58.8385C42.5545 58.8625 41.7094 59.0572 40.927 59.4112C40.0409 59.9579 39.3428 60.7623 38.9264 61.7166C38.51 62.671 38.3951 63.7297 38.597 64.7512C38.8254 65.7651 39.2708 66.7175 39.9026 67.5427C40.5345 68.3679 41.3377 69.0463 42.257 69.5312C44.1077 70.4965 46.17 70.9846 48.257 70.9512C50.6081 70.9738 52.9456 70.5915 55.167 69.8212C51.727 69.5112 48.027 69.1012 45.447 66.8212C44.7704 66.3025 44.3192 65.5434 44.187 64.7012C44.192 64.1251 44.3927 63.5679 44.7561 63.1208C45.1195 62.6738 45.6241 62.3637 46.187 62.2412C46.7534 62.133 47.3358 62.1402 47.8993 62.2622C48.4629 62.3841 48.9961 62.6185 49.467 62.9512C50.4099 63.6119 51.2784 64.373 52.057 65.2212C52.577 65.7512 55.267 68.7612 55.977 68.3612C56.687 67.9612 54.217 65.3612 53.767 64.8912C51.7033 62.3504 48.9959 60.4097 45.927 59.2712Z" fill="white" stroke="#664427" stroke-linecap="round" stroke-linejoin="round"/>
<path d="M50.7769 76.2112C50.5896 76.9221 50.5454 77.6631 50.6469 78.3912C50.8938 79.342 51.2565 80.2589 51.7269 81.1212C52.5584 83.0045 52.8359 85.0859 52.5269 87.1212C52.6966 86.5601 52.9494 86.0275 53.2769 85.5412C53.7085 85.941 54.0495 86.4286 54.2769 86.9712C55.0469 83.9712 52.6169 80.8212 53.2069 77.7512C53.5994 76.336 54.2466 75.0042 55.1169 73.8212C55.8426 72.8526 56.2638 71.69 56.3269 70.4812C56.1669 68.8812 55.1569 70.0412 54.3269 70.6812C52.559 72.0763 51.3093 74.0231 50.7769 76.2112Z" fill="white" stroke="#664427" stroke-linecap="round" stroke-linejoin="round"/>
<path d="M58.0563 75.8212C57.8963 77.2912 57.2863 78.7012 57.2363 80.1812C57.1563 82.4412 58.3863 84.5312 59.6863 86.3912C59.5296 85.6755 59.4925 84.9389 59.5763 84.2112C60.1975 84.6588 60.7887 85.1465 61.3463 85.6712C61.1063 84.2411 60.0463 83.0711 59.6463 81.6712C59.2463 80.2712 59.5663 78.6712 59.6463 77.1112C59.7563 74.6812 59.1763 70.9112 57.2863 69.1812C56.5263 69.7812 57.3963 71.1811 57.6063 71.9111C58.0107 73.1725 58.1636 74.5009 58.0563 75.8212Z" fill="white" stroke="#664427" stroke-linecap="round" stroke-linejoin="round"/>
<path d="M55.4477 67.2813C55.2078 68.3847 55.0971 69.5123 55.1177 70.6413C56.1877 70.3935 57.2737 70.2197 58.3677 70.1213C57.9148 69.0231 57.5796 67.8801 57.3677 66.7113C56.6426 66.6904 55.924 66.852 55.2777 67.1813" fill="white"/>
<path d="M55.4477 67.2813C55.2078 68.3847 55.0971 69.5123 55.1177 70.6413C56.1877 70.3935 57.2737 70.2197 58.3677 70.1213C57.9148 69.0231 57.5796 67.8801 57.3677 66.7113C56.6426 66.6904 55.924 66.852 55.2777 67.1813" stroke="#664427" stroke-linecap="round" stroke-linejoin="round"/>
</g>
<defs>
<clipPath id="clip0_92_378">
<rect width="110" height="110" fill="white" transform="translate(0.5)"/>
</clipPath>
</defs>
</svg>
