<svg width="111" height="110" viewBox="0 0 111 110" fill="none" xmlns="http://www.w3.org/2000/svg">
<g clip-path="url(#clip0_92_381)">
<path d="M37.1503 65.35C37.1225 65.2361 37.064 65.1321 36.9811 65.0492C36.8982 64.9663 36.7942 64.9078 36.6803 64.88C33.8403 64.36 31.0003 63.79 28.1803 63.14C28.0609 63.1117 27.9362 63.1152 27.8186 63.1503C27.701 63.1854 27.5947 63.2508 27.5103 63.34C27.2503 63.24 26.9203 63.34 26.9403 63.71C27.0403 65.43 26.9403 68.55 28.5403 69.65C29.5369 70.1589 30.6118 70.4969 31.7203 70.65C33.3703 71.07 35.0403 71.44 36.7203 71.79C36.8293 71.817 36.943 71.8191 37.053 71.7963C37.163 71.7735 37.2664 71.7262 37.3556 71.6581C37.4449 71.5899 37.5177 71.5026 37.5687 71.4026C37.6197 71.3025 37.6476 71.1923 37.6503 71.08C37.6402 69.1595 37.473 67.2431 37.1503 65.35Z" fill="white"/>
<path d="M52.3 58.3601C52.2565 58.2051 52.1636 58.0685 52.0355 57.9711C51.9074 57.8736 51.751 57.8206 51.59 57.8201C47.3344 57.9634 43.0741 57.7661 38.85 57.2301C38.8068 57.2247 38.7632 57.2247 38.72 57.2301C38.709 57.1364 38.6661 57.0493 38.5984 56.9836C38.5308 56.9178 38.4425 56.8775 38.3485 56.8692C38.2545 56.861 38.1606 56.8855 38.0825 56.9384C38.0045 56.9914 37.9471 57.0697 37.92 57.1601C37.4101 59.4239 37.1684 61.7398 37.2 64.0601C37.2026 64.2608 37.2835 64.4526 37.4255 64.5946C37.5674 64.7366 37.7592 64.8175 37.96 64.8201C40.21 64.7401 42.45 64.6601 44.7 64.6401C46.1865 64.595 47.6743 64.6652 49.15 64.8501C49.8525 65.0439 50.5833 65.1149 51.31 65.0601C53.52 64.4201 52.5 60.0301 52.3 58.3601Z" fill="white"/>
<path d="M62.9294 65.28C62.9294 64.93 62.6194 64.51 62.2194 64.57C59.5675 64.9163 56.8929 65.0567 54.2194 64.99C54.0653 64.9817 53.9134 65.0284 53.7906 65.1218C53.6679 65.2152 53.5824 65.3493 53.5494 65.5C53.5032 65.464 53.4496 65.4386 53.3925 65.4256C53.3354 65.4126 53.2762 65.4123 53.219 65.4247C53.1617 65.4371 53.1079 65.4619 53.0614 65.4974C53.0148 65.5328 52.9765 65.5781 52.9494 65.63C51.9494 67.81 52.6394 70.82 53.0894 73.09C53.1367 73.2556 53.2363 73.4015 53.3732 73.506C53.5101 73.6105 53.6771 73.668 53.8494 73.67C56.7594 73.6 59.6594 73.57 62.5594 73.37C62.7637 73.3674 62.9592 73.2858 63.1046 73.1422C63.2501 72.9987 63.3342 72.8043 63.3394 72.6C63.1594 70.16 63.0394 67.72 62.9294 65.28Z" fill="white"/>
<path d="M72.1796 72.1601C69.3896 72.5901 66.5896 72.8801 63.7796 73.1001C63.6282 73.1101 63.4838 73.1677 63.3671 73.2647C63.2504 73.3617 63.1672 73.493 63.1296 73.6401C63.0767 73.6783 63.0408 73.7357 63.0296 73.8001C62.7782 75.2899 62.6611 76.7993 62.6796 78.3101C62.6796 78.4059 62.6985 78.5009 62.7352 78.5894C62.7719 78.678 62.8257 78.7585 62.8934 78.8262C62.9612 78.894 63.0417 78.9478 63.1303 78.9845C63.2188 79.0212 63.3138 79.0401 63.4096 79.0401L67.4096 78.6501C68.6489 78.64 69.8844 78.5128 71.0996 78.2701C72.8796 77.7301 72.7496 74.5301 73.0296 73.0301C73.0605 72.9116 73.0602 72.7872 73.0288 72.6689C72.9974 72.5506 72.9359 72.4425 72.8504 72.3549C72.7649 72.2674 72.6582 72.2035 72.5406 72.1693C72.4231 72.1352 72.2988 72.132 72.1796 72.1601Z" fill="white"/>
<path d="M74.0606 55.6201C74.0115 55.4411 73.8933 55.2889 73.732 55.197C73.5707 55.1051 73.3796 55.0811 73.2006 55.1301C69.9606 55.8701 66.7106 56.4601 63.4206 56.9301C62.9006 57.0001 62.8106 57.4701 62.9806 57.8601C62.8888 59.6031 62.9625 61.351 63.2006 63.0801C63.2014 63.1943 63.2283 63.3068 63.2793 63.409C63.3302 63.5113 63.4038 63.6005 63.4945 63.67C63.5852 63.7394 63.6905 63.7873 63.8025 63.8098C63.9144 63.8324 64.0301 63.829 64.1406 63.8001C65.74 63.3782 67.3674 63.0708 69.0106 62.8801C70.4206 62.6901 72.7206 62.6701 73.9306 61.8801C74.5206 61.4801 74.5406 61.2601 74.5706 60.5501C74.5472 58.8949 74.3765 57.245 74.0606 55.6201Z" fill="white"/>
<path d="M81.451 49.0801C81.171 48.4301 80.921 47.2501 80.241 46.9201C79.561 46.5901 78.241 47.1101 77.581 47.2301C76.1019 47.4235 74.6406 47.7344 73.211 48.1601C73.1301 48.1919 73.0564 48.2396 72.9942 48.3004C72.9321 48.3612 72.8828 48.4338 72.8492 48.514C72.8157 48.5942 72.7985 48.6803 72.7988 48.7672C72.7991 48.8541 72.8169 48.9401 72.851 49.0201C72.8215 49.1179 72.8215 49.2222 72.851 49.3201C73.454 50.9439 73.9157 52.6168 74.231 54.3201C74.2824 54.505 74.4047 54.6623 74.5713 54.7577C74.7379 54.8532 74.9354 54.8792 75.121 54.8301C76.381 54.3201 77.651 53.8301 78.961 53.4701C80.0348 53.2698 81.0865 52.9651 82.101 52.5601C82.2099 52.4972 82.3005 52.4068 82.3636 52.2981C82.4268 52.1893 82.4604 52.0658 82.461 51.9401C82.2785 50.9391 81.9375 49.9736 81.451 49.0801Z" fill="white"/>
<path d="M78.4596 76.6299C76.5542 77.2399 74.5902 77.6488 72.5996 77.8499C72.4652 77.8669 72.3373 77.9178 72.2279 77.9978C72.1185 78.0778 72.0313 78.1842 71.9743 78.3072C71.9173 78.4301 71.8925 78.5655 71.9022 78.7007C71.9119 78.8358 71.9557 78.9663 72.0296 79.0799C71.7296 79.7999 71.5196 80.5599 71.2896 81.2999C70.8775 82.221 70.6434 83.2118 70.5996 84.2199C70.6027 84.3486 70.6388 84.4743 70.7045 84.5849C70.7702 84.6956 70.8633 84.7875 70.9748 84.8518C71.0863 84.9161 71.2124 84.9506 71.3411 84.952C71.4698 84.9534 71.5967 84.9217 71.7096 84.8599C74.7096 83.1099 76.9696 80.4999 79.1896 77.8599C79.6296 77.3499 79.2296 76.3899 78.4596 76.6299Z" fill="white"/>
<path d="M62.1405 51.22C62.0005 50.76 61.9105 50.51 61.4505 50.31C60.5905 49.93 58.7105 50.31 57.7805 50.31C56.1905 50.31 54.6105 50.46 53.0205 50.6C52.1205 50.69 52.0905 52.05 52.9305 52.07C52.5305 53.57 52.0105 56.32 53.1405 56.99C53.9505 57.46 55.8105 56.91 56.7005 56.84L61.7005 56.43C61.8943 56.4275 62.0796 56.3501 62.2175 56.214C62.3555 56.0779 62.4354 55.8937 62.4405 55.7C62.5289 54.2 62.4281 52.6948 62.1405 51.22Z" fill="white"/>
<path d="M55.4092 90.0301C71.2653 90.0301 84.1192 77.1762 84.1192 61.3201C84.1192 45.464 71.2653 32.6101 55.4092 32.6101C39.5531 32.6101 26.6992 45.464 26.6992 61.3201C26.6992 77.1762 39.5531 90.0301 55.4092 90.0301Z" stroke="#664427" stroke-width="1.1" stroke-linecap="round" stroke-linejoin="round"/>
<path d="M55.6598 9C55.6598 16.76 55.6365 24.52 55.5898 32.28" stroke="#664427" stroke-width="1.1" stroke-linecap="round" stroke-linejoin="round"/>
<path d="M36.3594 40.56C38.0666 41.3489 39.919 41.7745 41.7994 41.81C52.8794 42.81 64.3494 43.72 74.7994 40.03" stroke="#664427" stroke-width="1.1" stroke-linecap="round" stroke-linejoin="round"/>
<path d="M30.7793 47.8299C37.0062 49.6377 43.4379 50.6457 49.9193 50.8299C59.995 50.9427 70.0305 49.5404 79.6893 46.6699" stroke="#664427" stroke-width="1.1" stroke-linecap="round" stroke-linejoin="round"/>
<path d="M27.5195 54.9799C45.8315 59.1227 64.9234 58.2312 82.7695 52.3999" stroke="#664427" stroke-width="1.1" stroke-linecap="round" stroke-linejoin="round"/>
<path d="M27.1191 62.9401C45.6391 67.4701 65.2991 64.7701 83.5291 59.3601" stroke="#664427" stroke-width="1.1" stroke-linecap="round" stroke-linejoin="round"/>
<path d="M27.8105 69.5601C35.7397 72.3523 44.0944 73.743 52.5005 73.6701C60.9016 73.6078 69.2758 72.7135 77.5005 71.0001C79.0903 70.7265 80.6553 70.3252 82.1805 69.8001" stroke="#664427" stroke-width="1.1" stroke-linecap="round" stroke-linejoin="round"/>
<path d="M31.1602 76.7801C35.4702 78.7801 40.3102 79.4201 45.0702 79.7201C56.7868 80.6148 68.5685 79.3713 79.8402 76.05" stroke="#664427" stroke-width="1.1" stroke-linecap="round" stroke-linejoin="round"/>
<path d="M37.4902 83.3601C40.8831 84.5862 44.3908 85.4673 47.9602 85.9901C49.9527 86.2021 51.9573 86.279 53.9602 86.2201C60.1063 86.123 66.2366 85.5682 72.3002 84.5601" stroke="#664427" stroke-width="1.1" stroke-linecap="round" stroke-linejoin="round"/>
<path d="M49.5594 33.6299C44.1705 38.8762 40.3597 45.5277 38.5594 52.8299C36.7738 60.1215 36.6747 67.7242 38.2694 75.0599C39.2094 79.5499 40.7694 84.0599 43.8394 87.4599" stroke="#664427" stroke-width="1.1" stroke-linecap="round" stroke-linejoin="round"/>
<path d="M53.9702 32.95C52.2056 51.9378 52.0952 71.043 53.6402 90.0499" stroke="#664427" stroke-width="1.1" stroke-linecap="round" stroke-linejoin="round"/>
<path d="M57.3008 32.77C58.1116 34.4311 58.7419 36.1744 59.1808 37.97C63.7056 54.6027 64.3352 72.0545 61.0208 88.97" stroke="#664427" stroke-width="1.1" stroke-linecap="round" stroke-linejoin="round"/>
<path d="M62.0508 33.21C68.9308 38.38 72.9208 46.77 74.0508 55.3C75.1808 63.83 73.7108 72.56 71.3008 80.77C70.7736 82.6215 70.1494 84.444 69.4308 86.23" stroke="#664427" stroke-width="1.1" stroke-linecap="round" stroke-linejoin="round"/>
<path d="M37.1205 64.8401C37.1205 65.0901 27.9805 63.1001 27.9805 63.1001" stroke="#664427" stroke-width="1.1" stroke-linecap="round" stroke-linejoin="round"/>
<path d="M68.9102 29.1601C70.0368 27.6668 71.2302 26.2334 72.4902 24.8601" stroke="#664427" stroke-width="1.1" stroke-linecap="round" stroke-linejoin="round"/>
<path d="M76.4707 35.1499C78.0445 33.9241 79.7168 32.8303 81.4707 31.8799" stroke="#664427" stroke-width="1.1" stroke-linecap="round" stroke-linejoin="round"/>
<path d="M37.1396 30.71C36.0264 29.7365 35.0834 28.584 34.3496 27.3" stroke="#664427" stroke-width="1.1" stroke-linecap="round" stroke-linejoin="round"/>
<path d="M29.6708 38.0699C28.2308 36.9166 26.7741 35.7866 25.3008 34.6799" stroke="#664427" stroke-width="1.1" stroke-linecap="round" stroke-linejoin="round"/>
<path d="M23.15 56.6901L17.5 56.3301" stroke="#664427" stroke-width="1.1" stroke-linecap="round" stroke-linejoin="round"/>
<path d="M27.4691 81.71C26.0245 83.4544 24.3012 84.9479 22.3691 86.13" stroke="#664427" stroke-width="1.1" stroke-linecap="round" stroke-linejoin="round"/>
<path d="M39.0792 92.45C37.7292 94.32 36.4292 96.25 35.1992 98.21" stroke="#664427" stroke-width="1.1" stroke-linecap="round" stroke-linejoin="round"/>
<path d="M56.9705 95.8L56.7305 100.12" stroke="#664427" stroke-width="1.1" stroke-linecap="round" stroke-linejoin="round"/>
<path d="M77.5391 89.0601C79.0791 90.3934 80.5624 91.7601 81.9891 93.1601" stroke="#664427" stroke-width="1.1" stroke-linecap="round" stroke-linejoin="round"/>
<path d="M86.4297 75.3301C88.1497 76.1001 89.8997 76.8201 91.6597 77.5001" stroke="#664427" stroke-width="1.1" stroke-linecap="round" stroke-linejoin="round"/>
<path d="M87.3594 52.8501C89.3557 52.1261 91.2779 51.2119 93.0994 50.1201" stroke="#664427" stroke-width="1.1" stroke-linecap="round" stroke-linejoin="round"/>
</g>
<defs>
<clipPath id="clip0_92_381">
<rect width="110" height="110" fill="white" transform="translate(0.5)"/>
</clipPath>
</defs>
</svg>
