<svg width="110" height="110" viewBox="0 0 110 110" fill="none" xmlns="http://www.w3.org/2000/svg">
<path d="M37.97 42.5066L40.14 69.1466L31 89.0066L51.42 95.0566L51.29 72.8366L70.31 52.0366L37.97 42.5066Z" stroke="#664427" stroke-width="1.1" stroke-linecap="round" stroke-linejoin="round"/>
<path d="M46.6408 30.4766C47.3839 30.5304 48.0863 30.8362 48.6319 31.3436C49.1774 31.8509 49.5334 32.5294 49.6408 33.2666C49.7072 34.0115 49.5334 34.758 49.1447 35.3969C48.7559 36.0357 48.1728 36.5333 47.4808 36.8166C46.0908 37.3566 44.6508 38.0766 43.6708 36.9566C43.7461 37.3466 43.7341 37.7485 43.6357 38.1333C43.5372 38.5182 43.3547 38.8764 43.1014 39.1824C42.848 39.4883 42.5301 39.7343 42.1703 39.9028C41.8106 40.0712 41.418 40.1579 41.0208 40.1566C40.6031 40.0861 40.2051 39.9279 39.853 39.6925C39.5009 39.4572 39.2026 39.1499 38.9778 38.7909C38.7529 38.4319 38.6067 38.0294 38.5486 37.6098C38.4905 37.1903 38.5219 36.7632 38.6408 36.3566C37.7763 37.0635 36.7422 37.5323 35.6408 37.7166C35.0937 37.7896 34.5392 37.6543 34.0872 37.3376C33.6353 37.0208 33.3189 36.5458 33.2008 36.0066C33.1915 35.6319 33.2526 35.2588 33.3808 34.9066C33.6075 34.0061 34.0464 33.1729 34.6608 32.4766C34.953 32.144 35.3339 31.9015 35.759 31.7775C36.184 31.6535 36.6356 31.6532 37.0608 31.7766C36.2811 32.039 35.4326 32.008 34.6741 31.6896C33.9157 31.3711 33.2994 30.7869 32.9408 30.0466C32.7969 29.6582 32.7349 29.2441 32.7589 28.8305C32.7829 28.417 32.8923 28.0129 33.0802 27.6437C33.2681 27.2745 33.5304 26.9482 33.8506 26.6854C34.1709 26.4225 34.542 26.2289 34.9408 26.1166C35.9364 25.9726 36.9506 26.1889 37.8008 26.7266C38.9054 27.3359 39.8696 28.1706 40.6308 29.1766C39.6308 27.9266 40.2708 26.4766 41.4708 25.3766C42.0866 24.8435 42.8811 24.5627 43.6952 24.5905C44.5093 24.6183 45.2828 24.9527 45.8608 25.5266C46.9408 26.7266 47.8808 29.4766 46.6408 30.4766Z" fill="#FFE9DA" stroke="#664427" stroke-linecap="round" stroke-linejoin="round"/>
<path d="M41.5491 31.0365C41.2284 31.0752 40.9199 31.183 40.6449 31.3527C40.37 31.5223 40.1352 31.7497 39.9568 32.019C39.7784 32.2884 39.6606 32.5932 39.6117 32.9126C39.5627 33.2319 39.5837 33.5581 39.6733 33.8685C39.7628 34.1789 39.9187 34.4661 40.1302 34.7103C40.3417 34.9546 40.6037 35.1499 40.8981 35.2829C41.1926 35.4158 41.5124 35.4832 41.8354 35.4804C42.1585 35.4776 42.4771 35.4046 42.7691 35.2665C43.2273 35.0476 43.6072 34.6934 43.8576 34.2517C44.1079 33.8099 44.2167 33.302 44.1691 32.7965C44.1361 32.4912 44.0386 32.1963 43.8832 31.9314C43.7277 31.6666 43.5178 31.4377 43.2673 31.26C43.0168 31.0823 42.7315 30.9598 42.4301 30.9006C42.1287 30.8414 41.8182 30.8468 41.5191 30.9165" fill="white"/>
<path d="M41.5491 31.0365C41.2284 31.0752 40.9199 31.183 40.6449 31.3527C40.37 31.5223 40.1352 31.7497 39.9568 32.019C39.7784 32.2884 39.6606 32.5932 39.6117 32.9126C39.5627 33.2319 39.5837 33.5581 39.6733 33.8685C39.7628 34.1789 39.9187 34.4661 40.1302 34.7103C40.3417 34.9546 40.6037 35.1499 40.8981 35.2829C41.1926 35.4158 41.5124 35.4832 41.8354 35.4804C42.1585 35.4776 42.4771 35.4046 42.7691 35.2665C43.2273 35.0476 43.6072 34.6934 43.8576 34.2517C44.1079 33.8099 44.2167 33.302 44.1691 32.7965C44.1361 32.4912 44.0386 32.1963 43.8832 31.9314C43.7277 31.6666 43.5178 31.4377 43.2673 31.26C43.0168 31.0823 42.7315 30.9598 42.4301 30.9006C42.1287 30.8414 41.8182 30.8468 41.5191 30.9165" stroke="#664427" stroke-linecap="round" stroke-linejoin="round"/>
<path d="M72.1198 48.0266C72.6529 48.023 73.1722 48.1956 73.5971 48.5174C74.0221 48.8393 74.3288 49.2925 74.4698 49.8066C74.5649 50.2144 74.5649 50.6387 74.4698 51.0466C74.3049 51.7652 73.9227 52.4155 73.3752 52.9093C72.8278 53.4031 72.1415 53.7164 71.4098 53.8066C69.9398 53.9566 68.2198 53.4766 67.6298 52.1366C67.693 52.4971 67.6843 52.8666 67.6043 53.2238C67.5243 53.581 67.3746 53.9189 67.1637 54.2181C66.9527 54.5173 66.6848 54.7718 66.3753 54.9672C66.0657 55.1626 65.7206 55.2949 65.3598 55.3566C64.6262 55.4226 63.8916 55.2422 63.2721 54.8437C62.6527 54.4452 62.1838 53.8515 61.9398 53.1566C61.6724 52.506 61.5981 51.7922 61.7258 51.1006C61.8535 50.4089 62.1777 49.7687 62.6598 49.2566C61.9407 49.4267 61.1867 49.3733 60.4987 49.1034C59.8108 48.8336 59.2215 48.3602 58.8098 47.7466C58.6283 47.4291 58.5134 47.078 58.4722 46.7147C58.431 46.3514 58.4643 45.9834 58.57 45.6334C58.6758 45.2834 58.8518 44.9586 59.0873 44.6789C59.3228 44.3992 59.6129 44.1704 59.9398 44.0066C61.4398 43.4066 63.0398 44.4866 64.2898 45.5066C64.0498 45.9066 63.8598 45.1366 63.7298 44.6866C63.4198 43.819 63.3137 42.8917 63.4198 41.9766C63.4751 41.4602 63.6977 40.9762 64.0537 40.5981C64.4097 40.2201 64.8796 39.9689 65.3916 39.8828C65.9037 39.7967 66.4299 39.8804 66.89 40.1212C67.35 40.362 67.7187 40.7467 67.9398 41.2166C68.464 42.2821 68.6423 43.4848 68.4498 44.6566C68.6068 43.9065 69.0119 43.2312 69.5997 42.7395C70.1875 42.2478 70.9238 41.9685 71.6898 41.9466C72.4611 41.9903 73.1903 42.3124 73.742 42.8531C74.2937 43.3938 74.6305 44.1163 74.6898 44.8866C74.7398 46.4766 73.6598 48.0866 72.1198 48.0266Z" fill="#FFE9DA" stroke="#664427" stroke-linecap="round" stroke-linejoin="round"/>
<path d="M67.4092 45.9166C67.1184 45.9028 66.8282 45.9526 66.5587 46.0626C66.2892 46.1726 66.0469 46.3401 65.8489 46.5534C65.6508 46.7667 65.5017 47.0207 65.4119 47.2976C65.3222 47.5745 65.2939 47.8676 65.3292 48.1566C65.4365 48.7349 65.7283 49.2629 66.161 49.6613C66.5938 50.0598 67.144 50.3072 67.7292 50.3666C68.0721 50.4229 68.4241 50.363 68.7292 50.1966C68.8739 50.1051 69.0023 49.9902 69.1092 49.8566C69.4146 49.4775 69.6032 49.0178 69.652 48.5335C69.7009 48.0492 69.6078 47.5611 69.3842 47.1287C69.1606 46.6963 68.8161 46.3383 68.3926 46.0982C67.9692 45.8582 67.485 45.7464 66.9992 45.7766" fill="white"/>
<path d="M67.4092 45.9166C67.1184 45.9028 66.8282 45.9526 66.5587 46.0626C66.2892 46.1726 66.0469 46.3401 65.8489 46.5534C65.6508 46.7667 65.5017 47.0207 65.4119 47.2976C65.3222 47.5745 65.2939 47.8676 65.3292 48.1566C65.4365 48.7349 65.7283 49.2629 66.161 49.6613C66.5938 50.0598 67.144 50.3072 67.7292 50.3666C68.0721 50.4229 68.4241 50.363 68.7292 50.1966C68.8739 50.1051 69.0023 49.9902 69.1092 49.8566C69.4146 49.4775 69.6032 49.0178 69.652 48.5335C69.7009 48.0492 69.6078 47.5611 69.3842 47.1287C69.1606 46.6963 68.8161 46.3383 68.3926 46.0982C67.9692 45.8582 67.485 45.7464 66.9992 45.7766" stroke="#664427" stroke-linecap="round" stroke-linejoin="round"/>
<path d="M58.6998 24.2066C59.2712 24.644 59.6664 25.2723 59.8132 25.9768C59.96 26.6813 59.8486 27.4151 59.4994 28.0444C59.1503 28.6737 58.5865 29.1564 57.911 29.4047C57.2355 29.6529 56.4933 29.65 55.8198 29.3966C54.775 28.9859 53.8646 28.2936 53.1898 27.3966C52.8998 27.0766 52.1898 26.8566 52.5598 26.5866C52.3811 27.0959 52.0979 27.5623 51.7283 27.9557C51.3587 28.3491 50.9108 28.6608 50.4136 28.8708C49.9163 29.0808 49.3806 29.1845 48.8409 29.1751C48.3012 29.1658 47.7695 29.0437 47.2798 28.8166C46.9956 28.6909 46.7446 28.5008 46.5468 28.2612C46.3489 28.0217 46.2095 27.7394 46.1398 27.4366C46.1109 27.1289 46.1484 26.8186 46.2498 26.5266C46.6451 25.3701 47.3343 24.3363 48.2498 23.5266C46.929 23.3322 45.7055 22.7188 44.7598 21.7766C44.2987 21.2986 43.9921 20.6931 43.8798 20.0386C43.7674 19.3841 43.8545 18.7109 44.1298 18.1066C44.2826 17.7904 44.5357 17.5337 44.8498 17.3766C45.3015 17.2266 45.7927 17.248 46.2298 17.4366C47.5979 17.9167 48.7431 18.8805 49.4498 20.1466C49.0598 18.8766 48.3798 18.3966 48.5198 17.0766C48.5586 16.4164 48.7881 15.7816 49.1803 15.2492C49.5726 14.7167 50.1108 14.3094 50.7298 14.0766C51.2998 13.9439 51.8965 13.9843 52.4434 14.1927C52.9904 14.4012 53.4626 14.7681 53.7998 15.2466C54.1075 15.7187 54.3159 16.2486 54.4122 16.8039C54.5085 17.3593 54.4906 17.9284 54.3598 18.4766C54.7598 17.3566 55.6298 17.3666 56.7698 17.0566C57.3422 16.9008 57.9434 16.883 58.524 17.0046C59.1046 17.1263 59.6481 17.384 60.1098 17.7566C60.477 18.0406 60.7576 18.4216 60.9198 18.8566C61.0843 19.5601 61.0426 20.2961 60.7998 20.9766C60.6709 21.7078 60.3616 22.3952 59.8998 22.9766C59.3798 23.5866 59.2698 24.6966 58.6998 24.2066Z" fill="#FFE9DA" stroke="#664427" stroke-linecap="round" stroke-linejoin="round"/>
<path d="M52.2705 20.4767C51.9505 20.4136 51.6187 20.4532 51.3225 20.5896C51.0262 20.7261 50.7806 20.9525 50.6205 21.2367C50.3599 21.6829 50.2503 22.2012 50.308 22.7147C50.3656 23.2282 50.5874 23.7094 50.9405 24.0867C51.315 24.4492 51.8033 24.6711 52.3227 24.7149C52.8421 24.7586 53.3606 24.6215 53.7905 24.3267C54.203 24.0054 54.4837 23.5443 54.5795 23.0303C54.6753 22.5163 54.5796 21.985 54.3105 21.5367C53.8083 20.8974 53.1026 20.4493 52.3105 20.2667C52.1605 20.2167 51.9405 20.2067 51.9105 20.3667" fill="white"/>
<path d="M52.2705 20.4767C51.9505 20.4136 51.6187 20.4532 51.3225 20.5896C51.0262 20.7261 50.7806 20.9525 50.6205 21.2367C50.3599 21.6829 50.2503 22.2012 50.308 22.7147C50.3656 23.2282 50.5874 23.7094 50.9405 24.0867C51.315 24.4492 51.8033 24.6711 52.3227 24.7149C52.8421 24.7586 53.3606 24.6215 53.7905 24.3267C54.203 24.0054 54.4837 23.5443 54.5795 23.0303C54.6753 22.5163 54.5796 21.985 54.3105 21.5367C53.8083 20.8974 53.1026 20.4493 52.3105 20.2667C52.1605 20.2167 51.9405 20.2067 51.9105 20.3667" stroke="#664427" stroke-linecap="round" stroke-linejoin="round"/>
<path d="M53.0797 41.9267C54.4297 42.7967 55.9497 43.9267 55.9697 45.5467C55.9557 46.1151 55.7639 46.6649 55.4213 47.1187C55.0787 47.5725 54.6025 47.9075 54.0597 48.0767C53.5492 48.2511 53.0011 48.2847 52.4731 48.1738C51.9452 48.0629 51.4569 47.8117 51.0597 47.4467C51.3482 48.0772 51.4892 48.7651 51.4718 49.4582C51.4545 50.1514 51.2794 50.8314 50.9597 51.4467C50.8227 51.7653 50.5834 52.0292 50.2797 52.1967C49.8241 52.3553 49.3241 52.3265 48.8897 52.1167C48.0924 51.8829 47.3735 51.437 46.8097 50.8267C46.2897 50.1767 45.4797 49.4567 45.9297 48.7667C45.1697 50.0967 43.2197 50.1167 41.7997 49.5567C41.5181 49.4634 41.2638 49.3019 41.0597 49.0867C40.8648 48.8233 40.7597 48.5043 40.7597 48.1767C40.6597 46.5167 42.5397 44.8067 44.1297 44.3367C43.6259 44.3337 43.1309 44.2039 42.6905 43.9592C42.2501 43.7145 41.8784 43.3629 41.6097 42.9367C41.3593 42.5 41.2526 41.9956 41.3047 41.4949C41.3567 40.9942 41.5649 40.5226 41.8997 40.1467C42.2456 39.8262 42.6736 39.608 43.1362 39.5162C43.5987 39.4244 44.0776 39.4626 44.5197 39.6267C45.4011 39.9763 46.1258 40.6336 46.5597 41.4767C46.6897 41.0867 46.7597 41.2667 46.8897 40.8867C47.3197 39.5267 47.8897 38.0267 49.1897 37.4367C49.6956 37.2169 50.2579 37.1624 50.7966 37.2809C51.3352 37.3994 51.8227 37.6849 52.1897 38.0967C52.8697 38.8667 53.6497 41.0067 53.0797 41.9267Z" fill="#FFE9DA" stroke="#664427" stroke-linecap="round" stroke-linejoin="round"/>
<path d="M48.1497 42.2966C48.0297 41.9466 47.4997 42.0566 47.2197 42.2966C46.8987 42.5709 46.6524 42.922 46.5038 43.3172C46.3551 43.7124 46.309 44.1388 46.3697 44.5566C46.4423 44.9723 46.6341 45.358 46.9216 45.6669C47.2092 45.9758 47.5802 46.1945 47.9897 46.2966C48.4009 46.381 48.8283 46.329 49.2073 46.1485C49.5862 45.9681 49.896 45.669 50.0897 45.2966C50.2315 44.9591 50.2821 44.5902 50.2365 44.2269C50.1908 43.8636 50.0506 43.5187 49.8297 43.2266C49.3736 42.6517 48.7225 42.2639 47.9997 42.1366" fill="white"/>
<path d="M48.1497 42.2966C48.0297 41.9466 47.4997 42.0566 47.2197 42.2966C46.8987 42.5709 46.6524 42.922 46.5038 43.3172C46.3551 43.7124 46.309 44.1388 46.3697 44.5566C46.4423 44.9723 46.6341 45.358 46.9216 45.6669C47.2092 45.9758 47.5802 46.1945 47.9897 46.2966C48.4009 46.381 48.8283 46.329 49.2073 46.1485C49.5862 45.9681 49.896 45.669 50.0897 45.2966C50.2315 44.9591 50.2821 44.5902 50.2365 44.2269C50.1908 43.8636 50.0506 43.5187 49.8297 43.2266C49.3736 42.6517 48.7225 42.2639 47.9997 42.1366" stroke="#664427" stroke-linecap="round" stroke-linejoin="round"/>
<path d="M70.9408 29.8465C71.1031 30.3712 71.1141 30.931 70.9726 31.4616C70.831 31.9923 70.5428 32.4723 70.1408 32.8465C69.9071 33.0714 69.6223 33.2362 69.3108 33.3265C68.982 33.4047 68.6395 33.4047 68.3108 33.3265C67.4996 33.0839 66.8076 32.5483 66.3696 31.8237C65.9315 31.0991 65.7787 30.2375 65.9408 29.4065C65.5682 29.7185 65.1307 29.9433 64.66 30.0644C64.1894 30.1856 63.6977 30.1999 63.2208 30.1065C62.7473 29.9944 62.3252 29.7264 62.0223 29.3455C61.7195 28.9647 61.5534 28.4931 61.5508 28.0065C61.6164 27.5766 61.7747 27.1662 62.0148 26.8036C62.2548 26.441 62.5707 26.1349 62.9408 25.9065C63.5072 25.4714 64.1171 25.096 64.7608 24.7865C64.2334 24.6909 63.7305 24.4902 63.2822 24.1965C62.8338 23.9027 62.4491 23.5219 62.1508 23.0765C61.858 22.6188 61.7229 22.0778 61.7663 21.5361C61.8096 20.9945 62.0289 20.4819 62.3908 20.0765C62.5503 19.9062 62.7549 19.7848 62.9808 19.7265C63.1918 19.6817 63.4098 19.6817 63.6208 19.7265C64.2727 19.7982 64.8854 20.0736 65.3719 20.5134C65.8584 20.9532 66.1939 21.5351 66.3308 22.1765C66.3628 21.2145 66.668 20.2814 67.2108 19.4865C67.4705 19.0868 67.8514 18.7808 68.2978 18.6134C68.7441 18.446 69.2323 18.4261 69.6908 18.5565C70.074 18.7354 70.4003 19.017 70.6333 19.3701C70.8663 19.7231 70.9969 20.1337 71.0108 20.5565C71.0485 21.3911 70.9298 22.2255 70.6608 23.0165C71.1808 22.3765 71.8708 22.5765 72.6608 22.8165C73.4651 23.0794 74.1653 23.5905 74.6608 24.2765C74.9824 24.6518 75.227 25.0868 75.3808 25.5565C75.4988 26.0302 75.4995 26.5255 75.3828 26.9995C75.266 27.4735 75.0353 27.9118 74.7108 28.2765C74.0478 29.0023 73.1537 29.4759 72.1808 29.6165C71.8108 29.6765 71.2208 30.0965 70.9408 29.8465Z" fill="#FFE9DA" stroke="#664427" stroke-linecap="round" stroke-linejoin="round"/>
<path d="M67.9408 24.2666C67.7898 24.1608 67.6058 24.1126 67.4223 24.131C67.2388 24.1493 67.0679 24.2329 66.9408 24.3666C66.6951 24.6341 66.5168 24.9563 66.4208 25.3066C66.164 25.8411 66.0834 26.4434 66.1908 27.0266C66.2646 27.2324 66.3783 27.4217 66.5254 27.5834C66.6725 27.7452 66.8501 27.8763 67.0481 27.9692C67.246 28.0621 67.4603 28.115 67.6787 28.1249C67.8971 28.1347 68.1154 28.1013 68.3208 28.0266C68.7257 27.8514 69.0698 27.5605 69.3099 27.1905C69.5501 26.8204 69.6756 26.3877 69.6708 25.9466C69.7035 25.6173 69.6538 25.285 69.5264 24.9796C69.399 24.6742 69.1978 24.4051 68.9408 24.1966C68.6637 24.0098 68.329 23.9283 67.997 23.9669C67.6651 24.0054 67.3578 24.1613 67.1308 24.4066" fill="white"/>
<path d="M67.9408 24.2666C67.7898 24.1608 67.6058 24.1126 67.4223 24.131C67.2388 24.1493 67.0679 24.2329 66.9408 24.3666C66.6951 24.6341 66.5168 24.9563 66.4208 25.3066C66.164 25.8411 66.0834 26.4434 66.1908 27.0266C66.2646 27.2324 66.3783 27.4217 66.5254 27.5834C66.6725 27.7452 66.8501 27.8763 67.0481 27.9692C67.246 28.0621 67.4603 28.115 67.6787 28.1249C67.8971 28.1347 68.1154 28.1013 68.3208 28.0266C68.7257 27.8514 69.0698 27.5605 69.3099 27.1905C69.5501 26.8204 69.6756 26.3877 69.6708 25.9466C69.7035 25.6173 69.6538 25.285 69.5264 24.9796C69.399 24.6742 69.1978 24.4051 68.9408 24.1966C68.6637 24.0098 68.329 23.9283 67.997 23.9669C67.6651 24.0054 67.3578 24.1613 67.1308 24.4066" stroke="#664427" stroke-linecap="round" stroke-linejoin="round"/>
<path d="M75.8593 35.0865C76.6045 35.1389 77.3091 35.4455 77.8552 35.9552C78.4013 36.4649 78.7558 37.1467 78.8593 37.8865C78.938 38.6383 78.7698 39.3953 78.3801 40.043C77.9904 40.6907 77.4004 41.1939 76.6993 41.4765C75.3093 42.0165 73.8793 42.7365 72.8893 41.6165C72.9665 42.0067 72.9559 42.4093 72.8582 42.7949C72.7604 43.1805 72.5781 43.5395 72.3244 43.8459C72.0707 44.1523 71.7519 44.3984 71.3913 44.5662C71.0306 44.7341 70.6371 44.8196 70.2393 44.8165C69.8217 44.746 69.4237 44.5878 69.0716 44.3524C68.7194 44.117 68.4211 43.8097 68.1963 43.4508C67.9715 43.0918 67.8252 42.6893 67.7671 42.2697C67.709 41.8501 67.7405 41.423 67.8593 41.0165C66.9984 41.7291 65.9627 42.1986 64.8593 42.3765C64.3145 42.4519 63.7614 42.3186 63.3107 42.0034C62.8601 41.6881 62.5452 41.2141 62.4293 40.6765C62.4139 40.2652 62.489 39.8556 62.6493 39.4765C62.8647 38.5938 63.2863 37.7748 63.8793 37.0865C64.1719 36.7546 64.5533 36.5133 64.9786 36.391C65.4038 36.2688 65.8551 36.2707 66.2793 36.3965C65.487 36.6647 64.6236 36.6314 63.8543 36.3031C63.085 35.9747 62.4637 35.3742 62.1093 34.6165C61.967 34.2286 61.9064 33.8155 61.9312 33.4031C61.956 32.9907 62.0657 32.5879 62.2535 32.2198C62.4413 31.8518 62.703 31.5266 63.0224 31.2644C63.3417 31.0023 63.7118 30.8089 64.1093 30.6965C65.1039 30.5431 66.1203 30.7564 66.9693 31.2965C68.0783 31.9039 69.0435 32.7429 69.7993 33.7565C68.7993 32.4965 69.4393 31.0465 70.6393 29.9465C71.2562 29.4156 72.0502 29.1362 72.8636 29.164C73.677 29.1918 74.4502 29.5247 75.0293 30.0965C76.1093 31.3365 77.1093 34.0465 75.8593 35.0865Z" fill="#FFE9DA" stroke="#664427" stroke-linecap="round" stroke-linejoin="round"/>
<path d="M70.7796 35.6466C70.4588 35.6853 70.1503 35.7932 69.8754 35.9628C69.6005 36.1324 69.3657 36.3598 69.1873 36.6291C69.0089 36.8985 68.8911 37.2034 68.8422 37.5227C68.7932 37.842 68.8142 38.1682 68.9037 38.4786C68.9933 38.789 69.1492 39.0762 69.3607 39.3205C69.5722 39.5647 69.8342 39.76 70.1286 39.893C70.423 40.0259 70.7429 40.0933 71.0659 40.0905C71.389 40.0877 71.7075 40.0147 71.9996 39.8766C72.456 39.6591 72.8343 39.3063 73.083 38.8661C73.3317 38.4259 73.4388 37.9198 73.3896 37.4166C73.3579 37.1104 73.2614 36.8144 73.1065 36.5484C72.9516 36.2823 72.7418 36.0523 72.4912 35.8735C72.2405 35.6948 71.9547 35.5714 71.6527 35.5116C71.3507 35.4518 71.0395 35.4569 70.7396 35.5266" fill="white"/>
<path d="M70.7796 35.6466C70.4588 35.6853 70.1503 35.7932 69.8754 35.9628C69.6005 36.1324 69.3657 36.3598 69.1873 36.6291C69.0089 36.8985 68.8911 37.2034 68.8422 37.5227C68.7932 37.842 68.8142 38.1682 68.9037 38.4786C68.9933 38.789 69.1492 39.0762 69.3607 39.3205C69.5722 39.5647 69.8342 39.76 70.1286 39.893C70.423 40.0259 70.7429 40.0933 71.0659 40.0905C71.389 40.0877 71.7075 40.0147 71.9996 39.8766C72.456 39.6591 72.8343 39.3063 73.083 38.8661C73.3317 38.4259 73.4388 37.9198 73.3896 37.4166C73.3579 37.1104 73.2614 36.8144 73.1065 36.5484C72.9516 36.2823 72.7418 36.0523 72.4912 35.8735C72.2405 35.6948 71.9547 35.5714 71.6527 35.5116C71.3507 35.4518 71.0395 35.4569 70.7396 35.5266" stroke="#664427" stroke-linecap="round" stroke-linejoin="round"/>
<path d="M60.5195 35.6965C61.0525 35.6929 61.5719 35.8655 61.9968 36.1874C62.4217 36.5092 62.7285 36.9624 62.8695 37.4765C62.9644 37.8878 62.9644 38.3152 62.8695 38.7265C62.7021 39.4447 62.3177 40.0939 61.7684 40.586C61.2192 41.078 60.5317 41.3889 59.7995 41.4765C58.3395 41.6265 56.6195 41.1465 56.0295 39.8065C56.0925 40.1678 56.0835 40.538 56.0029 40.8957C55.9223 41.2535 55.7716 41.5918 55.5597 41.8911C55.3478 42.1904 55.0787 42.4448 54.768 42.6397C54.4574 42.8345 54.1112 42.966 53.7495 43.0265C53.0121 43.1008 52.2712 42.924 51.6469 42.5248C51.0225 42.1255 50.5513 41.5271 50.3095 40.8265C50.0421 40.176 49.9678 39.4622 50.0954 38.7705C50.2231 38.0789 50.5474 37.4387 51.0295 36.9265C50.3089 37.1018 49.5518 37.0508 48.8612 36.7807C48.1705 36.5105 47.5799 36.0342 47.1695 35.4165C46.9891 35.0993 46.8748 34.7489 46.8337 34.3863C46.7925 34.0238 46.8252 33.6566 46.9299 33.3071C47.0346 32.9575 47.209 32.6328 47.4427 32.3525C47.6764 32.0723 47.9644 31.8423 48.2895 31.6765C49.7895 31.0865 51.3895 32.1665 52.6295 33.1865C52.3895 33.5865 52.2095 32.8065 52.0695 32.3565C51.7619 31.4918 51.6592 30.5676 51.7695 29.6565C51.8242 29.1995 51.9994 28.7651 52.277 28.3979C52.5546 28.0307 52.9247 27.7438 53.3495 27.5665C53.9251 27.4182 54.5339 27.4677 55.078 27.7071C55.6221 27.9465 56.0699 28.3619 56.3495 28.8865C56.8737 29.952 57.052 31.1547 56.8595 32.3265C57.0151 31.5766 57.4201 30.9016 58.0085 30.4113C58.5968 29.921 59.3338 29.6444 60.0995 29.6265C60.8713 29.6636 61.6027 29.9823 62.1555 30.5222C62.7083 31.0621 63.0441 31.7858 63.0995 32.5565C63.1395 34.1065 62.0595 35.7565 60.5195 35.6965Z" fill="#FFE9DA" stroke="#664427" stroke-linecap="round" stroke-linejoin="round"/>
<path d="M55.8096 33.5865C55.5188 33.5728 55.2286 33.6226 54.9591 33.7326C54.6896 33.8426 54.4473 34.0101 54.2493 34.2234C54.0512 34.4367 53.9021 34.6907 53.8123 34.9676C53.7225 35.2445 53.6943 35.5376 53.7296 35.8265C53.8322 36.407 54.1227 36.9376 54.5563 37.3369C54.9899 37.7362 55.5427 37.982 56.1296 38.0365C56.4714 38.0959 56.8233 38.0396 57.1296 37.8765C57.2746 37.7815 57.403 37.6633 57.5096 37.5265C57.8055 37.147 57.9861 36.6905 58.0298 36.2112C58.0735 35.7319 57.9785 35.2502 57.7562 34.8234C57.5338 34.3966 57.1935 34.0427 56.7756 33.8039C56.3578 33.5652 55.8802 33.4515 55.3996 33.4765" fill="white"/>
<path d="M55.8096 33.5865C55.5188 33.5728 55.2286 33.6226 54.9591 33.7326C54.6896 33.8426 54.4473 34.0101 54.2493 34.2234C54.0512 34.4367 53.9021 34.6907 53.8123 34.9676C53.7225 35.2445 53.6943 35.5376 53.7296 35.8265C53.8322 36.407 54.1227 36.9376 54.5563 37.3369C54.9899 37.7362 55.5427 37.982 56.1296 38.0365C56.4714 38.0959 56.8233 38.0396 57.1296 37.8765C57.2746 37.7815 57.403 37.6633 57.5096 37.5265C57.8055 37.147 57.9861 36.6905 58.0298 36.2112C58.0735 35.7319 57.9785 35.2502 57.7562 34.8234C57.5338 34.3966 57.1935 34.0427 56.7756 33.8039C56.3578 33.5652 55.8802 33.4515 55.3996 33.4765" stroke="#664427" stroke-linecap="round" stroke-linejoin="round"/>
<path d="M37.0998 79.6366C39.2046 78.325 41.0824 76.6803 42.6598 74.7666C44.3298 72.7666 45.5298 71.3666 43.9898 68.9366C42.8429 67.3557 41.3952 66.0168 39.7298 64.9966C38.9311 64.3422 37.9641 63.9263 36.9398 63.7966C36.4304 63.7443 35.9204 63.8894 35.5148 64.202C35.1093 64.5145 34.839 64.9707 34.7598 65.4766C34.7844 65.8142 34.8757 66.1436 35.0285 66.4457C35.1812 66.7478 35.3924 67.0166 35.6498 67.2366C38.0798 69.7066 41.7398 70.3866 45.1598 70.9466C43.1848 68.2964 41.8779 65.2092 41.3498 61.9466C41.1798 60.9466 41.3498 59.4966 42.3998 59.3366C42.6096 59.317 42.8213 59.3416 43.021 59.4088C43.2208 59.476 43.4043 59.5842 43.5598 59.7266C44.3908 60.5958 44.8808 61.7354 44.9398 62.9366C45.3095 65.5397 45.39 68.1758 45.1798 70.7966C47.1959 68.2786 49.4606 65.9703 51.9398 63.9066C52.7398 63.2466 53.8298 62.5766 54.7498 63.0566C55.0489 63.2465 55.2854 63.5206 55.4295 63.8443C55.5736 64.1681 55.6189 64.5272 55.5598 64.8766C55.4094 65.5788 55.0626 66.2239 54.5598 66.7366C52.3398 69.3766 48.8098 70.5266 45.3998 71.0466L52.2798 70.1666C53.3017 69.9446 54.3642 69.9963 55.3598 70.3166C55.8513 70.4921 56.2573 70.8484 56.4952 71.3129C56.733 71.7775 56.7847 72.3152 56.6398 72.8166C56.3298 73.5366 51.1898 73.2266 50.3798 73.1966C48.8198 73.1366 46.7298 73.1966 45.5398 72.0166C45.3423 71.8105 45.1741 71.5784 45.0398 71.3266C44.6672 73.0323 44.6794 74.7996 45.0755 76.5C45.4716 78.2004 46.2417 79.7912 47.3298 81.1566" stroke="#664427" stroke-width="1.1" stroke-linecap="round" stroke-linejoin="round"/>
</svg>
