<svg width="111" height="110" viewBox="0 0 111 110" fill="none" xmlns="http://www.w3.org/2000/svg">
<path d="M85.4394 90.12C86.6595 68.51 92.0294 49.5 95.8395 28.2C78.9194 25.07 63.0495 23.12 46.1695 20C40.6095 42.86 36.0495 57.94 32.4395 81.18C51.0395 83.27 66.8394 87.31 85.4394 90.12Z" fill="white" stroke="#664427" stroke-linecap="round" stroke-linejoin="round"/>
<path d="M81.2201 82.4999C83.5201 67.3999 86.4801 49.9999 87.9501 34.7999C75.5501 32.1999 63.9501 29.1599 51.3001 27.9299C48.4801 42.0299 44.1701 62.2699 41.8301 76.4699C54.9601 77.8399 68.0501 80.8599 81.2201 82.4999Z" fill="#FFE9DA" stroke="#664427" stroke-linecap="round" stroke-linejoin="round"/>
<path d="M74.61 84.0701C69.61 63.0201 67.23 44.5701 64.76 23.0701C47.65 24.9401 31.61 26.6701 14.5 28.5501C15.79 52.0301 18.05 67.4501 21.27 90.7401C39.69 87.3701 55.98 86.7301 74.61 84.0701Z" fill="white" stroke="#664427" stroke-linecap="round" stroke-linejoin="round"/>
<path d="M66.0705 78.37C63.9405 63.25 61.7705 45.73 58.8105 30.75C46.1705 31.78 34.1705 32.21 21.7305 34.65C23.0805 48.97 24.7305 69.65 26.6105 83.87C39.5805 81.37 52.9905 80.54 66.0705 78.37Z" fill="#FFE9DA" stroke="#664427" stroke-linecap="round" stroke-linejoin="round"/>
<path d="M31.3301 57.37C30.289 58.171 29.3752 59.1252 28.6201 60.2C27.8666 61.4767 27.5275 62.9556 27.6492 64.433C27.771 65.9105 28.3478 67.3139 29.3001 68.45C30.2919 69.5489 31.5719 70.3477 32.9948 70.756C34.4176 71.1644 35.9265 71.1657 37.3501 70.76C38.7631 70.3158 40.0424 69.5249 41.0712 68.4594C42.1001 67.3939 42.8457 66.0877 43.2401 64.66C43.4777 63.8768 43.5526 63.0532 43.4601 62.24C43.3127 61.3438 42.9714 60.4906 42.4601 59.74C41.4318 58.1407 39.8965 56.9329 38.1001 56.31C36.1701 55.69 32.9301 56 31.3301 57.37Z" stroke="#664427" stroke-width="0.62" stroke-linecap="round" stroke-linejoin="round"/>
<path d="M27.6298 63.3001C27.5598 62.2001 26.2898 62.3001 25.6298 62.6401C25.3175 62.8713 25.0642 63.1729 24.8905 63.5204C24.7167 63.868 24.6274 64.2516 24.6298 64.6401C24.5751 64.9848 24.595 65.3373 24.6881 65.6737C24.7813 66.0101 24.9455 66.3226 25.1698 66.5901C25.392 66.7983 25.6663 66.9426 25.9638 67.0077C26.2613 67.0729 26.5709 67.0564 26.8598 66.9601C27.4398 66.7601 27.9698 66.5101 27.8598 65.6901" stroke="#664427" stroke-width="0.62" stroke-linecap="round" stroke-linejoin="round"/>
<path d="M42.8103 60.3701C42.5803 59.2901 44.1203 59.0201 44.8703 59.2201C45.5507 59.5189 46.0863 60.0734 46.3614 60.7638C46.6364 61.4543 46.6289 62.2252 46.3403 62.9101C46.182 63.1705 45.9562 63.3833 45.6869 63.5258C45.4175 63.6684 45.1146 63.7355 44.8103 63.7201C44.2003 63.7201 43.6203 63.5901 43.5003 62.7801" stroke="#664427" stroke-width="0.62" stroke-linecap="round" stroke-linejoin="round"/>
<path d="M32.3691 64.9499C33.5226 65.3722 34.7603 65.5128 35.9791 65.3599C36.5877 65.2695 37.1509 64.9851 37.585 64.5492C38.0192 64.1132 38.3012 63.5489 38.3891 62.9399" stroke="#664427" stroke-width="0.62" stroke-linecap="round" stroke-linejoin="round"/>
<path d="M32.8906 62.74C32.8906 62.8883 32.8466 63.0333 32.7642 63.1567C32.6818 63.28 32.5647 63.3761 32.4276 63.4329C32.2906 63.4897 32.1398 63.5045 31.9943 63.4756C31.8488 63.4466 31.7152 63.3752 31.6103 63.2703C31.5054 63.1654 31.434 63.0318 31.405 62.8863C31.3761 62.7408 31.3909 62.59 31.4477 62.453C31.5045 62.3159 31.6006 62.1988 31.7239 62.1164C31.8473 62.034 31.9923 61.99 32.1406 61.99C32.3395 61.99 32.5303 62.069 32.671 62.2097C32.8116 62.3503 32.8906 62.5411 32.8906 62.74Z" fill="#664427"/>
<path d="M37.7305 61.3101C37.7305 61.4584 37.6865 61.6034 37.6041 61.7267C37.5217 61.8501 37.4045 61.9462 37.2675 62.003C37.1304 62.0597 36.9796 62.0746 36.8342 62.0457C36.6887 62.0167 36.555 61.9453 36.4501 61.8404C36.3453 61.7355 36.2738 61.6019 36.2449 61.4564C36.2159 61.3109 36.2308 61.1601 36.2876 61.023C36.3443 60.886 36.4405 60.7689 36.5638 60.6865C36.6871 60.604 36.8321 60.5601 36.9805 60.5601C37.1794 60.5601 37.3701 60.6391 37.5108 60.7797C37.6515 60.9204 37.7305 61.1111 37.7305 61.3101Z" fill="#664427"/>
<path d="M39.9205 56.44L38.9205 53.73C34.9805 55.2433 31.0838 56.8333 27.2305 58.5C27.4505 58.97 27.4405 59.33 27.6705 59.8C27.7047 59.91 27.7752 60.0052 27.8705 60.07C27.9993 60.1192 28.1417 60.1192 28.2705 60.07L33.2705 58.57C35.5402 58.0378 37.7639 57.3256 39.9205 56.44Z" fill="#FFE9DA" stroke="#664427" stroke-width="0.75" stroke-linecap="round" stroke-linejoin="round"/>
<path d="M30.8895 56.8301C30.2474 54.4681 29.3696 52.1766 28.2695 49.9901L34.6495 48.0901C35.3095 50.1901 35.9995 52.2801 36.6995 54.3701" fill="#FFE9DA"/>
<path d="M30.8895 56.8301C30.2474 54.4681 29.3696 52.1766 28.2695 49.9901L34.6495 48.0901C35.3095 50.1901 35.9995 52.2801 36.6995 54.3701" stroke="#664427" stroke-width="0.75" stroke-linecap="round" stroke-linejoin="round"/>
<path d="M30.5098 55.3701C32.4474 54.6021 34.4234 53.9346 36.4298 53.3701L30.5098 55.3701Z" fill="#FFE9DA"/>
<path d="M30.5098 55.3701C32.4474 54.6021 34.4234 53.9346 36.4298 53.3701" stroke="#664427" stroke-width="0.75" stroke-linecap="round" stroke-linejoin="round"/>
<path d="M35.3301 58.1299C36.246 58.9944 37.4258 59.5261 38.6801 59.6399" stroke="#664427" stroke-width="0.62" stroke-linecap="round" stroke-linejoin="round"/>
<path d="M37.6504 57.3C37.7632 57.5439 37.9283 57.7598 38.1339 57.9327C38.3396 58.1055 38.5808 58.2309 38.8404 58.3C39.3572 58.4251 39.8893 58.4756 40.4204 58.4501" stroke="#664427" stroke-width="0.62" stroke-linecap="round" stroke-linejoin="round"/>
<path d="M30.7795 59.3C30.7693 59.8894 30.6005 60.4651 30.2908 60.9667C29.9811 61.4682 29.5419 61.877 29.0195 62.15" stroke="#664427" stroke-width="0.62" stroke-linecap="round" stroke-linejoin="round"/>
<path d="M30.75 83.01C31.026 80.8082 31.5013 78.6359 32.17 76.52C32.8556 74.3984 34.1114 72.5061 35.8 71.05C36.87 70.19 38.61 70.72 39.8 71.43C40.7683 72.1073 41.5771 72.9878 42.17 74.01C43.6529 76.2456 44.973 78.5849 46.12 81.01" stroke="#664427" stroke-width="0.62" stroke-linecap="round" stroke-linejoin="round"/>
<path d="M33.3301 69.0601C33.422 70.5417 33.8276 71.987 34.5201 73.3C35.7643 71.459 37.2322 69.7795 38.8901 68.3C39.3908 69.7764 39.7688 71.2915 40.0201 72.83C38.8301 72.17 37.7401 71.27 36.5201 70.69C35.4094 70.2448 34.3417 69.6992 33.3301 69.0601Z" fill="#FFE9DA" stroke="#664427" stroke-width="0.75" stroke-linecap="round" stroke-linejoin="round"/>
<path d="M55.0796 55.5999C56.2337 55.9678 57.326 56.5072 58.3196 57.1999C59.3745 58.0705 60.1334 59.2469 60.4916 60.5669C60.8498 61.8869 60.7897 63.2855 60.3196 64.5699C59.805 65.8363 58.9456 66.933 57.8391 67.7355C56.7326 68.538 55.4232 69.0142 54.0596 69.1099C52.6987 69.1647 51.3456 68.8787 50.1232 68.278C48.9008 67.6772 47.8478 66.7808 47.0596 65.6699C46.5959 65.0768 46.2559 64.3968 46.0596 63.6699C45.9113 62.8387 45.9489 61.9849 46.1696 61.1699C46.5566 59.4611 47.5077 57.9323 48.8696 56.8299C50.3696 55.6499 53.2596 54.9099 55.0796 55.5999Z" fill="#FFE9DA" stroke="#664427" stroke-width="0.69" stroke-linecap="round" stroke-linejoin="round"/>
<path d="M60.171 59.57C59.891 58.57 61.011 58.24 61.721 58.37C62.0692 58.4684 62.3888 58.6486 62.6532 58.8957C62.9176 59.1427 63.1191 59.4493 63.241 59.79C63.3843 60.0806 63.4654 60.3979 63.4792 60.7216C63.493 61.0453 63.4391 61.3683 63.321 61.67C63.1899 61.9195 62.995 62.1297 62.756 62.279C62.517 62.4284 62.2426 62.5116 61.961 62.52C61.401 62.52 60.861 62.52 60.701 61.74" stroke="#664427" stroke-width="0.57" stroke-linecap="round" stroke-linejoin="round"/>
<path d="M55.4097 60.7499C55.4558 60.8808 55.5398 60.9951 55.651 61.0781C55.7622 61.1612 55.8956 61.2094 56.0342 61.2165C56.1728 61.2236 56.3104 61.1893 56.4295 61.118C56.5486 61.0467 56.6438 60.9416 56.703 60.8161C56.7623 60.6906 56.7829 60.5503 56.7622 60.4131C56.7415 60.2758 56.6805 60.1478 56.5869 60.0453C56.4933 59.9428 56.3713 59.8705 56.2365 59.8375C56.1017 59.8045 55.9601 59.8123 55.8297 59.8599C55.7433 59.8901 55.6636 59.9372 55.5956 59.9985C55.5275 60.0598 55.4723 60.134 55.4332 60.2169C55.3941 60.2997 55.3719 60.3895 55.3679 60.481C55.3638 60.5725 55.3781 60.6639 55.4097 60.7499Z" fill="#664427"/>
<path d="M50.7605 61.0301C50.8082 61.1577 50.8927 61.2683 51.0031 61.348C51.1136 61.4277 51.2452 61.4729 51.3813 61.4779C51.5175 61.4829 51.652 61.4476 51.7681 61.3762C51.8842 61.3049 51.9765 61.2008 52.0335 61.0771C52.0905 60.9534 52.1096 60.8155 52.0884 60.681C52.0672 60.5464 52.0066 60.4211 51.9143 60.3209C51.822 60.2207 51.7022 60.1501 51.5698 60.1179C51.4374 60.0857 51.2985 60.0935 51.1705 60.1401C51.0849 60.1713 51.0064 60.2191 50.9394 60.2809C50.8723 60.3426 50.8182 60.4169 50.7801 60.4997C50.742 60.5824 50.7206 60.6719 50.7173 60.7629C50.7139 60.854 50.7286 60.9448 50.7605 61.0301Z" fill="#664427"/>
<path d="M51.1699 62.58C51.4135 62.984 51.7467 63.3267 52.1438 63.5816C52.5408 63.8365 52.9911 63.9967 53.4599 64.05C53.8922 64.0356 54.3063 63.8725 54.6324 63.5883C54.9584 63.3042 55.1765 62.9162 55.2499 62.49" stroke="#664427" stroke-width="0.57" stroke-linecap="round" stroke-linejoin="round"/>
<path d="M50.9998 60.47C50.85 60.1871 50.6205 59.9542 50.3398 59.8C50.3498 60.12 50.8898 60.16 50.9998 60.47Z" stroke="#664427" stroke-width="0.57" stroke-linecap="round" stroke-linejoin="round"/>
<path d="M56.4297 60.0401C56.5837 59.8493 56.7699 59.6869 56.9797 59.5601" stroke="#664427" stroke-width="0.57" stroke-linecap="round" stroke-linejoin="round"/>
<path d="M62.9997 78.3699C62.1632 76.5029 61.1591 74.7156 59.9997 73.03C58.8208 71.3392 57.1978 70.0068 55.3097 69.1799C54.1397 68.7199 52.7497 69.6499 51.9097 70.5899C51.2401 71.451 50.7658 72.4473 50.5197 73.5099C49.8151 75.885 49.2837 78.308 48.9297 80.7599" stroke="#664427" stroke-width="0.57" stroke-linecap="round" stroke-linejoin="round"/>
<path d="M49.8203 76.4399C50.0196 75.9223 50.3504 75.4656 50.78 75.1149C51.2096 74.7642 51.7233 74.5315 52.2703 74.4399C52.9693 74.373 53.6674 74.577 54.2203 75.0099C54.7708 75.4354 55.2648 75.9294 55.6903 76.4799C55.837 75.693 56.1286 74.9402 56.5503 74.2599C57.0107 73.6104 57.7005 73.16 58.4803 72.9999C59.1903 72.8499 60.0603 73.6199 60.7103 74.3099" fill="#FFE9DA"/>
<path d="M49.8203 76.4399C50.0196 75.9223 50.3504 75.4656 50.78 75.1149C51.2096 74.7642 51.7233 74.5315 52.2703 74.4399C52.9693 74.373 53.6674 74.577 54.2203 75.0099C54.7708 75.4354 55.2648 75.9294 55.6903 76.4799C55.837 75.693 56.1286 74.9402 56.5503 74.2599C57.0107 73.6104 57.7005 73.16 58.4803 72.9999C59.1903 72.8499 60.0603 73.6199 60.7103 74.3099" stroke="#664427" stroke-width="0.69" stroke-linecap="round" stroke-linejoin="round"/>
<path d="M51.9609 55.9199C52.4842 56.6401 53.1538 57.2413 53.9259 57.6843C54.6981 58.1272 55.5552 58.4018 56.4409 58.4899C56.8298 58.585 57.235 58.5931 57.6273 58.5136C58.0197 58.4341 58.3897 58.2689 58.7109 58.0299" fill="#FFE9DA"/>
<path d="M51.9609 55.9199C52.4842 56.6401 53.1538 57.2413 53.9259 57.6843C54.6981 58.1272 55.5552 58.4018 56.4409 58.4899C56.8298 58.585 57.235 58.5931 57.6273 58.5136C58.0197 58.4341 58.3897 58.2689 58.7109 58.0299" stroke="#664427" stroke-width="0.69" stroke-linecap="round" stroke-linejoin="round"/>
<path d="M50.1099 54.71C49.6331 54.1695 49.3365 53.4939 49.2612 52.7771C49.1859 52.0604 49.3356 51.3379 49.6897 50.7101C50.0437 50.0823 50.5844 49.5803 51.2368 49.2739C51.8891 48.9674 52.6207 48.8717 53.3299 49C54.1525 49.1905 54.8904 49.6441 55.4318 50.292C55.9733 50.9399 56.2886 51.7467 56.3299 52.59C56.366 52.9913 56.308 53.3956 56.1604 53.7706C56.0129 54.1455 55.7798 54.4809 55.4799 54.75" stroke="#664427" stroke-width="0.69" stroke-linecap="round" stroke-linejoin="round"/>
<path d="M48.2406 55.81C48.0749 55.8312 47.9064 55.8106 47.7506 55.75C47.6737 55.7157 47.6104 55.6568 47.5705 55.5826C47.5307 55.5084 47.5167 55.423 47.5306 55.34C47.5533 55.2725 47.5912 55.2112 47.6415 55.1609C47.6919 55.1106 47.7532 55.0726 47.8206 55.05C48.2599 54.8078 48.7606 54.7 49.2606 54.74C48.9069 54.456 48.6401 54.0783 48.4906 53.65C48.4228 53.4455 48.4228 53.2245 48.4906 53.02C48.5163 52.9156 48.5749 52.8223 48.6577 52.7538C48.7406 52.6854 48.8433 52.6455 48.9506 52.64C49.1445 52.6779 49.3163 52.7889 49.4306 52.95C49.7675 53.3379 50.0625 53.7602 50.3106 54.21C50.2761 53.7257 50.3951 53.2428 50.6506 52.83C50.9406 52.45 51.6506 52.34 51.8706 52.75C51.9416 52.8951 51.9707 53.057 51.9548 53.2178C51.9389 53.3785 51.8786 53.5316 51.7806 53.66C51.6006 53.93 51.3406 54.14 51.1606 54.4C51.7021 54.5521 52.162 54.9114 52.4406 55.4C52.4993 55.4927 52.5304 55.6002 52.5304 55.71C52.5304 55.8197 52.4993 55.9272 52.4406 56.02C52.384 56.0888 52.307 56.1378 52.2206 56.16C51.9304 56.2214 51.6283 56.1942 51.3537 56.0819C51.0791 55.9695 50.8446 55.7773 50.6806 55.53C50.6899 55.9105 50.5904 56.2858 50.3937 56.6117C50.1971 56.9377 49.9116 57.2007 49.5706 57.37C49.5399 57.3866 49.5056 57.3953 49.4706 57.3953C49.4357 57.3953 49.4013 57.3866 49.3706 57.37C49.3177 57.3318 49.2818 57.2743 49.2706 57.21C49.2168 56.946 49.2168 56.6739 49.2706 56.41C49.2706 56.21 49.5006 55.91 49.4606 55.7C49.3406 55.37 48.5806 55.77 48.2406 55.81Z" fill="#FFE9DA" stroke="#664427" stroke-width="0.69" stroke-linecap="round" stroke-linejoin="round"/>
<path d="M53.5405 54.5201C53.3849 54.4587 53.2497 54.3547 53.1505 54.2201C53.0986 54.1547 53.0703 54.0736 53.0703 53.9901C53.0703 53.9066 53.0986 53.8255 53.1505 53.7601C53.2648 53.6735 53.408 53.6342 53.5505 53.6501C54.049 53.6799 54.5298 53.8459 54.9405 54.1301C54.7878 53.7039 54.7533 53.2443 54.8405 52.8001C54.8776 52.5902 54.9749 52.3957 55.1205 52.2401C55.1968 52.1614 55.2969 52.1099 55.4053 52.0937C55.5137 52.0774 55.6244 52.0972 55.7205 52.1501C55.865 52.2826 55.9542 52.4647 55.9705 52.6601C56.0618 53.1647 56.0986 53.6776 56.0805 54.1901C56.2977 53.7579 56.6483 53.4073 57.0805 53.1901C57.5305 53.0201 58.1705 53.2701 58.1805 53.7501C58.1645 53.9105 58.1047 54.0633 58.0077 54.1921C57.9107 54.3208 57.7802 54.4204 57.6305 54.4801C57.3405 54.6201 57.0105 54.6701 56.7205 54.8001C57.1073 55.21 57.3159 55.7566 57.3005 56.3201C57.3093 56.4298 57.2868 56.5398 57.2354 56.6372C57.1841 56.7346 57.106 56.8154 57.0105 56.8701C56.925 56.8901 56.836 56.8901 56.7505 56.8701C56.4704 56.77 56.226 56.5895 56.0481 56.3511C55.8702 56.1127 55.7667 55.8271 55.7505 55.5301C55.5692 55.8678 55.2947 56.1463 54.9596 56.3325C54.6245 56.5186 54.243 56.6046 53.8605 56.5801C53.8243 56.5791 53.7887 56.5706 53.756 56.5551C53.7233 56.5396 53.6941 56.5175 53.6705 56.4901C53.6455 56.4292 53.6455 56.3609 53.6705 56.3001C53.7541 56.0446 53.8903 55.8095 54.0705 55.6101C54.2005 55.4501 54.5205 55.2901 54.5905 55.0901C54.7305 54.6801 53.8505 54.6701 53.5405 54.5201Z" fill="#FFE9DA" stroke="#664427" stroke-width="0.69" stroke-linecap="round" stroke-linejoin="round"/>
<path d="M50.4201 54.45C50.2645 54.3886 50.1293 54.2847 50.0301 54.15C49.9814 54.0832 49.9551 54.0027 49.9551 53.92C49.9551 53.8373 49.9814 53.7568 50.0301 53.69C50.148 53.6028 50.2945 53.5635 50.4401 53.58C50.9399 53.6035 51.4224 53.7701 51.8301 54.06C51.6723 53.6349 51.6377 53.1739 51.7301 52.73C51.759 52.5146 51.8573 52.3145 52.0101 52.16C52.0869 52.0852 52.1857 52.037 52.2919 52.0226C52.3981 52.0082 52.5062 52.0283 52.6001 52.08C52.7508 52.2089 52.8443 52.3923 52.8601 52.59C52.9468 53.0952 52.9836 53.6076 52.9701 54.12C53.1873 53.6878 53.538 53.3372 53.9701 53.12C54.4201 52.94 55.0501 53.2 55.0601 53.68C55.0463 53.8411 54.9874 53.995 54.8901 54.1241C54.7928 54.2532 54.6611 54.3523 54.5101 54.41C54.2201 54.55 53.9001 54.6 53.6001 54.73C53.9784 55.1366 54.1829 55.6748 54.1701 56.23C54.1774 56.3409 54.1542 56.4517 54.1031 56.5504C54.052 56.6491 53.9749 56.7319 53.8801 56.79C53.7953 56.815 53.705 56.815 53.6201 56.79C53.3393 56.6941 53.0938 56.516 52.9155 56.2788C52.7372 56.0417 52.6343 55.7564 52.6201 55.46C52.432 55.7884 52.1545 56.0568 51.82 56.2338C51.4854 56.4108 51.1075 56.4892 50.7301 56.46C50.6939 56.459 50.6583 56.4506 50.6256 56.4351C50.5929 56.4196 50.5638 56.3974 50.5401 56.37C50.5252 56.3406 50.5174 56.308 50.5174 56.275C50.5174 56.242 50.5252 56.2094 50.5401 56.18C50.624 55.9238 50.7564 55.6861 50.9301 55.48C51.0701 55.33 51.3901 55.17 51.4501 54.97C51.6101 54.6 50.7301 54.6 50.4201 54.45Z" fill="#FFE9DA" stroke="#664427" stroke-width="0.69" stroke-linecap="round" stroke-linejoin="round"/>
</svg>
