<svg width="304" height="145" viewBox="0 0 304 145" fill="none" xmlns="http://www.w3.org/2000/svg">
<path d="M135.863 4.456C135.863 3.468 135.629 2.792 135.161 2.428C134.693 2.012 133.991 1.804 133.055 1.804C131.391 1.804 129.493 2.428 127.361 3.676C125.281 4.924 123.149 6.536 120.965 8.512C118.781 10.488 116.649 12.724 114.569 15.22C112.489 17.716 110.695 20.212 109.187 22.708C110.279 22.344 111.683 21.876 113.399 21.304C115.167 20.732 117.039 20.056 119.015 19.276C120.991 18.496 122.967 17.612 124.943 16.624C126.971 15.584 128.791 14.44 130.403 13.192C132.015 11.944 133.315 10.592 134.303 9.136C135.343 7.68 135.863 6.12 135.863 4.456ZM51.8569 21.616C53.5209 21.616 55.1589 21.876 56.7709 22.396C58.4349 22.916 59.9169 23.67 61.2169 24.658C62.5689 25.594 63.6349 26.79 64.4149 28.246C65.2469 29.65 65.6629 31.262 65.6629 33.082C65.6629 35.11 65.1689 36.956 64.1809 38.62C63.1929 40.232 61.8929 41.636 60.2809 42.832C58.6689 43.976 56.8749 44.86 54.8989 45.484C52.9229 46.108 50.9729 46.42 49.0489 46.42C48.0089 46.42 46.9949 46.342 46.0069 46.186C45.0189 46.03 44.1349 45.848 43.3549 45.64C42.5749 45.432 41.9249 45.224 41.4049 45.016C40.9369 44.808 40.7029 44.626 40.7029 44.47C40.7029 44.106 40.8849 43.924 41.2489 43.924C41.3009 43.924 41.5349 44.002 41.9509 44.158C42.3669 44.314 42.9129 44.496 43.5889 44.704C44.2649 44.912 45.0189 45.094 45.8509 45.25C46.7349 45.406 47.6709 45.484 48.6589 45.484C50.4269 45.484 52.2469 45.224 54.1189 44.704C55.9909 44.184 57.6809 43.404 59.1889 42.364C60.6969 41.324 61.9449 40.05 62.9329 38.542C63.9209 36.982 64.4149 35.188 64.4149 33.16C64.4149 31.912 64.1029 30.742 63.4789 29.65C62.9069 28.558 62.0749 27.622 60.9829 26.842C59.8909 26.062 58.5909 25.438 57.0829 24.97C55.5749 24.502 53.8849 24.268 52.0129 24.268C49.5169 24.268 47.0729 24.684 44.6809 25.516C42.3409 26.348 40.2349 27.518 38.3629 29.026C36.4909 30.534 34.9829 32.38 33.8389 34.564C32.6949 36.696 32.1229 39.088 32.1229 41.74C32.1229 43.508 32.5649 45.172 33.4489 46.732C34.3329 48.24 35.5549 49.592 37.1149 50.788C38.7269 51.932 40.6509 52.842 42.8869 53.518C45.1749 54.194 47.6969 54.532 50.4529 54.532C53.6769 54.532 56.7449 53.986 59.6569 52.894C62.6209 51.75 65.3509 50.242 67.8469 48.37C70.3949 46.498 72.6829 44.314 74.7109 41.818C76.7389 39.322 78.4549 36.696 79.8589 33.94C78.9229 34.304 77.8829 34.798 76.7389 35.422C75.6469 36.046 74.5809 36.67 73.5409 37.294C72.5529 37.918 71.6949 38.464 70.9669 38.932C70.2909 39.348 69.9269 39.556 69.8749 39.556C69.4589 39.556 69.2509 39.426 69.2509 39.166C69.2509 38.958 69.6149 38.594 70.3429 38.074C71.1229 37.554 72.0849 36.982 73.2289 36.358C74.3729 35.682 75.6209 34.98 76.9729 34.252C78.3769 33.524 79.7029 32.848 80.9509 32.224C81.7829 30.82 82.8489 29.104 84.1489 27.076C85.4489 24.996 86.8529 22.864 88.3609 20.68C89.9209 18.444 91.5589 16.286 93.2749 14.206C94.9909 12.126 96.7069 10.384 98.4229 8.98L98.2669 8.824C97.2789 9.396 96.2129 10.02 95.0689 10.696C93.9769 11.372 92.8329 11.996 91.6369 12.568C90.4929 13.14 89.2969 13.634 88.0489 14.05C86.8529 14.414 85.6569 14.596 84.4609 14.596C80.8729 14.596 79.0789 12.75 79.0789 9.058C79.0789 7.55 79.1569 6.38 79.3129 5.548C79.4689 4.716 79.5469 4.04 79.5469 3.52C79.5469 2.376 79.1569 1.804 78.3769 1.804C78.1169 1.804 77.6749 1.934 77.0509 2.194C76.4789 2.402 75.7249 2.818 74.7889 3.442C73.8529 4.014 72.7609 4.82 71.5129 5.86C70.2649 6.848 68.8609 8.148 67.3009 9.76C64.6489 12.568 62.7509 14.856 61.6069 16.624C60.5149 18.392 59.8389 19.276 59.5789 19.276C59.2669 19.276 59.1109 19.12 59.1109 18.808C59.1109 18.756 59.3449 18.392 59.8129 17.716C60.2809 16.988 60.8789 16.13 61.6069 15.142C62.3869 14.102 63.2709 12.984 64.2589 11.788C65.2989 10.54 66.3649 9.37 67.4569 8.278C69.6929 5.99 71.8509 4.144 73.9309 2.74C76.0109 1.284 78.1169 0.555999 80.2489 0.555999C81.8609 0.555999 82.9529 1.102 83.5249 2.194C84.0969 3.234 84.3829 4.378 84.3829 5.626C84.3829 6.51 84.3309 7.316 84.2269 8.044C84.1229 8.772 84.0709 9.682 84.0709 10.774C84.0709 11.918 84.2009 12.646 84.4609 12.958C84.7209 13.218 85.2149 13.348 85.9429 13.348C86.9309 13.348 88.0229 13.14 89.2189 12.724C90.4149 12.308 91.6369 11.762 92.8849 11.086C94.1849 10.41 95.4849 9.656 96.7849 8.824C98.1369 7.992 99.4629 7.16 100.763 6.328C101.543 5.808 102.349 5.21 103.181 4.534C104.013 3.806 104.845 3.13 105.677 2.506C106.509 1.83 107.289 1.258 108.017 0.789996C108.797 0.321996 109.499 0.0879956 110.123 0.0879956C110.955 0.0879956 111.371 0.399996 111.371 1.024C111.371 1.596 111.033 2.064 110.357 2.428C109.733 2.74 108.901 3.104 107.861 3.52C106.873 3.936 105.729 4.482 104.429 5.158C103.181 5.834 101.959 6.77 100.763 7.966C99.6189 9.11 98.4749 10.618 97.3309 12.49C96.1869 14.362 95.0429 16.364 93.8989 18.496C92.7549 20.576 91.6109 22.682 90.4669 24.814C89.3749 26.894 88.3349 28.74 87.3469 30.352C87.8669 30.04 88.8549 29.624 90.3109 29.104C91.7669 28.532 93.3269 27.96 94.9909 27.388C96.6549 26.764 98.2409 26.192 99.7489 25.672C101.257 25.1 102.375 24.684 103.103 24.424C103.987 23.228 105.105 21.824 106.457 20.212C107.861 18.548 109.421 16.832 111.137 15.064C112.853 13.296 114.673 11.554 116.597 9.838C118.521 8.122 120.471 6.588 122.447 5.236C124.423 3.832 126.373 2.714 128.297 1.882C130.221 0.997998 132.041 0.555999 133.757 0.555999C135.005 0.555999 136.045 0.841998 136.877 1.414C137.761 1.986 138.203 2.948 138.203 4.3C138.203 5.964 137.657 7.55 136.565 9.058C135.473 10.566 134.043 11.996 132.275 13.348C130.507 14.648 128.505 15.896 126.269 17.092C124.085 18.236 121.875 19.276 119.639 20.212C117.455 21.148 115.349 21.98 113.321 22.708C111.293 23.384 109.603 23.93 108.251 24.346C107.523 25.49 106.561 27.128 105.365 29.26C104.221 31.34 103.077 33.628 101.933 36.124C100.841 38.62 99.8789 41.194 99.0469 43.846C98.2149 46.498 97.7989 48.942 97.7989 51.178C97.7989 51.958 97.9549 52.582 98.2669 53.05C98.5789 53.518 98.9949 53.752 99.5149 53.752C100.711 53.752 102.037 53.31 103.493 52.426C104.949 51.49 106.665 50.086 108.641 48.214C110.201 46.706 111.293 45.536 111.917 44.704C112.593 43.872 113.035 43.456 113.243 43.456C113.503 43.456 113.633 43.586 113.633 43.846C113.633 44.002 113.061 44.704 111.917 45.952C110.825 47.2 109.499 48.552 107.939 50.008C106.535 51.308 105.079 52.478 103.571 53.518C102.063 54.506 100.711 55 99.5149 55C98.0069 55 96.7589 54.454 95.7709 53.362C94.8349 52.27 94.3669 50.32 94.3669 47.512C94.3669 45.224 94.6009 43.066 95.0689 41.038C95.5369 38.958 96.1349 37.034 96.8629 35.266C97.5909 33.446 98.3969 31.808 99.2809 30.352C100.165 28.844 101.023 27.492 101.855 26.296L101.699 26.14C100.763 26.452 99.5929 26.842 98.1889 27.31C96.7849 27.778 95.3549 28.272 93.8989 28.792C92.4429 29.312 91.0389 29.858 89.6869 30.43C88.3349 30.95 87.2689 31.444 86.4889 31.912C84.6169 35.24 82.4589 38.334 80.0149 41.194C77.6229 44.054 74.9189 46.55 71.9029 48.682C68.8869 50.762 65.5849 52.426 61.9969 53.674C58.4089 54.87 54.5349 55.468 50.3749 55.468C47.4629 55.468 44.7849 55.13 42.3409 54.454C39.9489 53.726 37.8689 52.712 36.1009 51.412C34.3849 50.112 33.0329 48.552 32.0449 46.732C31.0569 44.86 30.5629 42.806 30.5629 40.57C30.5629 37.658 31.1349 35.032 32.2789 32.692C33.4749 30.352 35.0609 28.376 37.0369 26.764C39.0129 25.1 41.2749 23.826 43.8229 22.942C46.4229 22.058 49.1009 21.616 51.8569 21.616ZM141.141 33.706C140.777 34.122 140.231 34.85 139.503 35.89C138.827 36.878 138.073 38.022 137.241 39.322C136.409 40.57 135.551 41.896 134.667 43.3C133.835 44.704 133.055 46.056 132.327 47.356C131.599 48.656 131.001 49.8 130.533 50.788C130.117 51.776 129.909 52.504 129.909 52.972C129.909 53.7 130.351 54.064 131.235 54.064C132.431 54.064 133.991 53.18 135.915 51.412C137.891 49.592 140.023 47.356 142.311 44.704C142.779 44.132 143.065 43.794 143.169 43.69C143.273 43.534 143.377 43.456 143.481 43.456C143.637 43.456 143.741 43.508 143.793 43.612C143.897 43.716 143.949 43.82 143.949 43.924C143.949 43.976 143.793 44.184 143.481 44.548C143.221 44.86 142.883 45.25 142.467 45.718C142.051 46.186 141.583 46.706 141.063 47.278C140.595 47.85 140.127 48.37 139.659 48.838C137.839 50.71 136.201 52.218 134.745 53.362C133.289 54.454 132.041 55 131.001 55C129.961 55 129.129 54.636 128.505 53.908C127.881 53.18 127.569 51.75 127.569 49.618C127.569 49.358 127.569 49.124 127.569 48.916C127.621 48.656 127.647 48.422 127.647 48.214C127.075 48.786 126.373 49.462 125.541 50.242C124.761 51.022 123.929 51.776 123.045 52.504C122.161 53.18 121.277 53.778 120.393 54.298C119.509 54.766 118.703 55 117.975 55C116.987 55 116.155 54.792 115.479 54.376C114.855 53.96 114.361 53.44 113.997 52.816C113.633 52.14 113.373 51.386 113.217 50.554C113.113 49.67 113.061 48.786 113.061 47.902C113.061 47.278 113.087 46.68 113.139 46.108C113.243 45.484 113.347 44.86 113.451 44.236C113.347 44.236 113.269 44.288 113.217 44.392C113.165 44.444 113.087 44.47 112.983 44.47C112.775 44.47 112.671 44.34 112.671 44.08C112.671 43.924 112.749 43.768 112.905 43.612C113.061 43.456 113.399 43.066 113.919 42.442C114.959 41.142 116.129 39.946 117.429 38.854C118.729 37.762 120.055 36.8 121.407 35.968C122.811 35.136 124.215 34.486 125.619 34.018C127.075 33.55 128.479 33.316 129.831 33.316C131.027 33.316 131.885 33.706 132.405 34.486C132.925 35.214 133.185 36.098 133.185 37.138C133.185 38.074 133.107 38.776 132.951 39.244L133.107 39.4C133.783 38.308 134.303 37.398 134.667 36.67C135.083 35.942 135.421 35.396 135.681 35.032C135.941 34.616 136.175 34.33 136.383 34.174C136.643 33.966 136.981 33.862 137.397 33.862L141.141 33.706ZM116.181 51.568C116.181 52.296 116.311 52.894 116.571 53.362C116.883 53.83 117.351 54.064 117.975 54.064C119.119 54.064 120.497 53.466 122.109 52.27C123.721 51.022 125.281 49.514 126.789 47.746C128.297 45.978 129.571 44.132 130.611 42.208C131.703 40.232 132.249 38.516 132.249 37.06C132.249 36.28 132.041 35.63 131.625 35.11C131.261 34.538 130.663 34.252 129.831 34.252C128.271 34.252 126.659 34.902 124.995 36.202C123.383 37.45 121.927 38.984 120.627 40.804C119.327 42.624 118.261 44.522 117.429 46.498C116.597 48.474 116.181 50.164 116.181 51.568ZM158.353 55C158.613 54.532 159.055 53.778 159.679 52.738C160.355 51.698 161.109 50.528 161.941 49.228C162.773 47.928 163.631 46.576 164.515 45.172C165.399 43.716 166.205 42.364 166.933 41.116C167.713 39.816 168.337 38.672 168.805 37.684C169.273 36.644 169.507 35.89 169.507 35.422C169.507 34.694 169.169 34.304 168.493 34.252C167.921 34.2 167.115 34.59 166.075 35.422C165.087 36.202 163.943 37.268 162.643 38.62C161.395 39.92 160.095 41.376 158.743 42.988C157.391 44.6 156.117 46.186 154.921 47.746C153.725 49.254 152.659 50.632 151.723 51.88C150.787 53.076 150.137 53.96 149.773 54.532L144.703 55C148.499 48.968 151.437 44.34 153.517 41.116C155.597 37.892 156.637 35.968 156.637 35.344C156.637 34.616 156.247 34.252 155.467 34.252C154.375 34.252 153.179 34.772 151.879 35.812C150.631 36.8 149.357 37.97 148.057 39.322C146.237 41.298 145.015 42.676 144.391 43.456C143.819 44.184 143.455 44.548 143.299 44.548C143.143 44.548 143.039 44.496 142.987 44.392C142.935 44.288 142.909 44.184 142.909 44.08C142.909 43.976 143.299 43.482 144.079 42.598C144.911 41.662 146.055 40.362 147.511 38.698C149.331 36.67 150.891 35.266 152.191 34.486C153.491 33.706 154.609 33.316 155.545 33.316C157.625 33.316 158.665 34.304 158.665 36.28C158.665 37.164 158.509 38.074 158.197 39.01C157.885 39.946 157.495 40.882 157.027 41.818C156.559 42.702 156.065 43.586 155.545 44.47C155.025 45.354 154.583 46.134 154.219 46.81L154.375 46.966C155.051 46.238 155.987 45.12 157.183 43.612C158.431 42.104 159.731 40.596 161.083 39.088C162.487 37.528 163.865 36.176 165.217 35.032C166.621 33.888 167.843 33.316 168.883 33.316C169.767 33.316 170.417 33.602 170.833 34.174C171.301 34.694 171.535 35.578 171.535 36.826C171.535 37.71 171.405 38.594 171.145 39.478C170.885 40.362 170.547 41.246 170.131 42.13C169.767 42.962 169.351 43.768 168.883 44.548C168.467 45.328 168.077 46.03 167.713 46.654L167.869 46.81C168.545 46.03 169.481 44.886 170.677 43.378C171.925 41.87 173.251 40.388 174.655 38.932C176.111 37.424 177.541 36.124 178.945 35.032C180.401 33.888 181.675 33.316 182.767 33.316C183.495 33.316 184.119 33.628 184.639 34.252C185.211 34.876 185.497 35.89 185.497 37.294C185.497 38.542 185.107 39.842 184.327 41.194C183.547 42.546 182.663 43.898 181.675 45.25C180.687 46.55 179.777 47.824 178.945 49.072C178.113 50.268 177.645 51.36 177.541 52.348C177.489 52.764 177.567 53.154 177.775 53.518C178.035 53.882 178.373 54.064 178.789 54.064C179.517 54.064 180.505 53.622 181.753 52.738C183.053 51.802 184.431 50.58 185.887 49.072C187.187 47.668 188.175 46.602 188.851 45.874C189.527 45.094 190.021 44.548 190.333 44.236C190.645 43.872 190.827 43.664 190.879 43.612C190.983 43.508 191.087 43.456 191.191 43.456C191.451 43.456 191.581 43.586 191.581 43.846C191.581 43.95 191.425 44.184 191.113 44.548C190.853 44.86 190.515 45.25 190.099 45.718C189.683 46.186 189.215 46.706 188.695 47.278C188.175 47.85 187.655 48.396 187.135 48.916C185.159 50.944 183.495 52.478 182.143 53.518C180.843 54.506 179.647 55 178.555 55C177.359 55 176.501 54.558 175.981 53.674C175.461 52.738 175.201 51.516 175.201 50.008C175.201 48.396 175.617 46.836 176.449 45.328C177.333 43.82 178.295 42.416 179.335 41.116C180.375 39.816 181.311 38.646 182.143 37.606C183.027 36.566 183.469 35.682 183.469 34.954C183.469 34.798 183.391 34.642 183.235 34.486C183.131 34.33 182.871 34.252 182.455 34.252C181.727 34.252 180.791 34.694 179.647 35.578C178.503 36.41 177.281 37.502 175.981 38.854C174.681 40.154 173.355 41.61 172.003 43.222C170.651 44.782 169.377 46.316 168.181 47.824C167.037 49.332 166.023 50.71 165.139 51.958C164.255 53.154 163.631 54.012 163.267 54.532L158.353 55ZM219.141 33.706C218.777 34.122 218.231 34.85 217.503 35.89C216.827 36.878 216.073 38.022 215.241 39.322C214.409 40.57 213.551 41.896 212.667 43.3C211.835 44.704 211.055 46.056 210.327 47.356C209.599 48.656 209.001 49.8 208.533 50.788C208.117 51.776 207.909 52.504 207.909 52.972C207.909 53.7 208.351 54.064 209.235 54.064C210.431 54.064 211.991 53.18 213.915 51.412C215.891 49.592 218.023 47.356 220.311 44.704C220.779 44.132 221.065 43.794 221.169 43.69C221.273 43.534 221.377 43.456 221.481 43.456C221.637 43.456 221.741 43.508 221.793 43.612C221.897 43.716 221.949 43.82 221.949 43.924C221.949 43.976 221.793 44.184 221.481 44.548C221.221 44.86 220.883 45.25 220.467 45.718C220.051 46.186 219.583 46.706 219.063 47.278C218.595 47.85 218.127 48.37 217.659 48.838C215.839 50.71 214.201 52.218 212.745 53.362C211.289 54.454 210.041 55 209.001 55C207.961 55 207.129 54.636 206.505 53.908C205.881 53.18 205.569 51.75 205.569 49.618C205.569 49.358 205.569 49.124 205.569 48.916C205.621 48.656 205.647 48.422 205.647 48.214C205.075 48.786 204.373 49.462 203.541 50.242C202.761 51.022 201.929 51.776 201.045 52.504C200.161 53.18 199.277 53.778 198.393 54.298C197.509 54.766 196.703 55 195.975 55C194.987 55 194.155 54.792 193.479 54.376C192.855 53.96 192.361 53.44 191.997 52.816C191.633 52.14 191.373 51.386 191.217 50.554C191.113 49.67 191.061 48.786 191.061 47.902C191.061 47.278 191.087 46.68 191.139 46.108C191.243 45.484 191.347 44.86 191.451 44.236C191.347 44.236 191.269 44.288 191.217 44.392C191.165 44.444 191.087 44.47 190.983 44.47C190.775 44.47 190.671 44.34 190.671 44.08C190.671 43.924 190.749 43.768 190.905 43.612C191.061 43.456 191.399 43.066 191.919 42.442C192.959 41.142 194.129 39.946 195.429 38.854C196.729 37.762 198.055 36.8 199.407 35.968C200.811 35.136 202.215 34.486 203.619 34.018C205.075 33.55 206.479 33.316 207.831 33.316C209.027 33.316 209.885 33.706 210.405 34.486C210.925 35.214 211.185 36.098 211.185 37.138C211.185 38.074 211.107 38.776 210.951 39.244L211.107 39.4C211.783 38.308 212.303 37.398 212.667 36.67C213.083 35.942 213.421 35.396 213.681 35.032C213.941 34.616 214.175 34.33 214.383 34.174C214.643 33.966 214.981 33.862 215.397 33.862L219.141 33.706ZM194.181 51.568C194.181 52.296 194.311 52.894 194.571 53.362C194.883 53.83 195.351 54.064 195.975 54.064C197.119 54.064 198.497 53.466 200.109 52.27C201.721 51.022 203.281 49.514 204.789 47.746C206.297 45.978 207.571 44.132 208.611 42.208C209.703 40.232 210.249 38.516 210.249 37.06C210.249 36.28 210.041 35.63 209.625 35.11C209.261 34.538 208.663 34.252 207.831 34.252C206.271 34.252 204.659 34.902 202.995 36.202C201.383 37.45 199.927 38.984 198.627 40.804C197.327 42.624 196.261 44.522 195.429 46.498C194.597 48.474 194.181 50.164 194.181 51.568ZM249.691 43.846C249.691 43.898 249.535 44.132 249.223 44.548C248.911 44.912 248.521 45.354 248.053 45.874C247.585 46.394 247.065 46.94 246.493 47.512C245.973 48.084 245.505 48.604 245.089 49.072C243.113 51.1 241.449 52.608 240.097 53.596C238.797 54.532 237.627 55 236.587 55C235.911 55 235.339 54.844 234.871 54.532C234.455 54.168 234.117 53.726 233.857 53.206C233.649 52.686 233.493 52.14 233.389 51.568C233.337 50.996 233.311 50.476 233.311 50.008C233.311 48.916 233.571 47.798 234.091 46.654C234.611 45.458 235.261 44.288 236.041 43.144C236.873 41.948 237.757 40.752 238.693 39.556C239.629 38.36 240.513 37.216 241.345 36.124L241.189 35.968C239.213 37.84 237.315 39.764 235.495 41.74C233.727 43.664 231.829 45.77 229.801 48.058C228.033 50.034 226.395 51.698 224.887 53.05C223.379 54.35 221.871 55 220.363 55C219.167 55 218.153 54.532 217.321 53.596C216.541 52.66 216.151 51.36 216.151 49.696C216.151 47.876 216.593 46.42 217.477 45.328C218.413 44.184 219.687 43.612 221.299 43.612C221.975 43.612 222.495 43.82 222.859 44.236C223.275 44.6 223.483 45.068 223.483 45.64C223.483 46.264 223.301 46.81 222.937 47.278C222.573 47.746 222.183 47.98 221.767 47.98C221.351 47.98 221.013 47.928 220.753 47.824C220.545 47.72 220.233 47.668 219.817 47.668C219.193 47.668 218.647 47.928 218.179 48.448C217.763 48.968 217.555 49.774 217.555 50.866C217.555 51.594 217.815 52.322 218.335 53.05C218.855 53.726 219.609 54.064 220.597 54.064C221.481 54.064 222.417 53.726 223.405 53.05C224.393 52.322 225.355 51.438 226.291 50.398C227.123 49.462 227.851 48.656 228.475 47.98C229.099 47.304 229.749 46.602 230.425 45.874C231.153 45.094 231.959 44.21 232.843 43.222C233.779 42.234 234.949 40.986 236.353 39.478C237.133 38.594 238.017 37.684 239.005 36.748C240.045 35.76 241.241 34.72 242.593 33.628L246.961 33.316C244.569 37.164 242.619 40.206 241.111 42.442C239.655 44.626 238.511 46.368 237.679 47.668C236.899 48.916 236.353 49.878 236.041 50.554C235.781 51.23 235.651 51.958 235.651 52.738C235.651 53.622 236.093 54.064 236.977 54.064C237.549 54.064 238.459 53.648 239.707 52.816C240.955 51.984 242.489 50.606 244.309 48.682C245.453 47.486 246.337 46.55 246.961 45.874C247.637 45.146 248.131 44.626 248.443 44.314C248.755 43.95 248.937 43.716 248.989 43.612C249.093 43.508 249.197 43.456 249.301 43.456C249.561 43.456 249.691 43.586 249.691 43.846ZM263.445 33.316C261.157 37.008 259.337 39.972 257.985 42.208C256.633 44.392 255.567 46.134 254.787 47.434C254.059 48.734 253.565 49.696 253.305 50.32C253.097 50.892 252.993 51.386 252.993 51.802C252.993 52.686 253.227 53.284 253.695 53.596C254.163 53.908 254.579 54.064 254.943 54.064C255.671 54.064 256.321 54.038 256.893 53.986C257.465 53.882 258.219 53.544 259.155 52.972C260.507 52.192 261.625 50.97 262.509 49.306C263.393 47.642 263.835 46.03 263.835 44.47C263.835 43.586 263.627 42.962 263.211 42.598C262.795 42.182 262.301 41.922 261.729 41.818C261.209 41.714 260.767 41.844 260.403 42.208C260.299 42.312 260.169 42.286 260.013 42.13C259.909 41.974 259.883 41.818 259.935 41.662C260.195 41.35 260.585 41.142 261.105 41.038C261.625 40.934 262.015 40.882 262.275 40.882C262.795 40.882 263.367 40.96 263.991 41.116C264.615 41.272 265.187 41.532 265.707 41.896C266.227 42.208 266.669 42.676 267.033 43.3C267.397 43.924 267.579 44.704 267.579 45.64C267.579 46.68 267.293 47.694 266.721 48.682L267.579 48.604C268.827 48.5 269.841 48.214 270.621 47.746C271.401 47.226 272.155 46.68 272.883 46.108C273.923 45.224 274.599 44.548 274.911 44.08C275.223 43.612 275.431 43.378 275.535 43.378C275.847 43.378 276.003 43.508 276.003 43.768C276.003 43.872 275.873 44.054 275.613 44.314C275.405 44.574 275.119 44.886 274.755 45.25C274.443 45.614 274.079 45.978 273.663 46.342C273.299 46.706 272.961 47.018 272.649 47.278C271.453 48.214 270.283 48.838 269.139 49.15C268.047 49.462 267.007 49.644 266.019 49.696C265.395 50.476 264.615 51.204 263.679 51.88C262.795 52.504 261.833 53.05 260.793 53.518C259.805 53.986 258.817 54.35 257.829 54.61C256.841 54.87 255.983 55 255.255 55C253.695 55 252.473 54.506 251.589 53.518C250.705 52.478 250.263 51.126 250.263 49.462C250.263 48.786 250.393 48.058 250.653 47.278C250.965 46.498 251.355 45.718 251.823 44.938C252.291 44.106 252.785 43.3 253.305 42.52C253.877 41.74 254.397 40.986 254.865 40.258C255.385 39.53 255.853 38.854 256.269 38.23C256.737 37.554 257.257 36.852 257.829 36.124L257.673 35.968C257.153 36.384 256.243 37.19 254.943 38.386C253.695 39.582 252.083 41.272 250.107 43.456C249.691 43.924 249.431 44.21 249.327 44.314C249.223 44.418 249.119 44.47 249.015 44.47C248.807 44.47 248.703 44.314 248.703 44.002C248.703 43.898 248.833 43.69 249.093 43.378C249.353 43.066 250.029 42.338 251.121 41.194C252.421 39.842 253.773 38.516 255.177 37.216C256.633 35.864 257.751 34.668 258.531 33.628L263.445 33.316ZM300.722 33.706C300.358 34.122 299.812 34.85 299.084 35.89C298.408 36.878 297.654 38.022 296.822 39.322C295.99 40.57 295.132 41.896 294.248 43.3C293.416 44.704 292.636 46.056 291.908 47.356C291.18 48.656 290.582 49.8 290.114 50.788C289.698 51.776 289.49 52.504 289.49 52.972C289.49 53.7 289.932 54.064 290.816 54.064C292.012 54.064 293.572 53.18 295.496 51.412C297.472 49.592 299.604 47.356 301.892 44.704C302.36 44.132 302.646 43.794 302.75 43.69C302.854 43.534 302.958 43.456 303.062 43.456C303.218 43.456 303.322 43.508 303.374 43.612C303.478 43.716 303.53 43.82 303.53 43.924C303.53 43.976 303.374 44.184 303.062 44.548C302.802 44.86 302.464 45.25 302.048 45.718C301.632 46.186 301.164 46.706 300.644 47.278C300.176 47.85 299.708 48.37 299.24 48.838C297.42 50.71 295.782 52.218 294.326 53.362C292.87 54.454 291.622 55 290.582 55C289.542 55 288.71 54.636 288.086 53.908C287.462 53.18 287.15 51.75 287.15 49.618C287.15 48.942 287.332 48.136 287.696 47.2C288.112 46.264 288.658 45.328 289.334 44.392L289.1 44.236C288.632 44.756 288.06 45.406 287.384 46.186C286.708 46.914 286.136 47.538 285.668 48.058C283.848 50.034 282.08 51.698 280.364 53.05C278.7 54.35 277.114 55 275.606 55C274.41 55 273.396 54.532 272.564 53.596C271.784 52.66 271.394 51.36 271.394 49.696C271.394 47.876 271.836 46.42 272.72 45.328C273.656 44.184 274.93 43.612 276.542 43.612C277.218 43.612 277.738 43.82 278.102 44.236C278.518 44.6 278.726 45.068 278.726 45.64C278.726 46.264 278.544 46.81 278.18 47.278C277.816 47.746 277.426 47.98 277.01 47.98C276.594 47.98 276.256 47.928 275.996 47.824C275.788 47.72 275.476 47.668 275.06 47.668C274.436 47.668 273.89 47.928 273.422 48.448C273.006 48.968 272.798 49.774 272.798 50.866C272.798 51.594 273.058 52.322 273.578 53.05C274.098 53.726 274.852 54.064 275.84 54.064C276.724 54.064 277.764 53.7 278.96 52.972C280.156 52.192 281.222 51.334 282.158 50.398C282.73 49.826 283.224 49.332 283.64 48.916C284.108 48.448 284.55 47.98 284.966 47.512C285.382 47.044 285.798 46.576 286.214 46.108C286.682 45.588 287.176 45.016 287.696 44.392C287.072 44.756 286.344 44.938 285.512 44.938C283.536 44.938 282.054 44.444 281.066 43.456C280.078 42.416 279.584 41.22 279.584 39.868C279.584 38.984 279.818 38.152 280.286 37.372C280.806 36.54 281.482 35.838 282.314 35.266C283.146 34.642 284.108 34.174 285.2 33.862C286.292 33.498 287.462 33.316 288.71 33.316C290.166 33.316 291.18 33.654 291.752 34.33C292.324 35.006 292.662 35.63 292.766 36.202C292.87 36.67 292.87 37.268 292.766 37.996C292.662 38.672 292.584 39.088 292.532 39.244L292.688 39.4C293.364 38.308 293.884 37.398 294.248 36.67C294.664 35.942 295.002 35.396 295.262 35.032C295.522 34.616 295.756 34.33 295.964 34.174C296.224 33.966 296.562 33.862 296.978 33.862L300.722 33.706ZM284.888 44.158C285.772 44.158 286.578 44.054 287.306 43.846C288.034 43.638 288.762 43.248 289.49 42.676C290.166 42.104 290.712 41.324 291.128 40.336C291.596 39.348 291.83 38.256 291.83 37.06C291.83 36.28 291.622 35.63 291.206 35.11C290.842 34.538 290.244 34.252 289.412 34.252C287.904 34.252 286.63 34.772 285.59 35.812C284.602 36.852 283.874 37.996 283.406 39.244C282.99 40.44 282.886 41.558 283.094 42.598C283.354 43.638 283.952 44.158 284.888 44.158Z" fill="url(#paint0_linear_51_1797)"/>
<path d="M38.352 123.376C39.236 123.324 40.172 123.35 41.16 123.454C42.2 123.506 43.5 123.532 45.06 123.532C49.792 123.532 54.342 122.83 58.71 121.426C63.13 120.022 67.03 117.994 70.41 115.342C73.842 112.638 76.572 109.362 78.6 105.514C80.68 101.666 81.72 97.272 81.72 92.332C81.72 89.68 81.304 87.028 80.472 84.376C79.64 81.672 78.262 79.332 76.338 77.356C74.726 79.176 73.27 81.1 71.97 83.128C70.722 85.104 69.5 87.132 68.304 89.212C67.16 91.292 66.016 93.424 64.872 95.608C63.78 97.74 62.61 99.872 61.362 102.004C60.218 103.98 58.814 106.086 57.15 108.322C55.538 110.506 53.744 112.612 51.768 114.64C49.792 116.616 47.66 118.384 45.372 119.944C43.084 121.504 40.744 122.596 38.352 123.22V123.376ZM20.412 121.894C20.412 121.01 21.504 120.568 23.688 120.568C25.04 120.568 26.288 120.672 27.432 120.88C28.628 121.088 29.772 121.322 30.864 121.582C31.956 121.79 33.022 121.998 34.062 122.206C35.154 122.362 36.272 122.44 37.416 122.44C39.288 122.44 41.108 121.764 42.876 120.412C44.644 119.008 46.334 117.24 47.946 115.108C49.61 112.976 51.196 110.61 52.704 108.01C54.264 105.358 55.72 102.784 57.072 100.288C58.736 97.272 60.322 94.568 61.83 92.176C63.39 89.732 64.898 87.548 66.354 85.624C67.81 83.648 69.266 81.906 70.722 80.398C72.178 78.838 73.66 77.434 75.168 76.186C74.284 75.25 73.192 74.444 71.892 73.768C70.644 73.04 69.266 72.442 67.758 71.974C66.302 71.454 64.794 71.09 63.234 70.882C61.726 70.622 60.244 70.492 58.788 70.492C57.748 70.492 56.656 70.544 55.512 70.648C54.368 70.7 53.328 70.83 52.392 71.038C53.848 72.442 54.914 74.236 55.59 76.42C56.266 78.604 56.604 80.632 56.604 82.504C56.604 85.208 56.058 87.964 54.966 90.772C53.874 93.58 52.366 96.154 50.442 98.494C48.57 100.782 46.36 102.68 43.812 104.188C41.264 105.644 38.56 106.372 35.7 106.372C34.14 106.372 32.684 106.112 31.332 105.592C29.98 105.072 28.81 104.344 27.822 103.408C26.886 102.42 26.132 101.276 25.56 99.976C25.04 98.624 24.78 97.142 24.78 95.53C24.78 92.306 25.56 89.29 27.12 86.482C28.68 83.674 30.682 81.178 33.126 78.994C35.622 76.81 38.378 74.99 41.394 73.534C44.41 72.026 47.4 70.986 50.364 70.414C49.064 69.53 47.582 68.88 45.918 68.464C44.306 68.048 42.694 67.84 41.082 67.84C37.026 67.84 33.438 68.828 30.318 70.804C27.198 72.78 24.468 75.38 22.128 78.604C20.672 80.632 19.58 82.66 18.852 84.688C18.124 86.664 17.578 88.458 17.214 90.07C16.85 91.682 16.59 92.982 16.434 93.97C16.278 94.958 16.096 95.452 15.888 95.452C15.68 95.452 15.576 95.27 15.576 94.906C15.576 94.75 15.628 94.178 15.732 93.19C15.836 92.202 16.044 90.98 16.356 89.524C16.72 88.068 17.214 86.482 17.838 84.766C18.462 83.05 19.294 81.386 20.334 79.774C23.09 75.458 26.288 72.234 29.928 70.102C33.568 67.97 37.338 66.904 41.238 66.904C42.746 66.904 44.436 67.164 46.308 67.684C48.232 68.204 49.948 69.036 51.456 70.18C52.86 69.972 54.134 69.816 55.278 69.712C56.474 69.608 57.462 69.556 58.242 69.556C59.802 69.556 61.388 69.686 63 69.946C64.664 70.154 66.276 70.518 67.836 71.038C69.396 71.558 70.852 72.208 72.204 72.988C73.608 73.716 74.83 74.574 75.87 75.562C76.858 74.782 77.898 74.028 78.99 73.3C80.134 72.572 81.174 71.948 82.11 71.428C83.098 70.856 83.93 70.414 84.606 70.102C85.282 69.738 85.646 69.556 85.698 69.556C85.958 69.556 86.088 69.79 86.088 70.258C86.088 70.362 85.802 70.544 85.23 70.804C84.71 71.064 84.008 71.454 83.124 71.974C82.292 72.494 81.33 73.144 80.238 73.924C79.146 74.652 78.054 75.588 76.962 76.732C78.886 78.812 80.316 81.178 81.252 83.83C82.188 86.43 82.656 89.134 82.656 91.942C82.656 97.402 81.538 102.16 79.302 106.216C77.118 110.272 74.18 113.652 70.488 116.356C66.848 119.06 62.662 121.088 57.93 122.44C53.25 123.792 48.44 124.468 43.5 124.468C42.46 124.468 41.394 124.39 40.302 124.234C39.262 124.078 38.222 124 37.182 124C35.83 124 34.478 124.078 33.126 124.234C31.826 124.39 30.5 124.468 29.148 124.468C23.324 124.468 20.412 123.61 20.412 121.894ZM28.68 98.884C28.68 101.276 29.356 102.966 30.708 103.954C32.06 104.942 33.828 105.436 36.012 105.436C38.716 105.436 41.238 104.734 43.578 103.33C45.97 101.926 48.05 100.132 49.818 97.948C51.638 95.712 53.068 93.268 54.108 90.616C55.148 87.964 55.668 85.39 55.668 82.894C55.668 80.814 55.33 78.734 54.654 76.654C53.978 74.522 52.886 72.728 51.378 71.272C48.622 72.104 45.866 73.404 43.11 75.172C40.406 76.888 37.988 78.968 35.856 81.412C33.724 83.804 31.982 86.482 30.63 89.446C29.33 92.41 28.68 95.556 28.68 98.884ZM119.212 102.316C116.82 106.164 114.87 109.232 113.362 111.52C111.906 113.808 110.762 115.628 109.93 116.98C109.15 118.28 108.604 119.268 108.292 119.944C108.032 120.62 107.902 121.218 107.902 121.738C107.902 122.622 108.344 123.064 109.228 123.064C109.8 123.064 110.71 122.648 111.958 121.816C113.206 120.984 114.74 119.606 116.56 117.682C117.704 116.486 118.588 115.55 119.212 114.874C119.888 114.146 120.382 113.626 120.694 113.314C121.006 112.95 121.188 112.716 121.24 112.612C121.344 112.508 121.448 112.456 121.552 112.456C121.812 112.456 121.942 112.586 121.942 112.846C121.942 112.898 121.786 113.132 121.474 113.548C121.162 113.912 120.772 114.354 120.304 114.874C119.836 115.394 119.316 115.94 118.744 116.512C118.224 117.084 117.756 117.604 117.34 118.072C115.364 120.1 113.7 121.608 112.348 122.596C111.048 123.532 109.878 124 108.838 124C108.162 124 107.59 123.844 107.122 123.532C106.706 123.168 106.368 122.752 106.108 122.284C105.9 121.764 105.744 121.218 105.64 120.646C105.588 120.022 105.562 119.476 105.562 119.008C105.562 118.28 105.796 117.37 106.264 116.278C106.784 115.134 107.434 113.938 108.214 112.69C108.994 111.39 109.852 110.09 110.788 108.79C111.776 107.438 112.712 106.216 113.596 105.124L113.44 104.968C112.4 106.008 111.36 107.126 110.32 108.322C109.332 109.466 108.396 110.61 107.512 111.754C106.628 112.898 105.796 113.964 105.016 114.952C104.288 115.94 103.69 116.746 103.222 117.37C102.962 117.682 102.572 118.202 102.052 118.93C101.532 119.658 100.96 120.412 100.336 121.192C99.7124 121.92 99.0884 122.57 98.4644 123.142C97.8924 123.714 97.4244 124 97.0604 124C95.8644 124 95.1104 123.662 94.7984 122.986C94.5384 122.31 94.4084 121.582 94.4084 120.802C94.4084 119.606 94.6424 118.332 95.1104 116.98C95.5784 115.628 96.1764 114.25 96.9044 112.846C97.6844 111.442 98.5164 110.09 99.4004 108.79C100.284 107.438 101.142 106.216 101.974 105.124L101.818 104.968C99.8424 106.996 98.1004 108.998 96.5924 110.974C95.1364 112.898 93.6024 114.874 91.9904 116.902C91.1584 117.942 90.3524 118.852 89.5724 119.632C88.8444 120.412 88.3244 120.932 88.0124 121.192C87.0764 121.972 86.1664 122.648 85.2824 123.22C84.4504 123.74 83.5144 124 82.4744 124C81.3304 124 80.3424 123.558 79.5104 122.674C78.6784 121.738 78.2624 120.412 78.2624 118.696C78.2624 117.864 78.3924 117.084 78.6524 116.356C78.9124 115.576 79.2504 114.9 79.6664 114.328C80.1344 113.756 80.6804 113.314 81.3044 113.002C81.9284 112.69 82.6304 112.56 83.4104 112.612C83.9824 112.664 84.4764 112.846 84.8924 113.158C85.3604 113.47 85.5944 113.964 85.5944 114.64C85.5944 115.524 85.3604 116.148 84.8924 116.512C84.4764 116.824 84.1384 116.98 83.8784 116.98C83.5144 116.98 83.2024 116.928 82.9424 116.824C82.6824 116.72 82.3444 116.668 81.9284 116.668C81.1484 116.668 80.5764 117.032 80.2124 117.76C79.8484 118.488 79.6664 119.268 79.6664 120.1C79.6664 120.88 79.9524 121.582 80.5244 122.206C81.0964 122.778 81.8244 123.064 82.7084 123.064C83.4364 123.064 84.2684 122.778 85.2044 122.206C86.1924 121.582 87.1284 120.854 88.0124 120.022C88.8444 119.294 89.5984 118.54 90.2744 117.76C90.9504 116.928 91.6524 116.044 92.3804 115.108C93.1084 114.12 93.9404 113.028 94.8764 111.832C95.8124 110.636 96.9304 109.284 98.2304 107.776C98.5944 107.36 98.9324 106.97 99.2444 106.606C99.6084 106.242 99.9724 105.878 100.336 105.514C100.7 105.098 101.116 104.656 101.584 104.188C102.052 103.72 102.598 103.2 103.222 102.628L107.59 102.316C106.55 104.032 105.406 105.904 104.158 107.932C102.91 109.96 101.74 111.91 100.648 113.782C99.5564 115.654 98.6464 117.37 97.9184 118.93C97.1904 120.438 96.8264 121.582 96.8264 122.362C96.8264 122.622 96.9044 122.804 97.0604 122.908C97.2164 123.012 97.3464 123.064 97.4504 123.064C97.5544 123.064 97.9184 122.7 98.5424 121.972C99.1664 121.192 99.9204 120.23 100.804 119.086C101.74 117.89 102.728 116.59 103.768 115.186C104.86 113.782 105.9 112.456 106.888 111.208C107.304 110.688 107.824 110.064 108.448 109.336C109.072 108.556 109.748 107.776 110.476 106.996C111.204 106.164 111.932 105.384 112.66 104.656C113.44 103.876 114.168 103.2 114.844 102.628L119.212 102.316ZM149.955 102.316C149.591 102.94 149.045 103.772 148.317 104.812C147.641 105.852 146.861 106.996 145.977 108.244C145.093 109.492 144.183 110.792 143.247 112.144C142.363 113.496 141.531 114.796 140.751 116.044C140.023 117.24 139.399 118.358 138.879 119.398C138.411 120.386 138.177 121.166 138.177 121.738C138.177 122.622 138.619 123.064 139.503 123.064C140.075 123.064 140.985 122.648 142.233 121.816C143.481 120.984 145.015 119.606 146.835 117.682C147.979 116.486 148.863 115.55 149.487 114.874C150.163 114.146 150.657 113.626 150.969 113.314C151.281 112.95 151.463 112.716 151.515 112.612C151.619 112.508 151.723 112.456 151.827 112.456C152.087 112.456 152.217 112.586 152.217 112.846C152.217 112.898 152.061 113.132 151.749 113.548C151.437 113.912 151.047 114.354 150.579 114.874C150.111 115.394 149.591 115.94 149.019 116.512C148.499 117.084 148.031 117.604 147.615 118.072C145.639 120.1 143.975 121.608 142.623 122.596C141.323 123.532 140.153 124 139.113 124C138.437 124 137.865 123.844 137.397 123.532C136.981 123.168 136.643 122.726 136.383 122.206C136.175 121.686 136.019 121.14 135.915 120.568C135.863 119.996 135.837 119.476 135.837 119.008C135.837 118.02 136.019 117.032 136.383 116.044L136.227 115.888C135.655 116.512 134.953 117.292 134.121 118.228C133.289 119.112 132.379 119.996 131.391 120.88C130.403 121.712 129.389 122.44 128.349 123.064C127.361 123.688 126.425 124 125.541 124C124.293 124 123.383 123.61 122.811 122.83C122.239 121.998 121.953 120.984 121.953 119.788C121.953 118.332 122.213 116.954 122.733 115.654C123.305 114.302 124.007 113.054 124.839 111.91C125.671 110.714 126.555 109.57 127.491 108.478C128.427 107.334 129.259 106.216 129.987 105.124L129.831 104.968C128.687 105.852 127.491 106.944 126.243 108.244C125.047 109.544 123.851 110.818 122.655 112.066C122.135 112.638 121.823 113.002 121.719 113.158C121.615 113.314 121.485 113.392 121.329 113.392C121.121 113.392 121.017 113.236 121.017 112.924C121.017 112.872 121.043 112.794 121.095 112.69C121.199 112.534 121.381 112.3 121.641 111.988C121.901 111.676 122.291 111.26 122.811 110.74C123.383 110.168 124.111 109.414 124.995 108.478C125.775 107.646 126.659 106.736 127.647 105.748C128.687 104.76 129.883 103.72 131.235 102.628L135.603 102.316C133.211 106.164 131.261 109.206 129.753 111.442C128.297 113.626 127.153 115.368 126.321 116.668C125.541 117.916 124.995 118.878 124.683 119.554C124.423 120.23 124.293 120.958 124.293 121.738C124.293 122.206 124.423 122.544 124.683 122.752C124.995 122.96 125.307 123.064 125.619 123.064C126.607 123.064 127.933 122.388 129.597 121.036C131.313 119.684 133.107 117.994 134.979 115.966C136.851 113.938 138.671 111.728 140.439 109.336C142.259 106.944 143.767 104.708 144.963 102.628L149.955 102.316ZM166.624 124C166.884 123.532 167.326 122.778 167.95 121.738C168.626 120.698 169.38 119.528 170.212 118.228C171.044 116.928 171.902 115.576 172.786 114.172C173.67 112.716 174.476 111.364 175.204 110.116C175.984 108.816 176.608 107.672 177.076 106.684C177.544 105.644 177.778 104.89 177.778 104.422C177.778 103.694 177.44 103.304 176.764 103.252C176.192 103.2 175.386 103.59 174.346 104.422C173.358 105.202 172.214 106.268 170.914 107.62C169.666 108.92 168.366 110.376 167.014 111.988C165.662 113.6 164.388 115.186 163.192 116.746C161.996 118.254 160.93 119.632 159.994 120.88C159.058 122.076 158.408 122.96 158.044 123.532L152.974 124C156.77 117.968 159.708 113.34 161.788 110.116C163.868 106.892 164.908 104.968 164.908 104.344C164.908 103.616 164.518 103.252 163.738 103.252C162.646 103.252 161.45 103.772 160.15 104.812C158.902 105.8 157.628 106.97 156.328 108.322C154.508 110.298 153.286 111.676 152.662 112.456C152.09 113.184 151.726 113.548 151.57 113.548C151.414 113.548 151.31 113.496 151.258 113.392C151.206 113.288 151.18 113.184 151.18 113.08C151.18 112.976 151.57 112.482 152.35 111.598C153.182 110.662 154.326 109.362 155.782 107.698C157.602 105.67 159.162 104.266 160.462 103.486C161.762 102.706 162.88 102.316 163.816 102.316C165.896 102.316 166.936 103.304 166.936 105.28C166.936 106.164 166.78 107.074 166.468 108.01C166.156 108.946 165.766 109.882 165.298 110.818C164.83 111.702 164.336 112.586 163.816 113.47C163.296 114.354 162.854 115.134 162.49 115.81L162.646 115.966C163.322 115.238 164.258 114.12 165.454 112.612C166.702 111.104 168.002 109.596 169.354 108.088C170.758 106.528 172.136 105.176 173.488 104.032C174.892 102.888 176.114 102.316 177.154 102.316C178.038 102.316 178.688 102.602 179.104 103.174C179.572 103.694 179.806 104.578 179.806 105.826C179.806 106.71 179.676 107.594 179.416 108.478C179.156 109.362 178.818 110.246 178.402 111.13C178.038 111.962 177.622 112.768 177.154 113.548C176.738 114.328 176.348 115.03 175.984 115.654L176.14 115.81C176.816 115.03 177.752 113.886 178.948 112.378C180.196 110.87 181.522 109.388 182.926 107.932C184.382 106.424 185.812 105.124 187.216 104.032C188.672 102.888 189.946 102.316 191.038 102.316C191.766 102.316 192.39 102.628 192.91 103.252C193.482 103.876 193.768 104.89 193.768 106.294C193.768 107.542 193.378 108.842 192.598 110.194C191.818 111.546 190.934 112.898 189.946 114.25C188.958 115.55 188.048 116.824 187.216 118.072C186.384 119.268 185.916 120.36 185.812 121.348C185.76 121.764 185.838 122.154 186.046 122.518C186.306 122.882 186.644 123.064 187.06 123.064C187.788 123.064 188.776 122.622 190.024 121.738C191.324 120.802 192.702 119.58 194.158 118.072C195.458 116.668 196.446 115.602 197.122 114.874C197.798 114.094 198.292 113.548 198.604 113.236C198.916 112.872 199.098 112.664 199.15 112.612C199.254 112.508 199.358 112.456 199.462 112.456C199.722 112.456 199.852 112.586 199.852 112.846C199.852 112.95 199.696 113.184 199.384 113.548C199.124 113.86 198.786 114.25 198.37 114.718C197.954 115.186 197.486 115.706 196.966 116.278C196.446 116.85 195.926 117.396 195.406 117.916C193.43 119.944 191.766 121.478 190.414 122.518C189.114 123.506 187.918 124 186.826 124C185.63 124 184.772 123.558 184.252 122.674C183.732 121.738 183.472 120.516 183.472 119.008C183.472 117.396 183.888 115.836 184.72 114.328C185.604 112.82 186.566 111.416 187.606 110.116C188.646 108.816 189.582 107.646 190.414 106.606C191.298 105.566 191.74 104.682 191.74 103.954C191.74 103.798 191.662 103.642 191.506 103.486C191.402 103.33 191.142 103.252 190.726 103.252C189.998 103.252 189.062 103.694 187.918 104.578C186.774 105.41 185.552 106.502 184.252 107.854C182.952 109.154 181.626 110.61 180.274 112.222C178.922 113.782 177.648 115.316 176.452 116.824C175.308 118.332 174.294 119.71 173.41 120.958C172.526 122.154 171.902 123.012 171.538 123.532L166.624 124ZM221.093 88.588L204.479 116.746L204.635 116.902C205.363 116.07 206.403 114.848 207.755 113.236C209.159 111.572 210.641 109.934 212.201 108.322C213.813 106.71 215.425 105.306 217.037 104.11C218.701 102.914 220.157 102.316 221.405 102.316C222.445 102.316 223.173 102.732 223.589 103.564C224.057 104.344 224.291 105.28 224.291 106.372C224.291 107.62 223.849 108.946 222.965 110.35C222.133 111.702 221.171 113.08 220.079 114.484C219.039 115.888 218.077 117.24 217.193 118.54C216.361 119.84 215.945 120.984 215.945 121.972C215.945 122.7 216.361 123.064 217.193 123.064C217.609 123.064 218.077 122.986 218.597 122.83C219.169 122.622 219.819 122.284 220.547 121.816C221.275 121.296 222.107 120.594 223.043 119.71C223.979 118.826 225.045 117.708 226.241 116.356C227.021 115.472 227.619 114.77 228.035 114.25C228.503 113.73 228.841 113.34 229.049 113.08C229.309 112.768 229.465 112.586 229.517 112.534C229.621 112.43 229.725 112.378 229.829 112.378C230.089 112.378 230.219 112.508 230.219 112.768C230.219 112.872 230.193 112.976 230.141 113.08C230.089 113.132 229.985 113.262 229.829 113.47C229.673 113.626 229.439 113.886 229.127 114.25C228.815 114.562 228.373 115.056 227.801 115.732C225.149 118.904 222.965 121.088 221.249 122.284C219.533 123.428 218.103 124 216.959 124C215.763 124 214.905 123.558 214.385 122.674C213.865 121.738 213.605 120.516 213.605 119.008C213.605 117.448 214.021 115.966 214.853 114.562C215.737 113.106 216.699 111.754 217.739 110.506C218.831 109.258 219.793 108.114 220.625 107.074C221.509 105.982 221.951 105.046 221.951 104.266C221.951 103.59 221.613 103.252 220.937 103.252C220.209 103.252 218.987 103.85 217.271 105.046C215.555 106.242 213.527 108.062 211.187 110.506C208.847 112.95 206.299 116.018 203.543 119.71C200.787 123.402 197.979 127.744 195.119 132.736L188.645 144.124L183.419 144.436L210.173 100.99L210.017 100.834C208.977 102.03 207.859 103.382 206.663 104.89C205.467 106.346 204.323 107.724 203.231 109.024C202.139 110.324 201.203 111.416 200.423 112.3C199.695 113.184 199.305 113.626 199.253 113.626C198.941 113.626 198.785 113.496 198.785 113.236C198.785 113.132 198.811 113.028 198.863 112.924C198.967 112.82 199.149 112.612 199.409 112.3C199.721 111.936 200.189 111.416 200.813 110.74C201.437 110.012 202.295 108.972 203.387 107.62C204.583 106.112 205.623 104.812 206.507 103.72C207.443 102.628 208.249 101.64 208.925 100.756C209.653 99.872 210.303 99.066 210.875 98.338C211.447 97.558 212.019 96.752 212.591 95.92C213.215 95.036 213.865 94.074 214.541 93.034C215.269 91.994 216.101 90.746 217.037 89.29L221.093 88.588ZM258.196 102.316C257.832 102.94 257.286 103.772 256.558 104.812C255.882 105.852 255.102 106.996 254.218 108.244C253.334 109.492 252.424 110.792 251.488 112.144C250.604 113.496 249.772 114.796 248.992 116.044C248.264 117.24 247.64 118.358 247.12 119.398C246.652 120.386 246.418 121.166 246.418 121.738C246.418 122.622 246.86 123.064 247.744 123.064C248.316 123.064 249.226 122.648 250.474 121.816C251.722 120.984 253.256 119.606 255.076 117.682C256.22 116.486 257.104 115.55 257.728 114.874C258.404 114.146 258.898 113.626 259.21 113.314C259.522 112.95 259.704 112.716 259.756 112.612C259.86 112.508 259.964 112.456 260.068 112.456C260.328 112.456 260.458 112.586 260.458 112.846C260.458 112.898 260.302 113.132 259.99 113.548C259.678 113.912 259.288 114.354 258.82 114.874C258.352 115.394 257.832 115.94 257.26 116.512C256.74 117.084 256.272 117.604 255.856 118.072C253.88 120.1 252.216 121.608 250.864 122.596C249.564 123.532 248.394 124 247.354 124C246.678 124 246.106 123.844 245.638 123.532C245.222 123.168 244.884 122.726 244.624 122.206C244.416 121.686 244.26 121.14 244.156 120.568C244.104 119.996 244.078 119.476 244.078 119.008C244.078 118.02 244.26 117.032 244.624 116.044L244.468 115.888C243.896 116.512 243.194 117.292 242.362 118.228C241.53 119.112 240.62 119.996 239.632 120.88C238.644 121.712 237.63 122.44 236.59 123.064C235.602 123.688 234.666 124 233.782 124C232.534 124 231.624 123.61 231.052 122.83C230.48 121.998 230.194 120.984 230.194 119.788C230.194 118.332 230.454 116.954 230.974 115.654C231.546 114.302 232.248 113.054 233.08 111.91C233.912 110.714 234.796 109.57 235.732 108.478C236.668 107.334 237.5 106.216 238.228 105.124L238.072 104.968C236.928 105.852 235.732 106.944 234.484 108.244C233.288 109.544 232.092 110.818 230.896 112.066C230.376 112.638 230.064 113.002 229.96 113.158C229.856 113.314 229.726 113.392 229.57 113.392C229.362 113.392 229.258 113.236 229.258 112.924C229.258 112.872 229.284 112.794 229.336 112.69C229.44 112.534 229.622 112.3 229.882 111.988C230.142 111.676 230.532 111.26 231.052 110.74C231.624 110.168 232.352 109.414 233.236 108.478C234.016 107.646 234.9 106.736 235.888 105.748C236.928 104.76 238.124 103.72 239.476 102.628L243.844 102.316C241.452 106.164 239.502 109.206 237.994 111.442C236.538 113.626 235.394 115.368 234.562 116.668C233.782 117.916 233.236 118.878 232.924 119.554C232.664 120.23 232.534 120.958 232.534 121.738C232.534 122.206 232.664 122.544 232.924 122.752C233.236 122.96 233.548 123.064 233.86 123.064C234.848 123.064 236.174 122.388 237.838 121.036C239.554 119.684 241.348 117.994 243.22 115.966C245.092 113.938 246.912 111.728 248.68 109.336C250.5 106.944 252.008 104.708 253.204 102.628L258.196 102.316ZM288.436 102.316C288.072 102.94 287.526 103.772 286.798 104.812C286.122 105.852 285.342 106.996 284.458 108.244C283.574 109.492 282.664 110.792 281.728 112.144C280.844 113.496 280.012 114.796 279.232 116.044C278.504 117.24 277.88 118.358 277.36 119.398C276.892 120.386 276.658 121.166 276.658 121.738C276.658 122.622 277.1 123.064 277.984 123.064C278.556 123.064 279.466 122.648 280.714 121.816C281.962 120.984 283.496 119.606 285.316 117.682C286.46 116.486 287.344 115.55 287.968 114.874C288.644 114.146 289.138 113.626 289.45 113.314C289.762 112.95 289.944 112.716 289.996 112.612C290.1 112.508 290.204 112.456 290.308 112.456C290.568 112.456 290.698 112.586 290.698 112.846C290.698 112.898 290.542 113.132 290.23 113.548C289.918 113.912 289.528 114.354 289.06 114.874C288.592 115.394 288.072 115.94 287.5 116.512C286.98 117.084 286.512 117.604 286.096 118.072C284.12 120.1 282.456 121.608 281.104 122.596C279.804 123.532 278.634 124 277.594 124C276.918 124 276.346 123.844 275.878 123.532C275.462 123.168 275.124 122.726 274.864 122.206C274.656 121.686 274.5 121.14 274.396 120.568C274.344 119.996 274.318 119.476 274.318 119.008C274.318 118.02 274.5 117.032 274.864 116.044L274.708 115.888C274.136 116.512 273.434 117.292 272.602 118.228C271.77 119.112 270.86 119.996 269.872 120.88C268.884 121.712 267.87 122.44 266.83 123.064C265.842 123.688 264.906 124 264.022 124C262.774 124 261.864 123.61 261.292 122.83C260.72 121.998 260.434 120.984 260.434 119.788C260.434 118.332 260.694 116.954 261.214 115.654C261.786 114.302 262.488 113.054 263.32 111.91C264.152 110.714 265.036 109.57 265.972 108.478C266.908 107.334 267.74 106.216 268.468 105.124L268.312 104.968C267.168 105.852 265.972 106.944 264.724 108.244C263.528 109.544 262.332 110.818 261.136 112.066C260.616 112.638 260.304 113.002 260.2 113.158C260.096 113.314 259.966 113.392 259.81 113.392C259.602 113.392 259.498 113.236 259.498 112.924C259.498 112.872 259.524 112.794 259.576 112.69C259.68 112.534 259.862 112.3 260.122 111.988C260.382 111.676 260.772 111.26 261.292 110.74C261.864 110.168 262.592 109.414 263.476 108.478C264.256 107.646 265.14 106.736 266.128 105.748C267.168 104.76 268.364 103.72 269.716 102.628L274.084 102.316C271.692 106.164 269.742 109.206 268.234 111.442C266.778 113.626 265.634 115.368 264.802 116.668C264.022 117.916 263.476 118.878 263.164 119.554C262.904 120.23 262.774 120.958 262.774 121.738C262.774 122.206 262.904 122.544 263.164 122.752C263.476 122.96 263.788 123.064 264.1 123.064C265.088 123.064 266.414 122.388 268.078 121.036C269.794 119.684 271.588 117.994 273.46 115.966C275.332 113.938 277.152 111.728 278.92 109.336C280.74 106.944 282.248 104.708 283.444 102.628L288.436 102.316ZM278.14 98.416C276.996 98.416 276.008 98.26 275.176 97.948C274.344 97.636 273.642 97.246 273.07 96.778C272.55 96.31 272.16 95.816 271.9 95.296C271.692 94.724 271.614 94.204 271.666 93.736C271.77 93.008 271.978 92.436 272.29 92.02C272.654 91.552 273.252 91.318 274.084 91.318C274.968 91.318 275.488 91.63 275.644 92.254C275.8 92.878 275.774 93.58 275.566 94.36C275.358 94.932 275.332 95.478 275.488 95.998C275.696 96.466 276.008 96.83 276.424 97.09C276.684 97.246 277.048 97.376 277.516 97.48C278.036 97.532 278.478 97.558 278.842 97.558C280.35 97.558 281.624 97.168 282.664 96.388C283.756 95.608 284.328 94.542 284.38 93.19C284.432 91.994 284.64 91.11 285.004 90.538C285.368 89.966 286.018 89.68 286.954 89.68C287.994 89.68 288.462 90.096 288.358 90.928C288.254 91.916 287.89 92.878 287.266 93.814C286.642 94.698 285.836 95.478 284.848 96.154C283.912 96.83 282.846 97.376 281.65 97.792C280.506 98.208 279.336 98.416 278.14 98.416Z" fill="url(#paint1_linear_51_1797)"/>
<path d="M167.386 79.5455L174.148 69.0909H174.83V80H174.375V69.5455L167.614 80H166.932V69.0909H167.386V79.5455Z" fill="#000F2B"/>
<defs>
<linearGradient id="paint0_linear_51_1797" x1="153.5" y1="19" x2="153.5" y2="79" gradientUnits="userSpaceOnUse">
<stop stop-color="#EFCE83"/>
<stop offset="0.421875" stop-color="#B48811" stop-opacity="0.6375"/>
<stop offset="0.794792" stop-color="#A2790D" stop-opacity="0.57"/>
<stop offset="1" stop-color="#BB9B49" stop-opacity="0.26"/>
</linearGradient>
<linearGradient id="paint1_linear_51_1797" x1="138.5" y1="62" x2="138.5" y2="144" gradientUnits="userSpaceOnUse">
<stop stop-color="#EFCE83"/>
<stop offset="0.421875" stop-color="#B48811" stop-opacity="0.6375"/>
<stop offset="0.794792" stop-color="#A2790D" stop-opacity="0.57"/>
<stop offset="1" stop-color="#BB9B49" stop-opacity="0.26"/>
</linearGradient>
</defs>
</svg>
