<svg width="160" height="158" viewBox="0 0 160 158" fill="none" xmlns="http://www.w3.org/2000/svg">
<g clip-path="url(#clip0_92_71)">
<path d="M22.94 102.02L1 80.08L79.89 1L158.9 80L84.67 154.24" stroke="#536170" stroke-width="0.96" stroke-linecap="round" stroke-linejoin="round"/>
<path d="M63.48 70V62.104C63.204 62.656 62.724 62.968 62.076 63.04V62.8C62.82 62.728 63.264 62.236 63.492 61.588H63.744V70H63.48ZM66.6634 61.54C67.9114 61.54 68.5114 62.344 68.5114 63.544V63.82C68.5114 64.696 68.1754 65.416 67.2994 65.608C68.1994 65.812 68.5114 66.52 68.5114 67.432V67.996C68.5114 69.196 67.9354 70.06 66.6634 70.06C65.3914 70.06 64.8154 69.196 64.8154 67.996V67.432C64.8154 66.496 65.1274 65.824 66.0634 65.608C65.1514 65.404 64.8154 64.72 64.8154 63.82V63.544C64.8154 62.344 65.4274 61.54 66.6634 61.54ZM66.6634 61.78C65.5954 61.78 65.0794 62.488 65.0794 63.544V63.844C65.0794 64.912 65.6074 65.5 66.6634 65.5C67.7314 65.5 68.2474 64.912 68.2474 63.844V63.544C68.2474 62.488 67.7314 61.78 66.6634 61.78ZM66.6634 65.74C65.5834 65.74 65.0794 66.316 65.0794 67.408V67.996C65.0794 69.064 65.5714 69.82 66.6634 69.82C67.7674 69.82 68.2474 69.064 68.2474 67.996V67.408C68.2474 66.316 67.7554 65.74 66.6634 65.74ZM69.4566 69.028H69.7206V70H69.4566V69.028ZM72.1753 70V62.104C71.8993 62.656 71.4193 62.968 70.7713 63.04V62.8C71.5153 62.728 71.9593 62.236 72.1873 61.588H72.4393V70H72.1753ZM73.5227 67.936V63.664C73.5227 62.476 74.0267 61.54 75.3107 61.54C76.5947 61.54 77.0987 62.476 77.0987 63.664V67.936C77.0987 69.112 76.5947 70.06 75.3107 70.06C74.0267 70.06 73.5227 69.112 73.5227 67.936ZM73.7867 63.652V67.936C73.7867 68.98 74.1947 69.82 75.3107 69.82C76.4267 69.82 76.8347 68.98 76.8347 67.936V63.652C76.8347 62.62 76.4267 61.78 75.3107 61.78C74.1947 61.78 73.7867 62.62 73.7867 63.652ZM78.0464 69.028H78.3104V70H78.0464V69.028ZM81.0172 61.54C82.3372 61.54 82.7692 62.5 82.7692 63.688C82.7692 66.028 79.5772 66.808 79.5292 69.7V69.748H82.7212V70H79.2652V69.82C79.2652 66.676 82.5052 65.956 82.5052 63.7C82.5052 62.644 82.1692 61.78 81.0052 61.78C79.8772 61.78 79.5172 62.692 79.5172 63.7V64.156H79.2652V63.712C79.2652 62.548 79.7212 61.54 81.0172 61.54ZM83.6946 67.936V63.664C83.6946 62.476 84.1986 61.54 85.4826 61.54C86.7666 61.54 87.2706 62.476 87.2706 63.664V67.936C87.2706 69.112 86.7666 70.06 85.4826 70.06C84.1986 70.06 83.6946 69.112 83.6946 67.936ZM83.9586 63.652V67.936C83.9586 68.98 84.3666 69.82 85.4826 69.82C86.5986 69.82 87.0066 68.98 87.0066 67.936V63.652C87.0066 62.62 86.5986 61.78 85.4826 61.78C84.3666 61.78 83.9586 62.62 83.9586 63.652ZM89.9703 61.54C91.2903 61.54 91.7223 62.5 91.7223 63.688C91.7223 66.028 88.5303 66.808 88.4823 69.7V69.748H91.6743V70H88.2183V69.82C88.2183 66.676 91.4583 65.956 91.4583 63.7C91.4583 62.644 91.1223 61.78 89.9583 61.78C88.8303 61.78 88.4703 62.692 88.4703 63.7V64.156H88.2183V63.712C88.2183 62.548 88.6743 61.54 89.9703 61.54ZM94.4117 61.54C95.6957 61.54 96.1637 62.488 96.1637 63.664V63.868C96.1637 64.672 95.7197 65.368 94.9637 65.608C95.7677 65.812 96.1637 66.472 96.1637 67.288V67.936C96.1637 69.112 95.6957 70.06 94.4117 70.06C93.1277 70.06 92.6477 69.112 92.6477 67.936V67.54H92.9117V67.936C92.9117 68.968 93.2837 69.82 94.3997 69.82C95.5157 69.82 95.8997 68.968 95.8997 67.924V67.288C95.8997 66.376 95.4077 65.788 94.5077 65.74H93.8957V65.5H94.5197C95.3717 65.428 95.8997 64.756 95.8997 63.904V63.664C95.8997 62.62 95.5157 61.78 94.3997 61.78C93.2837 61.78 92.9117 62.62 92.9117 63.652V63.904H92.6477V63.664C92.6477 62.488 93.1277 61.54 94.4117 61.54Z" fill="#536170"/>
<path d="M22.5454 84.0879V90H21.7188V77.421H22.5454V83.3331H26.4629V77.421H27.3075V90H26.4629V84.0879H22.5454ZM29.9423 87.2147L29.3134 90H28.5586L31.308 77.403H32.512L35.3154 90H34.4887L33.8598 87.2147H29.9423ZM30.0681 86.4958H33.734L31.8831 78.3554L30.0681 86.4958ZM38.9192 90V78.1757H36.3495V77.421H42.3155V78.1757H39.7458V90H38.9192ZM44.736 87.2147L44.107 90H43.3523L46.1017 77.403H47.3057L50.109 90H49.2824L48.6534 87.2147H44.736ZM44.8618 86.4958H48.5277L46.6767 78.3554L44.8618 86.4958ZM53.8566 78.1757L53.5331 86.9271C53.5092 87.3584 53.4672 87.7597 53.4073 88.1311C53.3594 88.5025 53.2576 88.826 53.1019 89.1015C52.9461 89.377 52.7245 89.5987 52.437 89.7664C52.1614 89.9221 51.79 90.006 51.3228 90.018H51.1611V89.2632C51.5205 89.2632 51.796 89.2033 51.9877 89.0835C52.1914 88.9517 52.3411 88.784 52.437 88.5804C52.5448 88.3647 52.6107 88.1191 52.6346 87.8436C52.6706 87.5561 52.6945 87.2566 52.7065 86.9451L53.0839 77.421H57.7741V90H56.9295V78.1757H53.8566ZM61.6102 82.5964C62.6285 82.5964 63.3713 82.8419 63.8385 83.3331C64.3057 83.8243 64.5393 84.5731 64.5393 85.5794V86.9451C64.5393 87.4003 64.4854 87.8196 64.3776 88.203C64.2818 88.5744 64.126 88.8978 63.9104 89.1734C63.6948 89.4369 63.4132 89.6406 63.0658 89.7844C62.7304 89.9281 62.3171 90 61.8259 90H59.2382V77.421H60.0648V82.5964H61.6102ZM61.8259 89.2453C62.5327 89.2453 63.0239 89.0416 63.2994 88.6343C63.575 88.227 63.7127 87.6819 63.7127 86.999V85.5255C63.7127 84.7587 63.545 84.2077 63.2096 83.8722C62.8741 83.5248 62.341 83.3511 61.6102 83.3511H60.0648V89.2453H61.8259ZM69.2496 84.3754C68.8902 84.3754 68.5667 84.4113 68.2792 84.4832C67.9917 84.5431 67.7401 84.6569 67.5245 84.8246C67.3208 84.9804 67.1651 85.196 67.0572 85.4716C66.9494 85.7471 66.8955 86.0945 66.8955 86.5138V88.4905C66.8955 88.8379 66.8775 89.1314 66.8416 89.3711C66.8057 89.5987 66.7338 89.8083 66.626 90H65.7634C65.8952 89.7963 65.979 89.5627 66.015 89.2992C66.0509 89.0236 66.0689 88.7541 66.0689 88.4905V86.5318C66.0689 85.8489 66.2067 85.2859 66.4822 84.8426C66.7697 84.3994 67.2369 84.1058 67.8839 83.9621C66.6739 83.6865 66.0689 82.818 66.0689 81.3564V80.2603C66.0689 79.3737 66.2785 78.6789 66.6978 78.1757C67.1171 77.6726 67.806 77.421 68.7644 77.421H71.388V90H70.5614V84.3754H69.2496ZM68.7824 78.1757C68.0995 78.1757 67.6143 78.3674 67.3268 78.7508C67.0393 79.1222 66.8955 79.6493 66.8955 80.3321V81.5182C66.8955 81.9375 66.9494 82.2849 67.0572 82.5604C67.1651 82.836 67.3148 83.0516 67.5065 83.2073C67.7102 83.3631 67.9557 83.4709 68.2433 83.5308C68.5308 83.5907 68.8602 83.6206 69.2316 83.6206H70.5614V78.1757H68.7824ZM78.6302 78.1757C77.1686 78.1757 76.4379 78.9544 76.4379 80.5118V81.015C76.4379 81.59 76.5876 82.0692 76.8871 82.4526C77.1866 82.836 77.6119 83.0396 78.163 83.0636H80.1037V81.6619H80.9304V83.0636H81.6132V83.8183H80.9304V88.3468C80.9304 88.6582 80.9423 88.9458 80.9663 89.2093C80.9903 89.4729 81.0861 89.7364 81.2538 90H80.3913C80.2954 89.8203 80.2235 89.6406 80.1756 89.4609C80.1397 89.2692 80.1217 89.0476 80.1217 88.796C79.93 89.2393 79.6485 89.5687 79.2771 89.7844C78.9057 90 78.4805 90.1078 78.0013 90.1078C77.1746 90.1078 76.5696 89.8383 76.1863 89.2992C75.8029 88.7601 75.6112 88.0592 75.6112 87.1967V86.0107C75.6112 85.4117 75.743 84.8785 76.0066 84.4113C76.2701 83.9321 76.6894 83.5967 77.2645 83.405C76.6894 83.2373 76.2701 82.9258 76.0066 82.4706C75.743 82.0033 75.6112 81.4642 75.6112 80.8533V80.5478C75.6112 79.5295 75.8568 78.7568 76.348 78.2296C76.8512 77.6905 77.6119 77.421 78.6302 77.421H80.4092V78.1757H78.6302ZM78.2708 83.8183C77.6718 83.8543 77.2166 84.0699 76.9051 84.4652C76.5936 84.8486 76.4379 85.3577 76.4379 85.9927V87.1428C76.4379 87.8017 76.5816 88.3348 76.8691 88.7421C77.1686 89.1494 77.6419 89.3531 78.2888 89.3531C78.8159 89.3531 79.2472 89.2033 79.5826 88.9038C79.9181 88.5923 80.0918 88.1551 80.1037 87.592V83.8183H78.2708ZM92.2981 91.7431V90H86.2961V91.7431H85.4874V89.2453H86.35C86.6016 88.9817 86.7633 88.6822 86.8352 88.3468C86.9071 88.0113 86.955 87.6399 86.979 87.2326L87.4821 77.421H92.0824V89.2453H93.1247V91.7431H92.2981ZM87.7876 87.2326C87.7636 87.6639 87.7157 88.0473 87.6438 88.3827C87.5839 88.7062 87.4342 88.9937 87.1946 89.2453H91.2378V78.1757H88.2548L87.7876 87.2326ZM98.6641 89.982H97.8375L95.1779 78.8586V90H94.4411V77.421H95.6272L98.2688 88.5444L100.892 77.421H102.078V90H101.288V78.8227L98.6641 89.982ZM106.479 84.0879L104.412 90H103.514V77.421H104.269V88.185L106.102 83.0456L108.132 77.421H109.121V90H108.366V78.8766L106.479 84.0879ZM112.887 90V78.1757H110.318V77.421H116.284V78.1757H113.714V90H112.887ZM120.106 77.421C121.076 77.421 121.765 77.7025 122.173 78.2656C122.592 78.8167 122.801 79.5534 122.801 80.4759V81.8416C122.801 82.8479 122.568 83.5967 122.101 84.0879C121.633 84.579 120.897 84.8246 119.89 84.8246H118.327V90H117.5V77.421H120.106ZM119.89 84.0699C120.621 84.0699 121.148 83.9022 121.472 83.5667C121.807 83.2193 121.975 82.6622 121.975 81.8955V80.422C121.975 79.7391 121.837 79.194 121.562 78.7867C121.298 78.3794 120.813 78.1757 120.106 78.1757H118.327V84.0699H119.89ZM127.011 84.0879L124.945 90H124.046V77.421H124.801V88.185L126.634 83.0456L128.664 77.421H129.653V90H128.898V78.8766L127.011 84.0879ZM135.774 75.049C135.762 75.5282 135.588 75.9055 135.253 76.1811C134.917 76.4446 134.486 76.5764 133.959 76.5764C133.444 76.5764 133.018 76.4446 132.683 76.1811C132.347 75.9175 132.174 75.5401 132.162 75.049H132.737C132.749 75.3964 132.875 75.648 133.114 75.8037C133.354 75.9594 133.635 76.0373 133.959 76.0373C134.294 76.0373 134.582 75.9594 134.821 75.8037C135.061 75.648 135.193 75.3964 135.217 75.049H135.774ZM134.12 83.8722L131.964 90H131.066V77.421H131.82V88.185L133.456 83.6027L135.684 77.421H136.672V90H135.917V78.8766L134.12 83.8722Z" fill="#536170"/>
<path d="M78.5799 157.39C61.3899 129.92 36.7799 131.98 30.6699 101.39" stroke="#536170" stroke-width="0.96" stroke-linecap="round" stroke-linejoin="round"/>
<path d="M48.2012 128.83C38.9812 120.75 29.1312 117.42 23.5312 116.59" stroke="#536170" stroke-width="0.96" stroke-linecap="round" stroke-linejoin="round"/>
<path d="M65.1513 141.74C62.1013 138.3 59.1513 129.81 62.7913 120.94" stroke="#536170" stroke-width="0.96" stroke-linecap="round" stroke-linejoin="round"/>
<path fill-rule="evenodd" clip-rule="evenodd" d="M60.0604 137.6C57.0604 134.81 45.2304 133.19 39.9004 135.33C48.2504 135.08 50.4304 140.16 60.0604 137.6Z" fill="#FFE4CF" stroke="#536170" stroke-width="0.96" stroke-linecap="round" stroke-linejoin="round"/>
<path fill-rule="evenodd" clip-rule="evenodd" d="M62.8812 138C61.4112 133.83 64.1212 127.1 69.1012 125.34C65.3112 131.27 68.8912 132.23 62.8812 138Z" fill="#FFE4CF" stroke="#536170" stroke-width="0.96" stroke-linecap="round" stroke-linejoin="round"/>
<path fill-rule="evenodd" clip-rule="evenodd" d="M61.2305 131.68C61.8705 126.45 56.9905 119.32 50.7305 118.54C56.6605 124.43 52.7405 126.45 61.2305 131.68Z" fill="#FFE4CF" stroke="#536170" stroke-width="0.96" stroke-linecap="round" stroke-linejoin="round"/>
<path fill-rule="evenodd" clip-rule="evenodd" d="M62.1905 122.58C60.7405 118.05 61.6105 113.23 68.7705 112.05C66.6005 115 67.1605 119.76 62.1905 122.58Z" fill="#FFE4CF" stroke="#536170" stroke-width="0.96" stroke-linecap="round" stroke-linejoin="round"/>
<path fill-rule="evenodd" clip-rule="evenodd" d="M70.1315 146.5C68.9415 143.18 66.2615 140.74 61.5215 143.27C64.1115 144 65.9415 147.08 70.1315 146.5Z" fill="#FFE4CF" stroke="#536170" stroke-width="0.96" stroke-linecap="round" stroke-linejoin="round"/>
<path fill-rule="evenodd" clip-rule="evenodd" d="M40.221 121.5C37.741 118.2 37.221 106.31 39.901 101.22C38.851 109.51 46.081 113.35 40.221 121.5Z" fill="#FFE4CF" stroke="#536170" stroke-width="0.96" stroke-linecap="round" stroke-linejoin="round"/>
<path fill-rule="evenodd" clip-rule="evenodd" d="M36.6816 121C33.3916 118.05 26.1416 118 22.6016 121.91C29.5016 120.69 29.0016 124.36 36.6816 121Z" fill="#FFE4CF" stroke="#536170" stroke-width="0.96" stroke-linecap="round" stroke-linejoin="round"/>
<path fill-rule="evenodd" clip-rule="evenodd" d="M26.0008 117.05C23.8008 114.3 20.4708 112.85 16.8008 116.78C19.4408 116.64 22.1708 119 26.0008 117.05Z" fill="#FFE4CF" stroke="#536170" stroke-width="0.96" stroke-linecap="round" stroke-linejoin="round"/>
<path fill-rule="evenodd" clip-rule="evenodd" d="M36.6412 116.78C36.4812 112.36 31.4912 107.1 26.2012 107.28C31.8912 111.38 28.9212 113.57 36.6412 116.78Z" fill="#FFE4CF" stroke="#536170" stroke-width="0.96" stroke-linecap="round" stroke-linejoin="round"/>
<path fill-rule="evenodd" clip-rule="evenodd" d="M31.7101 105.69C29.0201 103.42 27.7101 100.05 31.7101 96.4902C31.4701 99.1702 33.7201 102 31.7101 105.69Z" fill="#FFE4CF" stroke="#536170" stroke-width="0.96" stroke-linecap="round" stroke-linejoin="round"/>
<path fill-rule="evenodd" clip-rule="evenodd" d="M49.8405 130.08C47.2105 125.51 39.0305 122.73 33.5605 125.86C41.8305 127 39.9105 131 49.8405 130.08Z" fill="#FFE4CF" stroke="#536170" stroke-width="0.96" stroke-linecap="round" stroke-linejoin="round"/>
<path d="M78.5801 157.39C75.1201 149.21 72.6401 135.03 79.0601 121.31" stroke="#536170" stroke-width="0.96" stroke-linecap="round" stroke-linejoin="round"/>
<path fill-rule="evenodd" clip-rule="evenodd" d="M76.2116 128.53C84.5516 128.41 87.6116 120.68 85.5416 116.95C79.0516 116.57 73.0016 122.82 76.2116 128.53Z" fill="#FFE4CF" stroke="#536170" stroke-width="0.96" stroke-linecap="round" stroke-linejoin="round"/>
<path fill-rule="evenodd" clip-rule="evenodd" d="M76.2112 128.53C83.9512 131.64 87.5212 125.47 87.4512 120.53C78.0012 121.74 75.4312 122 76.2112 128.53Z" fill="#FFE4CF" stroke="#536170" stroke-width="0.96" stroke-linecap="round" stroke-linejoin="round"/>
<path fill-rule="evenodd" clip-rule="evenodd" d="M76.2106 128.53C71.1106 121.92 75.3606 115.09 78.8706 114.06C83.2006 118.91 82.6806 127.51 76.2106 128.53Z" fill="#FFE4CF" stroke="#536170" stroke-width="0.96" stroke-linecap="round" stroke-linejoin="round"/>
<path fill-rule="evenodd" clip-rule="evenodd" d="M76.2113 128.53C68.9613 124.4 72.3513 116.86 75.2113 115.19C79.5613 120.33 80.3913 125.05 76.2113 128.53Z" fill="#FFE4CF" stroke="#536170" stroke-width="0.96" stroke-linecap="round" stroke-linejoin="round"/>
<path fill-rule="evenodd" clip-rule="evenodd" d="M76.2112 128.53C71.0812 124.25 79.1112 114.53 83.4312 113.53C85.7312 119.59 82.6112 129.91 76.2112 128.53Z" fill="#FFE4CF" stroke="#536170" stroke-width="0.96" stroke-linecap="round" stroke-linejoin="round"/>
<path d="M76.2109 128.53C77.1644 128.124 78.0215 127.521 78.7263 126.761C79.431 126.001 79.9676 125.101 80.3009 124.12" stroke="#536170" stroke-width="0.96" stroke-linecap="round" stroke-linejoin="round"/>
<path d="M76.2114 128.53C75.4414 127.42 76.2914 124.87 77.1514 123.89" stroke="#536170" stroke-width="0.96" stroke-linecap="round" stroke-linejoin="round"/>
<path fill-rule="evenodd" clip-rule="evenodd" d="M82.0011 129.5C83.0811 129.13 82.3111 127.96 80.6411 128.11C78.9711 128.26 80.8011 127.11 79.7611 126.64C78.7211 126.17 77.6011 127.12 76.6911 126.23C76.0311 125.59 76.0111 124.12 74.9511 124.29C74.1411 124.42 74.3011 125.69 73.7811 124.85C73.2611 124.01 71.7811 123.45 72.2511 124.76C73.4511 128.08 78.6511 130.63 82.0011 129.5Z" fill="#536170"/>
<path fill-rule="evenodd" clip-rule="evenodd" d="M76.381 150.6C76.311 147.08 77.951 143.84 83.281 144.51C81.121 146.13 80.511 149.65 76.381 150.6Z" fill="#FFE4CF" stroke="#536170" stroke-width="0.96" stroke-linecap="round" stroke-linejoin="round"/>
<path fill-rule="evenodd" clip-rule="evenodd" d="M75.2601 143.73C76.6001 139.92 74.1301 133.79 69.5801 132.18C73.0001 137.56 69.7801 138.42 75.2601 143.73Z" fill="#FFE4CF" stroke="#536170" stroke-width="0.96" stroke-linecap="round" stroke-linejoin="round"/>
</g>
<defs>
<clipPath id="clip0_92_71">
<rect width="160" height="158" fill="white"/>
</clipPath>
</defs>
</svg>
